<?xml version="1.0" encoding="UTF-8"?>
<svg xmlns="http://www.w3.org/2000/svg" baseProfile="tiny" version="1.2" viewBox="0 0 300 424">
<line x1="51.4" y1="56.7" x2="51.4" y2="367.3" fill="none" stroke="#C3D2E7" stroke-miterlimit="10"/>
<line x1="142.8" y1="95.1" x2="142.8" y2="328.9" fill="none" stroke="#C3D2E7" stroke-miterlimit="10"/>
<path d="M16.4,377.8c13.5-3.7,25.2-7.4,35-10.5,23.3-7.6,49.1-17.5,76.4-30.8,16.6-8.1,31.8-16.5,45.6-24.8l-30.6,17.2c10.8-5.7,21-11.5,30.6-17.2,21.2-12.9,45.1-29.4,69.7-50.3,19.9-16.9,36.7-33.7,50.8-49.3-14.1-15.6-30.9-32.4-50.8-49.3-24.6-20.9-48.4-37.4-69.7-50.3-13.8-8.3-29-16.7-45.6-24.8-27.2-13.3-53.1-23.3-76.4-30.8-9.7-3.2-21.5-6.8-34.9-10.5" fill="none" stroke="#C3D2E7" stroke-miterlimit="10" stroke-width="3"/>
<polyline points="16.4 398.9 16.4 220.7 26.7 217.9 6.2 206.1 16.5 203.3 16.5 25.1" fill="none" stroke="#C3D2E7" stroke-miterlimit="10"/>
</svg>