<?xml version="1.0" encoding="UTF-8"?>
<svg xmlns="http://www.w3.org/2000/svg" baseProfile="tiny" version="1.2" viewBox="0 0 590 424">
<polyline points="284.7 189.5 278.6 189.5 278.6 16.2" fill="none" stroke="#C3D2E7" stroke-miterlimit="10"/>
<polyline points="284.7 234.5 278.6 234.5 278.6 407.8" fill="none" stroke="#C3D2E7" stroke-miterlimit="10"/>
<polyline points="290.7 15.8 290.7 129.7 461.4 129.7 461.4 11.7" fill="none" stroke="#C3D2E7" stroke-miterlimit="10"/>
<polyline points="461.4 412.3 461.4 294.5 290.7 294.5 290.7 408.2" fill="none" stroke="#C3D2E7" stroke-miterlimit="10"/>
<line x1="473.8" y1="11.5" x2="473.8" y2="412.5" fill="none" stroke="#C3D2E7" stroke-miterlimit="10"/>
<line x1="467.6" y1="11.6" x2="467.6" y2="412.4" fill="none" stroke="#C3D2E7" stroke-miterlimit="10"/>
<line x1="284.7" y1="132.7" x2="467.6" y2="132.7" fill="none" stroke="#C3D2E7" stroke-miterlimit="10"/>
<line x1="284.7" y1="16" x2="284.7" y2="408" fill="none" stroke="#C3D2E7" stroke-miterlimit="10"/>
<path d="M574.2,9.5c-10.6.2-19.2.3-24.2.4-31.3.5-57.5,1.1-76.2,1.6-31.2.6-62.4,1.3-93.5,2-31.8.8-63.7,1.6-95.5,2.5-82.1,2.2-186.5,5-268.9,7.2" fill="none" stroke="#C3D2E7" stroke-miterlimit="10" stroke-width="3"/>
<path d="M574.2,414.5c-10.5-.2-19.2-.3-24.2-.4-31.3-.5-57.5-1.1-76.2-1.6-31.2-.6-62.4-1.3-93.5-2-31.8-.8-63.7-1.6-95.5-2.5-82.1-2.2-186.5-5-269-7.2" fill="none" stroke="#C3D2E7" stroke-miterlimit="10" stroke-width="3"/>
<polyline points="15.8 410.8 15.8 220.7 26.1 217.9 5.5 206.1 15.8 203.3 15.8 13.2" fill="none" stroke="#C3D2E7" stroke-miterlimit="10"/>
<line x1="284.7" y1="291.2" x2="467.6" y2="291.2" fill="none" stroke="#C3D2E7" stroke-miterlimit="10"/>
<polyline points="574.2 1.3 574.2 203.3 563.9 206.1 584.5 217.9 574.2 220.7 574.2 422.7" fill="none" stroke="#C3D2E7" stroke-miterlimit="10"/>
</svg>