<?xml version="1.0" encoding="utf-8"?>
<!-- Generator: Adobe Illustrator 28.1.0, SVG Export Plug-In . SVG Version: 6.00 Build 0)  -->
<svg version="1.2" baseProfile="tiny" id="Layer_1" xmlns="http://www.w3.org/2000/svg" xmlns:xlink="http://www.w3.org/1999/xlink"
	 x="0px" y="0px" viewBox="0 0 1300 300" overflow="visible" xml:space="preserve">
<polyline fill="none" stroke-miterlimit="10" points="1116.2,263 1116.2,150 1116.2,37 "/>
<polyline fill="none" stroke-miterlimit="10" points="1182.6,235 1182.6,150 1182.6,65 "/>
<polyline fill="none" stroke-miterlimit="10" points="672.7,295.7 672.7,150 672.7,4.3 "/>
<polyline fill="none" stroke-miterlimit="10" points="539.7,292.5 539.7,150 539.7,7.5 "/>
<polyline fill="none" stroke-miterlimit="10" points="140.6,282 140.6,150 140.6,18 "/>
<rect x="63.6" y="37.1" fill="none" stroke-miterlimit="10" width="22.2" height="13.4"/>
<line fill="none" stroke-miterlimit="10" x1="63.6" y1="50.5" x2="85.8" y2="37.1"/>
<line fill="none" stroke-miterlimit="10" x1="63.6" y1="37.1" x2="85.8" y2="50.5"/>
<rect x="63.6" y="249.5" fill="none" stroke-miterlimit="10" width="22.2" height="13.4"/>
<line fill="none" stroke-miterlimit="10" x1="63.6" y1="262.9" x2="85.8" y2="249.5"/>
<line fill="none" stroke-miterlimit="10" x1="85.8" y1="262.9" x2="63.6" y2="249.5"/>
<rect x="150.1" y="80.5" fill="none" stroke-miterlimit="10" width="22.2" height="31.2"/>
<line fill="none" stroke-miterlimit="10" x1="150.1" y1="80.5" x2="172.3" y2="111.8"/>
<line fill="none" stroke-miterlimit="10" x1="150.1" y1="111.8" x2="172.3" y2="80.5"/>
<rect x="147" y="122.1" fill="none" stroke-miterlimit="10" width="31.1" height="55.6"/>
<line fill="none" stroke-miterlimit="10" x1="147" y1="177.7" x2="178.1" y2="122.1"/>
<line fill="none" stroke-miterlimit="10" x1="178.1" y1="177.7" x2="147" y2="122.1"/>
<rect x="194.9" y="131.2" fill="none" stroke-miterlimit="10" width="33.4" height="37.6"/>
<line fill="none" stroke-miterlimit="10" x1="194.9" y1="168.8" x2="228.3" y2="131.2"/>
<line fill="none" stroke-miterlimit="10" x1="228.3" y1="168.8" x2="194.9" y2="131.2"/>
<rect x="672.7" y="92.3" fill="none" stroke-miterlimit="10" width="88.7" height="115.2"/>
<line fill="none" stroke-miterlimit="10" x1="761.4" y1="207.6" x2="672.7" y2="92.3"/>
<line fill="none" stroke-miterlimit="10" x1="672.7" y1="207.6" x2="761.4" y2="92.3"/>
<line fill="none" stroke-miterlimit="10" x1="539.7" y1="92.3" x2="672.7" y2="92.3"/>
<rect x="539.7" y="92.3" fill="none" stroke-miterlimit="10" width="133" height="115.2"/>
<line fill="none" stroke-miterlimit="10" x1="539.7" y1="207.6" x2="672.7" y2="92.3"/>
<line fill="none" stroke-miterlimit="10" x1="539.7" y1="92.3" x2="672.7" y2="207.6"/>
<rect x="943.1" y="127.8" fill="none" stroke-miterlimit="10" width="155.1" height="44.3"/>
<line fill="none" stroke-miterlimit="10" x1="943.1" y1="127.8" x2="1098.2" y2="172.1"/>
<line fill="none" stroke-miterlimit="10" x1="1098.2" y1="127.8" x2="943.1" y2="172.1"/>
<rect x="764.6" y="127.8" fill="none" stroke-miterlimit="10" width="159.6" height="44.3"/>
<line fill="none" stroke-miterlimit="10" x1="764.6" y1="127.8" x2="924.2" y2="172.1"/>
<line fill="none" stroke-miterlimit="10" x1="764.6" y1="172.1" x2="924.2" y2="127.8"/>
<path fill="none" stroke="#C3D2E7" stroke-width="3" stroke-linejoin="round" stroke-miterlimit="10" d="M7.6,150v122.4l51.5,7.5
	l86,2.2c60.4,1.5,137.1,3.5,197.5,5.1c60.2,1.6,136.9,3.7,197.2,5.3c23.1,0.7,46.3,1.3,69.4,1.8c22.7,0.5,45.4,1,68,1.5
	c13.6,0.3,32.6,0.8,55.4,1.2c10.2,0.2,41.1,0.7,64.5,0.9c32.3,0.2,66.9,0.4,110.9-1.7c64.5-3.1,103.9-9.1,120.6-11.9
	c18.4-3.1,32.5-6.3,36.9-7.3c20.8-4.8,38-9.9,50.7-14c17-5.5,35.7-12.8,55.5-22.4c12.1-5.9,23.1-12,33.2-18.1
	c15.4-9.4,32.8-21.4,50.7-36.6c14.4-12.3,26.7-24.5,36.9-35.9c-10.3-11.4-22.5-23.6-36.9-35.9c-17.9-15.2-35.2-27.2-50.7-36.6
	c-10-6.1-21.1-12.2-33.2-18.1c-19.8-9.7-38.6-16.9-55.5-22.4c-12.7-4.1-29.9-9.2-50.7-14c-4.4-1-18.4-4.2-36.9-7.3
	c-16.7-2.8-56.1-8.8-120.6-11.9c-43.9-2.1-78.6-1.9-110.9-1.7c-23.4,0.2-54.4,0.7-64.5,0.9c-22.8,0.4-41.8,0.8-55.4,1.2
	c-22.7,0.4-45.4,0.9-68,1.5c-23.2,0.6-46.3,1.2-69.4,1.8c-60.2,1.6-136.9,3.7-197.2,5.3c-60.4,1.6-137.1,3.6-197.5,5.1l-86,2.2
	L7.6,27.6C7.6,27.6,7.6,150,7.6,150z"/>
</svg>
