<?xml version="1.0" encoding="utf-8"?>
<!-- Generator: Adobe Illustrator 28.1.0, SVG Export Plug-In . SVG Version: 6.00 Build 0)  -->
<svg version="1.2" baseProfile="tiny" id="Layer_1" xmlns="http://www.w3.org/2000/svg" xmlns:xlink="http://www.w3.org/1999/xlink"
	 x="0px" y="0px" viewBox="0 0 1316 336" overflow="visible" xml:space="preserve">
<polygon fill="none" stroke-miterlimit="10" points="371.2,168 371.2,246.2 260,246.2 214.8,262.3 147.9,262.3 
	147.9,235.4 260,232.8 337.8,194.8 337.8,168 337.8,141.2 260,103.2 147.9,100.6 147.9,73.7 214.8,73.7 260,89.8 371.2,89.8 "/>
<path fill="none" stroke="#C3D2E7" stroke-width="3" stroke-miterlimit="10" d="M246.6,303.8l0,1.9c0,0.2,0,0.6-0.2,1
	c-0.1,0.3-0.3,0.5-0.4,0.6l-4.9,4.7c-0.1,0.1-0.4,0.3-0.8,0.5c-0.3,0.1-0.6,0.2-0.8,0.2l-174.7-4.5l-52.5-7.6
	c-0.7-0.1-3.5-0.6-5.6-3.2c-2-2.4-2.1-5-2.1-5.7v-46c0-0.2,0.1-0.6,0.3-0.9c0.1-0.3,0.3-0.5,0.4-0.6l5.2-5.4h3.2c0,0,0-70.6,0-70.6
	V97.4h-3.2L5.3,92c-0.1-0.1-0.3-0.3-0.4-0.6c-0.2-0.4-0.3-0.7-0.3-0.9v-46c0-0.7,0.1-3.3,2.1-5.7c2.1-2.5,4.9-3.1,5.6-3.2l52.5-7.6
	l174.7-4.5c0.2,0,0.5,0,0.8,0.2c0.4,0.1,0.6,0.4,0.8,0.5l4.9,4.7c0.1,0.1,0.3,0.3,0.4,0.6c0.2,0.4,0.2,0.8,0.2,1l0,1.9"/>
<path fill="none" stroke-miterlimit="10" d="M13.5,238.6v52.9l51.9,7.6l181.1,4.6l26,0.7
	c4.7,0.1,102.1,2.7,201.1,5.4c0,0,46.2,1.2,127,3.3c72.3,1.9,119.1,3,179.9,3.7c20.7,0.2,37.8,0.4,49.3,0.5c8.6,0,20.5,0,34.7-0.2
	c24.1-0.3,54.3-0.8,92.5-3.7c20.8-1.6,43.7-3.3,74.2-8.1c15.5-2.4,28.5-4.9,38-6.8c9.2-2,22-5,37-9.3c16.2-4.6,41.5-12,72.3-26.3
	c21.8-10.1,37.5-19.5,43.3-23.1c15.2-9.3,26.1-17.4,29.8-20.2c17.7-13.3,30-25,37.9-32.6c7.8-7.4,14.1-13.9,18.6-18.8V168v-0.5
	c-4.5-4.9-10.8-11.4-18.6-18.8c-7.9-7.5-20.2-19.3-37.9-32.6c-3.7-2.7-14.6-10.8-29.8-20.2c-5.8-3.6-21.5-13-43.3-23.1
	c-30.8-14.3-56.1-21.6-72.3-26.3c-15.1-4.3-27.8-7.3-37-9.3c-9.5-1.9-22.5-4.4-38-6.8c-30.5-4.7-53.4-6.5-74.2-8.1
	c-38.2-2.9-68.3-3.3-92.5-3.7c-14.2-0.2-26.1-0.2-34.7-0.2c-11.5,0.1-28.6,0.2-49.3,0.5c-60.8,0.7-107.6,1.9-179.9,3.7
	c-80.8,2.1-127,3.3-127,3.3c-99,2.7-196.3,5.2-201.1,5.4l-26,0.7L65.4,36.9l-51.9,7.6v52.9"/>
<path fill="none" stroke="#C3D2E7" stroke-width="3" stroke-miterlimit="10" d="M272.5,304.5v2.2c0,0.2,0,0.4,0.2,0.7
	c0.2,0.4,0.4,0.7,0.5,0.8c0,0,4.5,4.7,4.5,4.7c0.2,0.1,0.4,0.3,0.7,0.5c0.3,0.1,0.6,0.2,0.8,0.2c185,5,272.7,7.3,318.5,8.5
	c27.1,0.7-2.6-0.1,110.3,2.5c17.2,0.4,42.9,1,77.2,1.4c18.9,0.2,34.4,0.3,44.6,0.3c0,0,6.3,6.3,6.3,6.3c0.1,0.1,0.2,0.2,0.4,0.3
	c0.2,0.1,0.4,0.1,0.5,0.1c10.6,0,25.5-0.1,43.2-0.5c18.5-0.4,41.6-1,71.9-3c28.5-1.9,48.6-4.2,58.9-5.5c9.2-1.1,15.9-2.1,18.8-2.5
	c14.5-2.1,26.6-4.4,35.6-6.1c0.1,0,0.3-0.1,0.6-0.3c0.1-0.1,0.2-0.2,0.3-0.3c0,0,4.8-7.4,4.8-7.4c11.9-2.5,27.1-6,44.5-11.1
	c16.8-4.9,29.1-9.4,31.9-10.4c33.9-12.4,58.6-26,64.1-29.1c29.2-16.3,50.7-33,63.8-44c14.8-12.5,26.7-24.2,35.5-33.5
	c0.1-0.1,0.3-0.3,0.5-0.7c0.2-0.4,0.2-0.7,0.1-0.9l0,0V168v-9.6l0,0c0-0.2,0-0.5-0.1-0.9c-0.1-0.3-0.4-0.5-0.5-0.7
	c-8.8-9.4-20.6-21.1-35.5-33.5c-13.1-11-34.7-27.7-63.8-44c-5.4-3-30.1-16.7-64.1-29.1c-2.8-1-15.1-5.5-31.9-10.4
	c-17.4-5.1-32.5-8.7-44.5-11.1c0,0-4.8-7.4-4.8-7.4c0-0.1-0.1-0.2-0.3-0.3c-0.2-0.2-0.5-0.2-0.6-0.3c-9-1.8-21.1-4-35.6-6.1
	c-2.9-0.4-9.6-1.4-18.8-2.5c-10.3-1.3-30.4-3.6-58.9-5.5c-30.3-2.1-53.4-2.6-71.9-3C862.5,3.1,847.7,3,837.1,3c-0.1,0-0.3,0-0.5,0.1
	c-0.2,0.1-0.3,0.2-0.4,0.3c0,0-6.3,6.3-6.3,6.3c-10.3,0-25.8,0.1-44.6,0.3c-34.3,0.4-60,1-77.2,1.4c-112.9,2.6-83.2,1.8-110.3,2.5
	c-45.8,1.2-133.5,3.5-318.5,8.5c-0.2,0-0.5,0.1-0.8,0.2c-0.3,0.1-0.6,0.3-0.7,0.5c0,0-4.5,4.7-4.5,4.7c-0.1,0.1-0.4,0.4-0.5,0.8
	c-0.1,0.3-0.1,0.6-0.2,0.7v2.2"/>
<path fill="none" stroke-miterlimit="10" d="M470.4,95.2v34c24.1,0.2,48.5,0.3,73.2,0.1c9.6-0.1,19.1-0.2,28.6-0.3
	c0,0,22.3-1.4,22.3-1.4V84.2c0,0-112.1,0.4-112.1,0.4L470.4,95.2z"/>
<polyline fill="none" stroke-miterlimit="10" points="949.2,246 1130.7,202.9 1130.7,168 1130.7,133.1 949.2,90 
	"/>
<polygon fill="none" stroke-miterlimit="10" points="970.8,168 970.8,203.7 937.2,269.6 464.4,265.9 464.4,168 
	464.4,70.1 937.2,66.4 970.8,132.3 "/>
<path fill="none" stroke-miterlimit="10" d="M470.4,240.8v-34c24.1-0.2,48.5-0.3,73.2-0.1
	c9.6,0.1,19.1,0.2,28.6,0.3c0,0,22.3,1.4,22.3,1.4v43.4c0,0-112.1-0.4-112.1-0.4L470.4,240.8z"/>
<line fill="none" stroke-width="0.5" stroke-miterlimit="10" x1="147.8" y1="34.8" x2="147.8" y2="301.2"/>
<line fill="none" stroke-width="0.5" stroke-miterlimit="10" x1="549.9" y1="311.8" x2="549.9" y2="24.2"/>
<line fill="none" stroke-width="0.5" stroke-miterlimit="10" x1="684" y1="20.8" x2="684" y2="315.2"/>
<line fill="none" stroke-width="0.5" stroke-miterlimit="10" x1="1130.8" y1="281.8" x2="1130.8" y2="54.1"/>
<line fill="none" stroke-width="0.5" stroke-miterlimit="10" x1="1197.7" y1="82.4" x2="1197.7" y2="253.6"/>
</svg>
