<?xml version="1.0" encoding="utf-8"?>
<!-- Generator: Adobe Illustrator 28.1.0, SVG Export Plug-In . SVG Version: 6.00 Build 0)  -->
<svg version="1.2" baseProfile="tiny" id="Layer_1" xmlns="http://www.w3.org/2000/svg" xmlns:xlink="http://www.w3.org/1999/xlink"
	 x="0px" y="0px" viewBox="0 0 1000 256" overflow="visible" xml:space="preserve">
<polygon fill="none" stroke-miterlimit="10" points="282.7,128 282.7,187.2 198.5,187.2 164.3,199.4 113.5,199.4 
	113.5,179.1 198.5,177.1 257.4,148.3 257.4,128 257.4,107.7 198.5,78.9 113.5,76.9 113.5,56.6 164.3,56.6 198.5,68.8 282.7,68.8 "/>
<path fill="none" stroke-miterlimit="10" d="M11.7,181.5v40.1l39.3,5.8l137.2,3.5l19.7,0.5
	c3.6,0.1,77.3,2.1,152.3,4.1c0,0,35,0.9,96.2,2.5c54.8,1.4,90.3,2.3,136.3,2.8c15.7,0.2,28.7,0.3,37.4,0.3c6.5,0,15.5,0,26.3-0.1
	c18.3-0.3,41.1-0.6,70.1-2.8c15.8-1.2,33.1-2.5,56.2-6.1c11.7-1.8,21.6-3.7,28.8-5.2c7-1.5,16.7-3.8,28.1-7
	c12.3-3.5,31.4-9.1,54.8-19.9c16.5-7.6,28.4-14.8,32.8-17.5c11.5-7.1,19.8-13.2,22.5-15.3c13.4-10.1,22.8-19,28.7-24.7
	c5.9-5.6,10.7-10.6,14.1-14.2V128v-0.4c-3.4-3.7-8.2-8.6-14.1-14.2c-6-5.7-15.3-14.6-28.7-24.7c-2.8-2.1-11-8.2-22.5-15.3
	c-4.4-2.7-16.3-9.8-32.8-17.5c-23.4-10.8-42.5-16.4-54.8-19.9c-11.4-3.3-21.1-5.5-28.1-7c-7.2-1.5-17-3.4-28.8-5.2
	c-23.1-3.6-40.4-4.9-56.2-6.1c-28.9-2.2-51.8-2.5-70.1-2.8c-10.8-0.2-19.8-0.2-26.3-0.1c-8.7,0.1-21.7,0.2-37.4,0.3
	c-46.1,0.5-81.5,1.4-136.3,2.8c-61.2,1.6-96.2,2.5-96.2,2.5c-75,2-148.7,4-152.3,4.1l-19.7,0.5L51.1,28.7l-39.3,5.8v40.1"/>
<path fill="none" stroke-miterlimit="10" d="M357.9,72.8v25.8c18.3,0.2,36.8,0.2,55.4,0.1
	c7.3-0.1,14.5-0.1,21.7-0.2c0,0,16.9-1,16.9-1V64.5c0,0-84.9,0.3-84.9,0.3L357.9,72.8z"/>
<polyline fill="none" stroke-miterlimit="10" points="720.6,187.1 858.1,154.4 858.1,128 858.1,101.6 720.6,68.9 
	"/>
<polygon fill="none" stroke-miterlimit="10" points="737,128 737,155.1 711.5,205 353.3,202.2 353.3,128 
	353.3,53.8 711.5,51 737,100.9 "/>
<path fill="none" stroke-miterlimit="10" d="M357.9,183.2v-25.8c18.3-0.2,36.8-0.2,55.4-0.1
	c7.3,0.1,14.5,0.1,21.7,0.2c0,0,16.9,1,16.9,1v32.9c0,0-84.9-0.3-84.9-0.3L357.9,183.2z"/>
<line fill="none" stroke-miterlimit="10" x1="113.5" y1="27.1" x2="113.5" y2="228.9"/>
<line fill="none" stroke-miterlimit="10" x1="418.1" y1="237" x2="418.1" y2="19"/>
<line fill="none" stroke-miterlimit="10" x1="519.7" y1="16.5" x2="519.7" y2="239.5"/>
<line fill="none" stroke-miterlimit="10" x1="858.1" y1="214.2" x2="858.1" y2="41.7"/>
<line fill="none" stroke-miterlimit="10" x1="908.9" y1="63.1" x2="908.9" y2="192.9"/>
<polygon fill="none" stroke-miterlimit="10" points="721.7,99.8 701.7,60.3 691.6,63.9 710,99.8 "/>
<polygon fill="none" stroke-miterlimit="10" points="711,152 711,128 711,104 722.7,104 722.7,128 722.7,152 "/>
<polygon fill="none" stroke-miterlimit="10" points="721.7,156.2 701.7,195.7 691.6,192.1 710,156.2 "/>
<polygon fill="none" stroke-miterlimit="10" points="858.1,128 858.1,154.3 706.2,190.5 702.1,198.6 510.8,198.6 
	510.8,198.4 367.8,198.4 367.8,158.7 452,158.7 452,128 452,97.3 367.8,97.3 367.8,57.6 510.8,57.6 510.8,57.4 702.1,57.4 
	706.2,65.5 858.1,101.7 "/>
<path fill="none" stroke="#C3D2E7" stroke-width="3" stroke-linejoin="round" stroke-miterlimit="10" d="M188.3,25.2l0-1.4
	c0-0.2,0-0.4-0.2-0.8c-0.1-0.2-0.2-0.4-0.3-0.4l-3.7-3.6c-0.1-0.1-0.3-0.3-0.6-0.4c-0.2-0.1-0.5-0.1-0.6-0.1L50.5,21.9l-39.8,5.8
	c-0.5,0.1-2.6,0.5-4.2,2.4C5.1,31.9,5,33.8,5,34.4v34.8c0,0.2,0.1,0.4,0.2,0.7c0.1,0.2,0.2,0.4,0.3,0.5l4,4.1h2.4V128
	c0,0,0,53.5,0,53.5H9.5l-4,4.1c-0.1,0.1-0.2,0.3-0.3,0.5c-0.1,0.3-0.2,0.5-0.2,0.7v34.8c0,0.6,0.1,2.5,1.6,4.3
	c1.6,1.9,3.7,2.3,4.2,2.4l39.8,5.8l132.4,3.4c0.1,0,0.4,0,0.6-0.1c0.3-0.1,0.5-0.3,0.6-0.4l3.7-3.6c0.1-0.1,0.2-0.2,0.3-0.4
	c0.2-0.3,0.2-0.6,0.2-0.8l0-1.4l19.7,0.5v1.7c0,0.1,0,0.3,0.1,0.6c0.1,0.3,0.3,0.5,0.4,0.6c0,0,3.4,3.6,3.4,3.6
	c0.1,0.1,0.3,0.2,0.5,0.3c0.2,0.1,0.5,0.1,0.6,0.2c140.1,3.8,206.6,5.5,241.3,6.4c20.5,0.5-2-0.1,83.6,1.9c13,0.3,32.5,0.7,58.5,1
	c14.3,0.2,26,0.2,33.8,0.3c0,0,4.8,4.8,4.8,4.8c0.1,0.1,0.1,0.1,0.3,0.2c0.1,0.1,0.3,0.1,0.4,0.1c8,0,19.3-0.1,32.7-0.4
	c14-0.3,31.5-0.7,54.4-2.3c21.6-1.5,36.8-3.2,44.6-4.2c7-0.9,12.1-1.6,14.3-1.9c11-1.6,20.1-3.3,27-4.6c0.1,0,0.3-0.1,0.4-0.2
	c0.1-0.1,0.2-0.2,0.2-0.2c0,0,3.7-5.6,3.7-5.6c9.1-1.9,20.5-4.6,33.7-8.4c12.7-3.7,22-7.1,24.1-7.9c25.7-9.4,44.4-19.7,48.5-22
	c22.1-12.4,38.4-25,48.4-33.4c11.2-9.4,20.2-18.3,26.9-25.4c0.1-0.1,0.3-0.2,0.4-0.5c0.1-0.3,0.1-0.5,0.1-0.7l0,0V128v-7.3l0,0
	c0-0.1,0-0.4-0.1-0.7c-0.1-0.3-0.3-0.4-0.4-0.5c-6.7-7.1-15.6-16-26.9-25.4c-9.9-8.3-26.3-21-48.4-33.4c-4.1-2.3-22.8-12.6-48.5-22
	c-2.1-0.8-11.4-4.1-24.1-7.9c-13.2-3.9-24.7-6.6-33.7-8.4c0,0-3.7-5.6-3.7-5.6c0-0.1-0.1-0.2-0.2-0.2c-0.2-0.1-0.3-0.2-0.4-0.2
	c-6.8-1.3-16-3-27-4.6c-2.2-0.3-7.3-1.1-14.3-1.9c-7.8-1-23-2.7-44.6-4.2c-22.9-1.6-40.4-2-54.4-2.3C654.9,3.1,643.7,3,635.7,3
	c-0.1,0-0.2,0-0.4,0.1c-0.1,0.1-0.2,0.2-0.3,0.2c0,0-4.8,4.8-4.8,4.8c-7.8,0-19.5,0.1-33.8,0.3c-26,0.3-45.4,0.7-58.5,1
	c-85.6,2-63,1.4-83.6,1.9c-34.7,0.9-101.1,2.6-241.3,6.4c-0.2,0-0.4,0-0.6,0.2c-0.3,0.1-0.4,0.2-0.5,0.3c0,0-3.4,3.6-3.4,3.6
	c-0.1,0.1-0.3,0.3-0.4,0.6c-0.1,0.2-0.1,0.4-0.1,0.6v1.7L188.3,25.2z"/>
</svg>
