<?xml version="1.0" encoding="UTF-8" standalone="no"?>
<svg xmlns:rdf="http://www.w3.org/1999/02/22-rdf-syntax-ns#" xmlns="http://www.w3.org/2000/svg" xml:space="preserve" overflow="visible" height="39.18" viewBox="0 0 41.354 39.18" width="41.354" version="1.1" enable-background="new 0 0 41.354 39.18" xmlns:cc="http://creativecommons.org/ns#" xmlns:dc="http://purl.org/dc/elements/1.1/">
<path id="bgColor00" d="m0 12.779v13.619h6.122l13.678 10.155v-33.925l-13.678 10.151h-6.122zm26.992-5.662c-0.802-0.805-2.105-0.805-2.908 0-0.804 0.805-0.804 2.105 0 2.91 2.643 2.645 3.956 6.09 3.96 9.551-0.004 3.475-1.315 6.926-3.96 9.572-0.804 0.807-0.804 2.109 0 2.91 0.402 0.404 0.929 0.602 1.454 0.602 0.528 0 1.055-0.197 1.456-0.602 3.442-3.441 5.166-7.973 5.164-12.482 0.002-4.506-1.727-9.025-5.166-12.461m6.498-6.515c-0.804-0.802-2.108-0.802-2.91 0-0.802 0.804-0.802 2.108 0 2.91 4.437 4.439 6.656 10.23 6.658 16.045-0.002 5.838-2.208 11.658-6.658 16.109-0.802 0.805-0.802 2.107 0 2.91 0.402 0.402 0.929 0.604 1.454 0.604 0.526 0 1.054-0.203 1.456-0.604 5.248-5.25 7.866-12.146 7.864-19.02 0.002-6.857-2.635-13.728-7.864-18.954"/>
</svg>
