<?xml version="1.0" encoding="UTF-8" standalone="no"?>
<svg xmlns:rdf="http://www.w3.org/1999/02/22-rdf-syntax-ns#" xmlns="http://www.w3.org/2000/svg" xml:space="preserve" overflow="visible" height="35.98" viewBox="0 0 35.979 35.98" width="35.979" version="1.1" enable-background="new 0 0 35.979 35.98" xmlns:cc="http://creativecommons.org/ns#" xmlns:dc="http://purl.org/dc/elements/1.1/">
<path id="bgColor00" d="m35.979 19.952v-4.095l-0.579-0.187-4.382-1.433-1.169-2.824 2.247-4.756-2.896-2.896-0.542 0.276-4.11 2.088-2.823-1.169-1.775-4.956h-4.094l-0.188 0.58-1.431 4.383-2.823 1.169-4.759-2.247-2.894 2.894 0.275 0.543 2.087 4.112-1.168 2.82-4.955 1.775v4.097l0.578 0.188 4.384 1.432 1.17 2.821-2.249 4.758 2.895 2.896 0.543-0.274 4.111-2.088 2.821 1.169 1.776 4.953h4.095l0.189-0.578 1.431-4.382 2.821-1.17 4.758 2.248 2.896-2.896-0.273-0.541-2.089-4.11 1.171-2.825 4.951-1.775zm-17.989 3.774c-3.167 0-5.732-2.567-5.732-5.734s2.565-5.733 5.732-5.733c3.166 0 5.733 2.566 5.733 5.733s-2.567 5.734-5.733 5.734"/>
</svg>
