<?xml version="1.0" encoding="utf-8"?>
<!-- Generator: Adobe Illustrator 19.0.0, SVG Export Plug-In . SVG Version: 6.00 Build 0)  -->
<svg version="1.2" baseProfile="tiny" id="Layer_1" xmlns="http://www.w3.org/2000/svg" xmlns:xlink="http://www.w3.org/1999/xlink"
	 x="0px" y="0px" viewBox="0 0 31 46" xml:space="preserve">
<path fill="#FF0000" d="M26.9,45H4.1C2.4,45,1,43.5,1,41.6V7.4C1,5.6,2.4,4,4.1,4H13v2H4.1C3.6,6,3,6.6,3,7.4v34.3C3,42.4,3.6,43,4.1,43h22.8
	c0.5,0,1.1-0.6,1.1-1.4V7.4C28,6.5,27.6,6,26.9,6H18V4h8.9C28.4,4,30,5.1,30,7.4v34.3C30,43.5,28.6,45,26.9,45z"/>
<path fill="#FF0000" d="M19.9,6h-2V3h-4.8v3h-2V3c0-1.2,0.8-2,2-2H18c1.1,0,2,0.8,2,2v3H19.9z"/>
<path fill="#000000" d="M27.1,6H4C3.5,6,3,6.5,3,7V42c0,0.5,0.5,1,1,1h23.1c0.5,0,1-0.5,1-1V7C28.1,6.5,27.7,6,27.1,6z M26,39
	c0,1.1-0.9,2-2,2H7c-1.1,0-2-0.9-2-2v-1c0-1.1,0.9-2,2-2h17c1.1,0,2,0.9,2,2V39z M26,32c0,1.1-0.9,2-2,2H7c-1.1,0-2-0.9-2-2v-1
	c0-1.1,0.9-2,2-2h17c1.1,0,2,0.9,2,2V32z M26,25c0,1.1-0.9,2-2,2H7c-1.1,0-2-0.9-2-2v-1c0-1.1,0.9-2,2-2h17c1.1,0,2,0.9,2,2V25z
	 M26,18c0,1.1-0.9,2-2,2H7c-1.1,0-2-0.9-2-2v-1c0-1.1,0.9-2,2-2h17c1.1,0,2,0.9,2,2V18z M26,11c0,1.1-0.9,2-2,2H7c-1.1,0-2-0.9-2-2
	v-1c0-1.1,0.9-2,2-2h17c1.1,0,2,0.9,2,2V11z"/>
</svg>
