<?xml version="1.0" encoding="utf-8"?>
<!-- Generator: Adobe Illustrator 19.0.0, SVG Export Plug-In . SVG Version: 6.00 Build 0)  -->
<svg version="1.2" baseProfile="tiny" id="Layer_1" xmlns="http://www.w3.org/2000/svg" xmlns:xlink="http://www.w3.org/1999/xlink"
	 x="0px" y="0px" width="25px" height="25px" viewBox="0 0 25 25" xml:space="preserve">
<circle id="XMLID_1_" fill="#010916" cx="12.5" cy="12.5" r="11.5"/>	 
<path id="XMLID_3_" fill-rule="evenodd" fill="#FF0000" d="M5.6,19.7C7,19.5,7.9,19,8.5,18.2c0.1,0.1,0.1,0.2,0.2,0.3
	c0.5,0.8,1.1,1.2,2,1.2c1,0,1.7-0.5,2.1-1.4c0.5,0.9,1.2,1.4,2,1.4c0.9,0,1.6-0.5,2.1-1.6c0.6,1,1.4,1.6,2.5,1.6
	c0.2,0,0.4-0.2,0.4-0.5c0-0.3-0.2-0.5-0.4-0.5c-1,0-1.7-0.6-2.1-1.8c-0.2-0.4-0.6-0.4-0.7,0c-0.4,1.2-1,1.8-1.7,1.8
	c-0.7,0-1.3-0.6-1.7-1.8c-0.2-0.5-0.7-0.4-0.8,0.1c-0.2,1.2-0.8,1.7-1.7,1.7c-0.6,0-1-0.3-1.4-0.8c-0.2-0.3-0.3-0.7-0.4-0.9
	c-0.1-0.5-0.6-0.5-0.8,0c-0.2,0.8-1.1,1.4-2.6,1.7c-0.2,0-0.4,0.3-0.3,0.6C5.2,19.6,5.4,19.8,5.6,19.7z M6.3,13.4h12.9L12.7,6
	L6.3,13.4z M12.5,1C18.9,1,24,6.1,24,12.5S18.9,24,12.5,24S1,18.9,1,12.5S6.1,1,12.5,1z"/>
</svg>
