<?xml version="1.0" encoding="utf-8"?>
<!-- Generator: Adobe Illustrator 19.0.0, SVG Export Plug-In . SVG Version: 6.00 Build 0)  -->
<svg version="1.2" baseProfile="tiny" id="Layer_1" xmlns="http://www.w3.org/2000/svg" xmlns:xlink="http://www.w3.org/1999/xlink"
	 x="0px" y="0px" width="44px" height="44px" viewBox="0 0 44 44" xml:space="preserve">
<path id="XMLID_7_" fill="#FFFFFF" d="M37,24.7l-1,5c-1.8,0.3-4.5,0.9-7.3,2.4c-3.3,1.7-5.4,3.8-6.6,5.3c-1.2-1.4-3.5-3.6-6.6-5.3
	c-2.9-1.5-5.6-2.1-7.3-2.4l-1-5c0.6,0,2,0.1,3.6-0.9c1-0.6,1.6-1.5,1.9-1.9c0.1,0.2,1.6,2.7,4.7,2.8c3.1,0.1,4.7-2.4,4.8-2.5
	c0.1,0.1,1.7,2.7,4.8,2.5s4.6-2.5,4.7-2.8c0.3,0.5,0.9,1.3,1.9,1.9C35,24.8,36.5,24.8,37,24.7z"/>
<path id="XMLID_6_" fill="none" stroke="#FFFFFF" stroke-width="1.5" stroke-miterlimit="10" d="M40.9,6.7L36,29.5
	c-1.6,0.1-4.5,0.5-7.5,2.1C25,33.3,23,35.8,22,37.1c-1-1.3-3.1-3.8-6.4-5.5c-3.1-1.6-5.9-2-7.5-2.1l-5-22.9"/>
<line id="XMLID_5_" fill="none" stroke="#FFFFFF" stroke-width="1.5" stroke-miterlimit="10" x1="3.8" y1="10" x2="40.2" y2="10"/>
</svg>
