<?xml version="1.0" encoding="utf-8"?>
<!-- Generator: Adobe Illustrator 19.0.0, SVG Export Plug-In . SVG Version: 6.00 Build 0)  -->
<svg version="1.2" baseProfile="tiny" id="Layer_1" xmlns="http://www.w3.org/2000/svg" xmlns:xlink="http://www.w3.org/1999/xlink"
	 x="0px" y="0px" width="25px" height="25px" viewBox="0 0 25 25" xml:space="preserve">
<circle id="XMLID_1_" fill="#010916" cx="12.5" cy="12.5" r="11.5"/>
<path id="XMLID_9_" fill-rule="evenodd" fill="#465C7E" d="M12.5,1C6.1,1,1,6.1,1,12.5S6.1,24,12.5,24S24,18.9,24,12.5
	S18.9,1,12.5,1z M19.2,8.1l-6.5,7.3L6.3,8.1H19.2z M19.3,19.7c-1,0-1.9-0.5-2.5-1.6c-0.5,1-1.2,1.6-2.1,1.6c-0.8,0-1.5-0.5-2-1.4
	c-0.4,0.9-1.1,1.4-2.1,1.4c-0.8,0-1.5-0.5-2-1.2c-0.1-0.1-0.1-0.2-0.2-0.3C7.9,19,7,19.5,5.6,19.7c-0.2,0-0.4-0.1-0.5-0.4
	c0-0.3,0.1-0.6,0.3-0.6C7,18.4,7.9,17.8,8.1,17c0.1-0.5,0.7-0.5,0.8,0c0,0.2,0.2,0.5,0.4,0.9c0.3,0.5,0.8,0.8,1.4,0.8
	c0.9,0,1.4-0.5,1.7-1.7c0.1-0.5,0.6-0.5,0.8-0.1c0.4,1.2,1,1.8,1.7,1.8c0.7,0,1.3-0.6,1.7-1.8c0.1-0.4,0.6-0.4,0.7,0
	c0.5,1.2,1.2,1.8,2.1,1.8c0.2,0,0.4,0.2,0.4,0.5S19.6,19.7,19.3,19.7z"/>
</svg>
