<?xml version="1.0" encoding="UTF-8"?>
<svg xmlns="http://www.w3.org/2000/svg" baseProfile="tiny" version="1.2" viewBox="0 0 60 60">
  <!-- Generator: Adobe Illustrator 28.6.0, SVG Export Plug-In . SVG Version: 1.2.0 Build 709)  -->
<path d="M42.7,13.7c-9,0-16.3,7.3-16.3,16.3s7.3,16.3,16.3,16.3,16.3-7.3,16.3-16.3-7.3-16.3-16.3-16.3ZM42.7,44.9c-8.2,0-14.9-6.7-14.9-14.9s6.7-14.9,14.9-14.9,14.9,6.7,14.9,14.9-6.7,14.9-14.9,14.9Z"/>
<path d="M7.9,26.7v-3.6l-6.9,6.9,6.9,6.9v-3.6h13.8v-6.5H7.9ZM20.2,31.7H6.4v1.5l-3.2-3.2,3.2-3.2v1.5h13.8v3.4Z"/>
<path d="M24.7,43.8c-3.5-3.5-5.7-8.4-5.7-13.8s2.2-10.3,5.7-13.8c0,0,2.3,2.3,2.3,2.3-2.9,2.9-4.8,7-4.8,11.5s1.8,8.6,4.8,11.5c0,0-2.3,2.3-2.3,2.3Z"/>
</svg>