<?xml version="1.0" encoding="UTF-8"?>
<svg xmlns="http://www.w3.org/2000/svg" baseProfile="tiny" version="1.2" viewBox="0 0 60 60">
  <!-- Generator: Adobe Illustrator 28.6.0, SVG Export Plug-In . SVG Version: 1.2.0 Build 709)  -->
<path d="M42.7,13.7c-9,0-16.3,7.3-16.3,16.3s7.3,16.3,16.3,16.3,16.3-7.3,16.3-16.3-7.3-16.3-16.3-16.3ZM42.7,44.9c-8.2,0-14.9-6.7-14.9-14.9s6.7-14.9,14.9-14.9,14.9,6.7,14.9,14.9-6.7,14.9-14.9,14.9Z"/>
<path d="M21.7,30l-6.9-6.9v3.6H1v6.5h13.8v3.6l6.9-6.9ZM2.6,31.7v-3.4h13.8v-1.5l3.2,3.2-3.2,3.2v-1.5H2.6Z"/>
<path d="M28.9,43.8c-3.5-3.5-5.7-8.4-5.7-13.8s2.2-10.3,5.7-13.8c0,0,2.3,2.3,2.3,2.3-2.9,2.9-4.8,7-4.8,11.5s1.8,8.6,4.8,11.5c0,0-2.3,2.3-2.3,2.3Z"/>
</svg>