<?xml version="1.0" encoding="utf-8"?>
<!-- Generator: Adobe Illustrator 19.0.0, SVG Export Plug-In . SVG Version: 6.00 Build 0)  -->
<svg version="1.2" baseProfile="tiny" id="Layer_1" xmlns="http://www.w3.org/2000/svg" xmlns:xlink="http://www.w3.org/1999/xlink"
	 x="0px" y="0px" viewBox="0 0 45 45" xml:space="preserve">
<circle id="XMLID_3_" fill-rule="evenodd" fill="#465C7E" cx="22.5" cy="22.5" r="17.5"/>
<path id="XMLID_2_" fill="#465C7E" d="M22.5,3C33.3,3,42,11.7,42,22.5S33.3,42,22.5,42S3,33.3,3,22.5S11.7,3,22.5,3 M22.5,1
	C10.6,1,1,10.6,1,22.5S10.6,44,22.5,44S44,34.4,44,22.5S34.4,1,22.5,1L22.5,1z"/>
<path id="XMLID_5_" fill="#FFFFFF" d="M21.5,23.5h-5.5v-1.9h5.5v-5.8h1.9v5.8h5.5v1.9h-5.5v5.8h-1.9V23.5z"/>
</svg>
