<?xml version="1.0" encoding="utf-8"?>
<!-- Generator: Adobe Illustrator 19.0.0, SVG Export Plug-In . SVG Version: 6.00 Build 0)  -->
<svg version="1.2" baseProfile="tiny" id="Layer_1" xmlns="http://www.w3.org/2000/svg" xmlns:xlink="http://www.w3.org/1999/xlink"
	 x="0px" y="0px" width="200px" height="40px" viewBox="0 0 200 40" xml:space="preserve">
<path id="XMLID_7_" fill="#465C7E" d="M5,0h190c2.8,0,5,2.2,5,5v30c0,2.8-2.2,5-5,5H5c-2.8,0-5-2.2-5-5V5C0,2.2,2.2,0,5,0z"/>
<polyline id="XMLID_12_" fill="none" stroke="#FFFFFF" stroke-width="1.5" stroke-miterlimit="10" points="29.7,14.8 34.5,12.3 
	34.5,32.8 29.7,31.7 21.4,31.7 21.4,24.5 21.4,19.7 21.4,14.8 29.7,14.8 29.7,31.7 "/>
<line id="XMLID_1_" fill="none" stroke="#465C7E" stroke-width="2" stroke-miterlimit="10" x1="20.4" y1="19.7" x2="20.4" y2="24.5"/>
<path id="XMLID_6_" fill="none" stroke="#FFFFFF" stroke-width="1.5" stroke-miterlimit="10" d="M29.6,14.8
	c-0.1-0.2-0.1-0.6-0.3-0.9c-0.5-1-1.1-1.2-1.5-1.8c-0.3-0.5-0.5-1.3,0-2.8c-0.4-0.1-1-0.1-1.8,0.1c-1.2,0.3-1.8,1-2.1,1.3
	c-0.1-0.4-0.1-0.9-0.1-1.4c0-0.8,0.1-1.4,0.1-2c-0.5,0.1-2,0.3-3.2,1.6c-1.7,1.8-1.3,4.2-1.2,4.4c-0.4-0.1-1.1-0.2-1.8-0.7
	c-0.7-0.5-1.2-1-1.4-1.3c-0.2,0.5-0.7,2-0.2,3.9c0.5,1.9,1.7,2.9,2.2,3.3C18,18.7,17.6,19,17,19.3c-0.6,0.2-1.2,0.3-1.5,0.3
	c0.6,0.6,2,1.8,4.1,2.4c2.9,0.8,5.4-0.2,6.2-0.5"/>
</svg>
