<?xml version="1.0" encoding="utf-8"?>
<!-- Generator: Adobe Illustrator 19.0.0, SVG Export Plug-In . SVG Version: 6.00 Build 0)  -->
<svg version="1.2" baseProfile="tiny" id="Layer_1" xmlns="http://www.w3.org/2000/svg" xmlns:xlink="http://www.w3.org/1999/xlink"
	 x="0px" y="0px" width="180px" height="40px" viewBox="0 0 180 40" xml:space="preserve">
<path id="XMLID_12_" fill="#000000" d="M5,0h170c2.8,0,5,2.2,5,5v30c0,2.8-2.2,5-5,5H5c-2.8,0-5-2.2-5-5V5C0,2.2,2.2,0,5,0z"/>
<path id="XMLID_2_" fill="#C3D2E7" d="M175,2c1.7,0,3,1.3,3,3v30c0,1.7-1.3,3-3,3H5c-1.7,0-3-1.3-3-3V5c0-1.7,1.3-3,3-3H175 M175,0
	H5C2.2,0,0,2.2,0,5v30c0,2.8,2.2,5,5,5h170c2.8,0,5-2.2,5-5V5C180,2.2,177.8,0,175,0L175,0z"/>
</svg>
