<?xml version="1.0" encoding="utf-8"?>
<!-- Generator: Adobe Illustrator 19.0.0, SVG Export Plug-In . SVG Version: 6.00 Build 0)  -->
<svg version="1.2" baseProfile="tiny" id="Layer_1" xmlns="http://www.w3.org/2000/svg" xmlns:xlink="http://www.w3.org/1999/xlink"
	 x="0px" y="0px" width="200px" height="40px" viewBox="0 0 200 40" xml:space="preserve">
<path id="XMLID_7_" fill="#465C7E" d="M5,0h190c2.8,0,5,2.2,5,5v30c0,2.8-2.2,5-5,5H5c-2.8,0-5-2.2-5-5V5C0,2.2,2.2,0,5,0z"/>
<polygon id="XMLID_10_" fill="none" stroke="#FFFFFF" stroke-width="1.5" stroke-linecap="round" stroke-linejoin="round" stroke-miterlimit="10" points="
	36.7,29.4 13.3,29.3 25,10.6 	"/>
<path id="XMLID_5_" fill="#FFFFFF" d="M25,27.3c-0.7,0-1.1-0.4-1.1-1.1S24.3,25,25,25s1.1,0.4,1.1,1.1S25.7,27.3,25,27.3z M24,16.6
	h2l-0.2,6.4h-1.6L24,16.6z"/>
</svg>
