<?xml version="1.0" encoding="utf-8"?>
<!-- Generator: Adobe Illustrator 19.0.0, SVG Export Plug-In . SVG Version: 6.00 Build 0)  -->
<svg version="1.2" baseProfile="tiny" id="Layer_1" xmlns="http://www.w3.org/2000/svg" xmlns:xlink="http://www.w3.org/1999/xlink"
	 x="0px" y="0px" viewBox="0 0 200 40" xml:space="preserve">
<g id="XMLID_1_">
	<path id="XMLID_7_" fill-rule="evenodd" fill="#465C7E" d="M5,0h190c2.8,0,5,2.2,5,5v30c0,2.8-2.2,5-5,5H5c-2.8,0-5-2.2-5-5V5
		C0,2.2,2.2,0,5,0z"/>
	<path fill-rule="evenodd" fill="none" d="M24,9.8c5.6,0,10.2,4.6,10.2,10.2c0,5.6-4.6,10.2-10.2,10.2S13.8,25.6,13.8,20
		C13.8,14.4,18.4,9.8,24,9.8 M24,9c-6.1,0-11,4.9-11,11c0,6.1,4.9,11,11,11s11-4.9,11-11C35,13.9,30.1,9,24,9"/>
	<path fill="none" stroke="#FFFFFF" stroke-width="0.9167" stroke-miterlimit="10" d="M24,9.8c5.6,0,10.2,4.6,10.2,10.2
		c0,5.6-4.6,10.2-10.2,10.2c-5.6,0-10.2-4.6-10.2-10.2C13.8,14.4,18.4,9.8,24,9.8 M24,9c-6.1,0-11,4.9-11,11c0,6.1,4.9,11,11,11
		s11-4.9,11-11C35,13.9,30.1,9,24,9"/>
	
		<path id="XMLID_2_" fill="none" stroke="#FFFFFF" stroke-width="2" stroke-linecap="round" stroke-linejoin="round" stroke-miterlimit="10" d="
		M16.3,19.9l6,5.6c0,0,5.1-10.5,11.5-14"/>
</g>
<g id="XMLID_8_">
</g>
<g id="XMLID_9_">
</g>
<g id="XMLID_10_">
</g>
<g id="XMLID_11_">
</g>
<g id="XMLID_12_">
</g>
<g id="XMLID_13_">
</g>
</svg>
