<?xml version="1.0" encoding="utf-8"?>
<!-- Generator: Adobe Illustrator 19.0.0, SVG Export Plug-In . SVG Version: 6.00 Build 0)  -->
<svg version="1.2" baseProfile="tiny" id="Layer_1" xmlns="http://www.w3.org/2000/svg" xmlns:xlink="http://www.w3.org/1999/xlink"
	 x="0px" y="0px" width="180px" height="40px" viewBox="0 0 180 40" xml:space="preserve">
<path id="XMLID_12_" fill="#FF0000" d="M5,0h170c2.8,0,5,2.2,5,5v30c0,2.8-2.2,5-5,5H5c-2.8,0-5-2.2-5-5V5C0,2.2,2.2,0,5,0z"/>
<path id="XMLID_2_" fill="#465C7E" d="M175,2c1.7,0,3,1.3,3,3v30c0,1.7-1.3,3-3,3H5c-1.7,0-3-1.3-3-3V5c0-1.7,1.3-3,3-3H175 M175,0
	H5C2.2,0,0,2.2,0,5v30c0,2.8,2.2,5,5,5h170c2.8,0,5-2.2,5-5V5C180,2.2,177.8,0,175,0L175,0z"/>
<path fill="#FFFFFF" d="M89.5,34.5c-3.4-2.7-6.8-5.4-10.1-8c-0.3-0.2-0.3-0.4-0.3-0.7c0-3.9,0-7.9,0-11.8c0-0.3,0-0.4,0.3-0.6
	c3.3-2.7,6.7-5.3,10-7.9c0,0,0.1,0,0.2-0.1C89.5,15.1,89.5,24.7,89.5,34.5z"/>
<path fill="#FFFFFF" d="M69.5,20c0-1.8,0-3.7,0-5.5c0-0.4,0.1-0.5,0.5-0.5c2.1,0,4.1,0,6.2,0c0.3,0,0.5,0.1,0.5,0.4
	c0,3.7,0,7.4,0,11c0,0.3-0.1,0.4-0.4,0.4c-2.1,0-4.2,0-6.3,0c-0.4,0-0.4-0.2-0.4-0.5C69.5,23.6,69.5,21.8,69.5,20z"/>
<path fill="#FFFFFF" d="M102.3,19.7c-1.3-1.3-2.6-2.6-3.9-3.8c-0.3-0.3-0.3-0.5,0-0.8c0.4-0.4,0.9-0.8,1.3-1.2
	c0.3-0.3,0.5-0.4,0.9,0c1.1,1.2,2.3,2.3,3.4,3.5c0.3,0.3,0.4,0.3,0.8,0c1.2-1.2,2.4-2.4,3.5-3.6c0.3-0.3,0.4-0.3,0.7,0
	c0.4,0.4,0.9,0.9,1.3,1.3c0.3,0.3,0.4,0.5,0,0.9c-1.2,1.1-2.3,2.3-3.4,3.4c-0.3,0.3-0.3,0.4,0,0.8c1.2,1.1,2.3,2.3,3.5,3.5
	c0.3,0.3,0.3,0.4,0,0.7c-0.5,0.4-0.9,0.9-1.5,1.4c-0.3,0.3-0.4,0.3-0.6,0c-1.2-1.2-2.4-2.3-3.5-3.5c-0.3-0.3-0.5-0.4-0.9,0
	c-1.1,1.2-2.3,2.3-3.5,3.4c-0.3,0.3-0.4,0.3-0.8,0c-0.4-0.4-0.9-0.9-1.3-1.3c-0.3-0.3-0.3-0.4,0-0.7C99.7,22.4,101,21.1,102.3,19.7z
	"/>
</svg>
