<?xml version="1.0" encoding="utf-8"?>
<!-- Generator: Adobe Illustrator 19.0.0, SVG Export Plug-In . SVG Version: 6.00 Build 0)  -->
<svg version="1.2" baseProfile="tiny" id="Layer_1" xmlns="http://www.w3.org/2000/svg" xmlns:xlink="http://www.w3.org/1999/xlink"
	 x="0px" y="0px" width="200px" height="40px" viewBox="0 0 200 40" xml:space="preserve">
<path id="XMLID_7_" fill="#465C7E" d="M5,0h190c2.8,0,5,2.2,5,5v30c0,2.8-2.2,5-5,5H5c-2.8,0-5-2.2-5-5V5C0,2.2,2.2,0,5,0z"/>
<path id="XMLID_8_" fill="#FFFFFF" d="M17.5,20.8c1.7,0,1.7,1,3.5,1c1.9,0,1.8-0.6,3.9-0.7s2.1,0.7,4.1,0.7c2,0.1,1.5-0.8,3.4-0.7
	v7.6c0,0-0.8,3.1-7.5,2.9c-6.7-0.1-7.4-3.3-7.4-3.3V20.8z"/>
<ellipse id="XMLID_6_" fill="none" stroke="#FFFFFF" stroke-width="1.5" stroke-linecap="round" stroke-linejoin="round" stroke-miterlimit="10" cx="25" cy="10.5" rx="7.5" ry="2.2"/>
<path id="XMLID_5_" fill="none" stroke="#FFFFFF" stroke-width="1.5" stroke-linecap="round" stroke-linejoin="round" stroke-miterlimit="10" d="
	M17.5,10.5v17.8c0,0.2,0,0.5,0,0.6c0,1.6,3.3,2.7,7.4,2.7s7.5-1.3,7.5-2.9V10.5"/>
</svg>
