<?xml version="1.0" encoding="utf-8"?>
<!-- Generator: Adobe Illustrator 19.0.0, SVG Export Plug-In . SVG Version: 6.00 Build 0)  -->
<svg version="1.2" baseProfile="tiny" id="Layer_1" xmlns="http://www.w3.org/2000/svg" xmlns:xlink="http://www.w3.org/1999/xlink"
	 x="0px" y="0px" viewBox="0 0 200 40" xml:space="preserve">
<path id="XMLID_7_" fill="#465C7E" d="M5,0h190c2.8,0,5,2.2,5,5v30c0,2.8-2.2,5-5,5H5c-2.8,0-5-2.2-5-5V5C0,2.2,2.2,0,5,0z"/>
<path id="XMLID_18_" fill="none" stroke="#FFFFFF" stroke-miterlimit="10" d="M22.4,19c0.2-0.3,0.5-0.5,0.8-0.6
	c-0.1-0.1-0.1-0.2-0.1-0.3c-0.1-0.6-3.3-6.9-3.7-7.4C19,10.2,18.3,8.9,21,8.5s6.2,1,7.3,2.8c1.1,1.9,1.2,3.6,0,4.7s-2.9,1.4-3.3,2.5
	v0.1c0.3,0.2,0.5,0.6,0.7,1c0.1,0,0.1-0.1,0.2-0.1c0.5,0,6.9-3.3,7.4-3.7c0.5-0.4,1.8-1.1,2.2,1.6s-1,6.2-2.8,7.3
	c-1.9,1.1-3.6,1.2-4.7,0s-1.8-3.3-2.5-3.3c-0.1,0-0.2,0-0.2-0.1c-0.2,0.2-0.4,0.3-0.7,0.4c0.1,0.1,0.1,0.2,0.1,0.2
	c0,0.5,3.3,6.9,3.7,7.4c0.4,0.5,1.1,1.8-1.6,2.2c-2.7,0.4-6.2-1-7.3-2.8c-1.1-1.9-1.2-3.6,0-4.7c1.2-1.1,3.3-1.8,3.3-2.5v-0.1
	c-0.2-0.2-0.4-0.4-0.5-0.7c-0.1,0.1-0.2,0.2-0.3,0.2c-0.5,0-6.9,3.3-7.4,3.7c-0.5,0.4-1.8,1.1-2.2-1.6s1-6.2,2.8-7.3
	c1.9-1.1,3.6-1.2,4.7,0C20.9,16.9,21.6,19,22.4,19L22.4,19z"/>
<circle id="XMLID_17_" fill="none" stroke="#C3D2E7" stroke-width="1.5" stroke-miterlimit="10" cx="23.9" cy="20.2" r="1.7"/>
</svg>
