<?xml version="1.0" encoding="utf-8"?>
<!-- Generator: Adobe Illustrator 19.0.0, SVG Export Plug-In . SVG Version: 6.00 Build 0)  -->
<svg version="1.2" baseProfile="tiny" id="Layer_1" xmlns="http://www.w3.org/2000/svg" xmlns:xlink="http://www.w3.org/1999/xlink"
	 x="0px" y="0px" width="200px" height="40px" viewBox="0 0 200 40" xml:space="preserve">
<path id="XMLID_7_" fill="#465C7E" d="M5,0h190c2.8,0,5,2.2,5,5v30c0,2.8-2.2,5-5,5H5c-2.8,0-5-2.2-5-5V5C0,2.2,2.2,0,5,0z"/>
<path id="XMLID_11_" fill="none" stroke="#FFFFFF" stroke-width="1.5" stroke-linecap="round" stroke-linejoin="round" stroke-miterlimit="10" d="
	M26.5,9v1.3c1,0.2,2,0.6,2.8,1.2l0.9-0.9c0.4-0.4,1-0.4,1.4,0l2,2c0.4,0.4,0.4,1,0,1.4l-0.9,0.9c0.5,0.9,0.9,1.8,1.2,2.8h1.3
	c0.5,0,1,0.4,1,1v2.8c0,0.5-0.4,1-1,1h-1.4c-0.2,1-0.7,2-1.2,2.8l0.9,0.9c0.4,0.4,0.4,1,0,1.4l-2,2c-0.4,0.4-1,0.4-1.4,0l-0.9-0.9
	c-0.9,0.5-1.8,0.9-2.8,1.2V31c0,0.5-0.4,1-1,1h-2.8c-0.5,0-1-0.4-1-1v-1.3c-1-0.2-1.9-0.6-2.8-1.2l-1,1c-0.4,0.4-1,0.4-1.4,0l-2-2
	c-0.4-0.4-0.4-1,0-1.4l1-1c-0.5-0.9-0.9-1.8-1.2-2.8h-1.4c-0.5,0-1-0.4-1-1v-2.8c0-0.5,0.4-1,1-1h1.4c0.2-1,0.6-1.9,1.2-2.8l-1-1
	c-0.4-0.4-0.4-1,0-1.4l2-2c0.4-0.4,1-0.4,1.4,0l1,1c0.9-0.5,1.8-0.9,2.8-1.2V9c0-0.5,0.4-1,1-1h2.8C26,8,26.5,8.4,26.5,9z"/>
<circle id="XMLID_6_" fill="none" stroke="#FFFFFF" stroke-width="1.5" stroke-linecap="round" stroke-linejoin="round" stroke-miterlimit="10" cx="24.2" cy="20" r="4.3"/>
</svg>
