<?xml version="1.0" encoding="utf-8"?>
<!-- Generator: Adobe Illustrator 19.0.0, SVG Export Plug-In . SVG Version: 6.00 Build 0)  -->
<svg version="1.2" baseProfile="tiny" id="Layer_1" xmlns="http://www.w3.org/2000/svg" xmlns:xlink="http://www.w3.org/1999/xlink"
	 x="0px" y="0px" width="200px" height="40px" viewBox="0 0 200 40" xml:space="preserve">
<path id="XMLID_7_" fill="#465C7E" d="M5,0h190c2.8,0,5,2.2,5,5v30c0,2.8-2.2,5-5,5H5c-2.8,0-5-2.2-5-5V5C0,2.2,2.2,0,5,0z"/>
<path id="Selection_1_" fill="#C3D2E7" d="M13.5,13h-0.9c-0.3,0-0.4,0-0.7,0.1C11,13.4,11,14.2,11,15v1.7V29c0,1,0.6,1.5,1.7,1.5
	h4.5h20.2c0.3,0,0.5,0,0.7-0.1c1.1-0.3,1-1.4,1-2.3v-1.4V14.9c0-0.8-0.2-1.6-1.1-1.8C37.6,13,37.2,13,36.9,13c0-0.8,0.1-2.4-0.3-3
	c-0.3-0.5-0.7-0.6-1.3-0.6h-4.1c-0.2,0-0.4,0-0.6,0.1c-0.4,0.1-0.7,0.5-0.9,0.9c-0.1,0.2-0.1,0.7-0.1,0.9V13h-9
	c0-0.7,0.1-2.4-0.3-2.9c-0.3-0.5-0.7-0.6-1.3-0.6h-4.1c-0.2,0-0.4,0-0.6,0.1c-1.1,0.3-0.9,1.2-0.9,2.1V13z M19.1,11v2h-4.1v-2H19.1
	z M35.3,11v2h-4.1v-2H35.3z M37.4,14.6V29H12.5V14.6C12.5,14.6,37.4,14.6,37.4,14.6z M16.2,17v2h-2v1.4h2v2h1.5v-2h2V19h-2v-2H16.2
	z M28.8,19v1.4h5.5V19H28.8z"/>
</svg>
