<?xml version="1.0" encoding="utf-8"?>
<!-- Generator: Adobe Illustrator 19.0.0, SVG Export Plug-In . SVG Version: 6.00 Build 0)  -->
<svg version="1.2" baseProfile="tiny"
	 id="svg6584" xmlns:dc="http://purl.org/dc/elements/1.1/" xmlns:inkscape="http://www.inkscape.org/namespaces/inkscape" xmlns:cc="http://creativecommons.org/ns#" xmlns:sodipodi="http://sodipodi.sourceforge.net/DTD/sodipodi-0.dtd" xmlns:svg="http://www.w3.org/2000/svg" xmlns:rdf="http://www.w3.org/1999/02/22-rdf-syntax-ns#"
	 xmlns="http://www.w3.org/2000/svg" xmlns:xlink="http://www.w3.org/1999/xlink" x="0px" y="0px" width="39px" height="46px"
	 viewBox="0 0 39 46" xml:space="preserve">
<path id="rect7223" fill="#0B1320" d="M4.3,2.1C3.1,2.1,2,3.1,2,4.4v37.3C2,42.8,3.2,44,4.3,44h20.9c1.2,0,2.3-1.2,2.3-2.3V30
	h1.2c1.2,0,1.2,1.2,1.2,1.2v4.6c0,2.3,1.2,3.5,3.5,3.5c2.3,0,3.5-1.2,3.5-3.5c0-2.7,0-10.4,0-12.8s-4.6-4.6-4.6-7V9H30l-2.3-2.3V4.3
	c0-1.3-1.1-2.3-2.3-2.3L4.3,2.1z M6.7,6.7H23V16H6.7V6.7z M27.6,13.7H30c0,0,0,2,0,3.5c0,2.3,4.6,4.6,4.6,7v11.6
	c0,1.2-1.2,1.2-1.2,1.2s-1.2,0-1.2-1.2c0,0,0-4.6,0-5.8s-1.2-2.3-2.3-2.3c-0.8,0-2.3,0-2.3,0L27.6,13.7z"/>
</svg>
