<?xml version="1.0" encoding="UTF-8"?>
<svg id="Layer_1" data-name="Layer 1" xmlns="http://www.w3.org/2000/svg" baseProfile="tiny" version="1.2" viewBox="0 0 34 34">
<path d="M25.4,2.9c0-.2-.2-.4-.4-.4-.2,0-.4.2-.4.4v8.8h-7.7s0-6.3,0-6.3h-6.9s0,6.3,0,6.3h-6c-.2,0-.4.2-.4.4,0,.2.2.4.4.4h6.8s0-6.3,0-6.3c0,0,5.3,0,5.3,0,0,0,0,6.3,0,6.3,0,0,8.5,0,8.5,0v3.2s-14.2,0-14.2,0v-1.6s-6.8,2-6.8,2l6.8,2v-1.6s14.2,0,14.2,0v3.2h-5.8c-.2,0-.4.2-.4.4,0,.2.2.4.4.4,0,0,5.8,0,5.8,0v10.8c0,.2.2.4.4.4.2,0,.4-.2.4-.4v-10.8s0,0,0,0h5.8c.2,0,.4-.2.4-.4,0-.2-.2-.4-.4-.4h-5.8s0-16.8,0-16.8" fill="#00E76E" stroke="#00E76E" stroke-linecap="round" stroke-linejoin="round"/>
</svg>