<?xml version="1.0" encoding="utf-8"?>
<!-- Generator: Adobe Illustrator 28.0.0, SVG Export Plug-In . SVG Version: 6.00 Build 0)  -->
<svg version="1.2" baseProfile="tiny" id="Layer_1" xmlns="http://www.w3.org/2000/svg" xmlns:xlink="http://www.w3.org/1999/xlink"
	 x="0px" y="0px" viewBox="0 0 34 34" overflow="visible" xml:space="preserve">
<g>
	<path fill="#00E76E" d="M17.6,23.5l10.5-5.9c0.2-0.1,0.3-0.4,0.2-0.6c-0.1-0.2-0.3-0.2-0.5-0.1c0,0-10.5,5.9-10.5,5.9
		C17,23,17,23.2,17.1,23.4C17.2,23.6,17.4,23.7,17.6,23.5z"/>
	<path fill="#00E76E" d="M24.2,22L16.2,7.7c-0.1-0.2-0.4-0.3-0.6-0.1c-0.1,0.1-0.2,0.3-0.1,0.5c0,0,2.8,5,2.8,5c0,0-6.7,3.7-6.7,3.7
		l-2.8-5.2c0,0-0.1-0.2-0.3-0.2c-0.2,0-0.3,0-0.3,0.1l-5.4,3c0,0-0.2,0.1-0.2,0.3c0,0.2,0,0.3,0.1,0.3l2.8,5.1L0.2,23
		C0,23.1,0,23.3,0,23.5c0.1,0.2,0.4,0.3,0.7,0.1c0,0,5.3-2.9,5.3-2.9c0,0,0.2-0.1,0.2-0.3c0-0.2,0-0.3-0.1-0.4c0,0-2.8-5.1-2.8-5.1
		l4.9-2.7l2.8,5.2c0,0,0.1,0.2,0.3,0.2c0.2,0,0.3,0,0.3-0.1l7-3.8c0,0,1.6,2.9,1.6,2.9c0,0-12.3,6.7-12.3,6.7l-0.6-1
		c0,0-0.1-0.1-0.2-0.2c-0.2-0.1-0.4,0.1-0.4,0.1c0,0-4.7,4.3-4.7,4.3C2,26.7,1.9,26.8,2,27c0.1,0.2,0.3,0.3,0.5,0.2
		c0,0,6.2-1.6,6.2-1.6c0,0,0.2-0.1,0.3-0.2c0.1-0.2,0-0.4,0-0.4c0,0-0.5-1-0.5-1l12.3-6.7c0,0,2.7,4.9,2.7,4.9v9.1
		c0,0.2,0.2,0.4,0.4,0.4c0.2,0,0.4-0.2,0.4-0.4V22z"/>
	<path fill="#00E76E" d="M24.2,9.5V2.7c0-0.2-0.2-0.4-0.4-0.4c-0.2,0-0.4,0.2-0.4,0.4c0,0,0,6.7,0,6.7c0,0.2,0.2,0.3,0.4,0.3
		C24,9.8,24.1,9.7,24.2,9.5z"/>
</g>
</svg>
