<?xml version="1.0" encoding="UTF-8"?>
<svg id="Layer_1" data-name="Layer 1" xmlns="http://www.w3.org/2000/svg" baseProfile="tiny" version="1.2" viewBox="0 0 34 34">
<path d="M25.4,9.2V2.9c0-.2-.2-.4-.4-.4-.2,0-.4.2-.4.4,0,0,0,6.4,0,6.4,0,.2.2.4.4.4.2,0,.4-.2.4-.4Z" fill="red" stroke="red" stroke-miterlimit="10"/>
<path d="M17.3,7.7c-.1-.2-.4-.3-.6-.1-.2.1-.2.3-.1.5l2.8,5-6.7,3.8-3.1-5.5-6,3.4,3.1,5.5-5.2,3c-.2.1-.3.4-.1.6.1.2.3.2.5.1l5.9-3.3-3.1-5.5s4.6-2.6,4.6-2.6c0,0,3.1,5.5,3.1,5.5l7.4-4.2,1.6,2.8-12.3,7-.8-1.4-4.9,5.1,6.9-1.6-.8-1.4,12.3-7,1.6,2.8-5,2.8c-.2.1-.3.4-.2.6.1.2.4.3.6.1,0,0,5-2.8,5-2.8l.9,1.5v9.1c0,.2.2.4.4.4.2,0,.4-.2.4-.4v-9.3s-1-1.7-1-1.7l5-2.8c.2-.1.3-.4.2-.6-.1-.2-.4-.3-.6-.1l-5,2.8s-6.7-11.9-6.7-11.9Z" fill="red" stroke="red" stroke-linecap="round" stroke-linejoin="round"/>
</svg>