<?xml version="1.0" encoding="utf-8"?>
<!-- Generator: Adobe Illustrator 28.0.0, SVG Export Plug-In . SVG Version: 6.00 Build 0)  -->
<svg version="1.2" baseProfile="tiny" id="Layer_1" xmlns="http://www.w3.org/2000/svg" xmlns:xlink="http://www.w3.org/1999/xlink"
	 x="0px" y="0px" viewBox="0 0 26 38" overflow="visible" xml:space="preserve">
<g>
	<path fill="#465C7E" d="M24.4,1.5H1.6c-0.2,0-0.4,0.2-0.4,0.4v34.1c0,0.2,0.2,0.4,0.4,0.4h22.8c0.2,0,0.4-0.2,0.4-0.4V1.9
		C24.8,1.7,24.6,1.5,24.4,1.5z M24,35.7H2V2.3H24V35.7z"/>
	<path fill="#465C7E" d="M22.8,3.1H3.1c-0.2,0-0.4,0.2-0.4,0.4v31c0,0.2,0.2,0.4,0.4,0.4h19.7c0.2,0,0.4-0.2,0.4-0.4v-31
		C23.2,3.3,23,3.1,22.8,3.1z M3.8,34L3.8,34L3.7,3.9h0.1V34z M5.9,34H4.7V3.9h1.2V34z M8,34H6.8V3.9H8V34z M10.1,34H8.9V3.9h1.2V34z
		 M12.1,34h-1.2V3.9h1.2V34z M14.3,34h-1.2V3.9h1.2V34z M16.6,34h-1.2V3.9h1.2V34z M18.6,34h-1.2V3.9h1.2V34z M20.7,34h-1.2V3.9h1.2
		V34z M22.2,34h-0.8V3.9h0.8V34z"/>
</g>
</svg>
