<?xml version="1.0" encoding="utf-8"?>
<!-- Generator: Adobe Illustrator 28.0.0, SVG Export Plug-In . SVG Version: 6.00 Build 0)  -->
<svg version="1.2" baseProfile="tiny" id="Layer_1" xmlns="http://www.w3.org/2000/svg" xmlns:xlink="http://www.w3.org/1999/xlink"
	 x="0px" y="0px" viewBox="0 0 48 20" overflow="visible" xml:space="preserve">
<g>
	<path fill="#465C7E" d="M45.6,3.1L45.6,3.1c0,0,0-0.2-0.1-0.4c-0.2-0.2-0.4-0.1-0.4-0.1v0H2.9v0c0,0-0.2,0-0.4,0.1S2.4,3.1,2.4,3.1
		h0v13.8c0,0,0,0.2,0.1,0.4c0.2,0.2,0.4,0.1,0.4,0.1h42.1v0c0,0,0.2,0,0.4-0.1c0.2-0.2,0.1-0.4,0.1-0.4h0V3.1z M44.7,16.5H3.3v-0.6
		h41.5V16.5z M44.7,15.1H3.3v-0.6h41.5V15.1z M44.7,13.6H3.3V13h41.5V13.6z M44.7,12.2H3.3v-0.6h41.5V12.2z M44.7,10.7H3.3v-0.6
		h41.5V10.7z M44.7,9.4H3.3V8.8h41.5V9.4z M44.7,8H3.3V7.3h41.5V8z M44.7,6.7H3.3V6h41.5V6.7z M44.7,5.1H3.3V3.4h41.5V5.1z"/>
	<path fill="#465C7E" d="M47.3,0.9c-0.2-0.1-0.3-0.1-0.4-0.1H1.1c0,0-0.3,0-0.4,0.2C0.5,1.1,0.5,1.2,0.5,1.3v17.4c0,0,0,0.3,0.2,0.4
		c0.2,0.1,0.3,0.1,0.4,0.1h45.8c0,0,0.3,0,0.4-0.2c0.1-0.2,0.1-0.3,0.1-0.4V1.3C47.5,1.3,47.5,1,47.3,0.9z M46.6,18.4H1.4V1.6h45.2
		V18.4z"/>
</g>
</svg>
