<?xml version="1.0" encoding="utf-8"?>
<!-- Generator: Adobe Illustrator 28.0.0, SVG Export Plug-In . SVG Version: 6.00 Build 0)  -->
<svg version="1.2" baseProfile="tiny" id="Layer_1" xmlns="http://www.w3.org/2000/svg" xmlns:xlink="http://www.w3.org/1999/xlink"
	 x="0px" y="0px" viewBox="0 0 16 26" overflow="visible" xml:space="preserve">
<g>
	<path fill="#00a84e" d="M14.9,1.2H1.1c-0.2,0-0.4,0.2-0.4,0.4v22.8c0,0.2,0.2,0.4,0.4,0.4h13.8c0.2,0,0.4-0.2,0.4-0.4V1.6
		C15.3,1.4,15.1,1.2,14.9,1.2z M14.5,24h-13V2h13V24z"/>
	<path fill="#465C7E" d="M2.1,2.9v20.3h11.8V2.9H2.1z M4.5,22.5H2.9V3.6h1.7V22.5z M6.3,22.5H5.9V3.6h0.4V22.5z M8,22.5H7.6V3.6H8
		V22.5z M9.7,22.5H9.2V3.6h0.4V22.5z M11.4,22.5H11V3.6h0.4V22.5z M13.1,22.5h-0.4V3.6h0.4V22.5z"/>
</g>
</svg>
