<?xml version="1.0" encoding="utf-8"?>
<!-- Generator: Adobe Illustrator 19.0.0, SVG Export Plug-In . SVG Version: 6.00 Build 0)  -->
<svg version="1.2" baseProfile="tiny" id="Layer_1" xmlns="http://www.w3.org/2000/svg" xmlns:xlink="http://www.w3.org/1999/xlink"
	 x="0px" y="0px" width="44px" height="44px" viewBox="0 0 44 44" xml:space="preserve">
<path id="Selection" fill="#FFFFFF" d="M4.8,11.4H3.4c-0.4,0-0.6,0-1,0.1C1,11.9,1,13.1,1,14.4V17v18.7C1,37.3,1.9,38,3.5,38h6.7
	h30.3c0.4,0,0.7,0,1.1-0.1c1.6-0.5,1.5-2.1,1.5-3.5v-2.1V14.2c0-1.2-0.3-2.4-1.6-2.7c-0.5-0.1-1.1-0.1-1.6-0.1
	c0-1.2,0.2-3.6-0.5-4.5C38.9,6.1,38.3,6,37.5,6h-6.2c-0.3,0-0.6,0-0.9,0.1c-0.6,0.2-1.1,0.8-1.3,1.4c-0.1,0.3-0.1,1-0.1,1.4v2.4
	H15.5c0-1.1,0.2-3.6-0.4-4.4C14.6,6.2,14,6,13.2,6H7.1C6.8,6,6.5,6,6.2,6.1C4.6,6.6,4.8,8,4.8,9.3V11.4z M13.2,8.3v3H7.1v-3H13.2z
	 M37.5,8.3v3h-6.2v-3H37.5z M40.7,13.7v22H3.3v-22H40.7z M8.8,17.4v3.1h-3v2.2h3v3.1h2.3v-3.1h3v-2.2h-3v-3.1H8.8z M27.7,20.5v2.2
	H36v-2.2H27.7z"/>
</svg>
