<svg xmlns="http://www.w3.org/2000/svg" viewBox="0 0 43.47 43.48"><defs></defs><g id="Layer_2" data-name="Layer 2"><g id="Riempimento"><path  d="M37.12,6.37a21.74,21.74,0,0,0-30.75,0A21.74,21.74,0,0,0,21.74,43.48,21.74,21.74,0,0,0,37.12,6.37ZM35.7,35.7A19.74,19.74,0,0,1,7.78,7.78,19.74,19.74,0,0,1,35.7,35.7Z"/><path  d="M30.27,13.21a1,1,0,0,0-1.41,0l-7.12,7.12-7.11-7.12a1,1,0,0,0-1.42,1.42l7.12,7.11-7.12,7.12a1,1,0,0,0,0,1.41,1,1,0,0,0,.71.29,1,1,0,0,0,.71-.29l7.11-7.11,7.12,7.11a1,1,0,0,0,1.41,0,1,1,0,0,0,0-1.41l-7.11-7.12,7.11-7.11A1,1,0,0,0,30.27,13.21Z"/></g></g></svg>