<?xml version="1.0" encoding="utf-8"?>
<!-- Generator: Adobe Illustrator 19.0.0, SVG Export Plug-In . SVG Version: 6.00 Build 0)  -->
<svg version="1.2" baseProfile="tiny" id="Layer_1" xmlns="http://www.w3.org/2000/svg" xmlns:xlink="http://www.w3.org/1999/xlink"
	 x="0px" y="0px" width="220px" height="30px" viewBox="0 0 220 30" xml:space="preserve">
<path id="XMLID_25_" d="M0,0v30h220V0H0z M200,13H10c-2.8,0-5-2.3-5-5s2.3-5,5-5h190c2.8,0,5,2.3,5,5S202.8,13,200,13z"/>
<path id="XMLID_9_" fill="#465C7E" d="M10,19L10,19c0.6,0,1-0.4,1-1v-3c0-0.5-0.4-1-1-1l0,0c-0.5,0-1,0.4-1,1v3C9,18.6,9.4,19,10,19
	z"/>
<path id="XMLID_10_" fill="#465C7E" d="M48,19L48,19c0.5,0,1-0.4,1-1v-3c0-0.5-0.5-1-1-1l0,0c-0.5,0-1,0.4-1,1v3
	C47,18.6,47.5,19,48,19z"/>
<path id="XMLID_11_" fill="#465C7E" d="M86,19L86,19c0.6,0,1-0.4,1-1v-3c0-0.5-0.4-1-1-1l0,0c-0.6,0-1,0.4-1,1v3
	C85,18.6,85.4,19,86,19z"/>
<path id="XMLID_12_" fill="#465C7E" d="M124,19L124,19c0.6,0,1-0.4,1-1v-3c0-0.5-0.4-1-1-1l0,0c-0.6,0-1,0.4-1,1v3
	C123,18.6,123.4,19,124,19z"/>
<path id="XMLID_13_" fill="#465C7E" d="M162,19L162,19c0.6,0,1-0.4,1-1v-3c0-0.5-0.4-1-1-1l0,0c-0.6,0-1,0.4-1,1v3
	C161,18.6,161.4,19,162,19z"/>
<path id="XMLID_14_" fill="#465C7E" d="M200,19L200,19c0.6,0,1-0.4,1-1v-3c0-0.5-0.4-1-1-1l0,0c-0.6,0-1,0.4-1,1v3
	C199,18.6,199.4,19,200,19z"/>
<text id="XMLID_15_" transform="matrix(1 0 0 1 6.9223 28.1555)" fill="#C3D2E7" font-family="'SourceSansPro-SemiBold'" font-size="12px">0</text>
<text id="XMLID_16_" transform="matrix(1 0 0 1 41.8444 28.1549)" fill="#C3D2E7" font-family="'SourceSansPro-SemiBold'" font-size="12px">20</text>
<text id="XMLID_17_" transform="matrix(1 0 0 1 79.8441 28.1549)" fill="#C3D2E7" font-family="'SourceSansPro-SemiBold'" font-size="12px">40</text>
<text id="XMLID_18_" transform="matrix(1 0 0 1 117.8446 28.1552)" fill="#C3D2E7" font-family="'SourceSansPro-SemiBold'" font-size="12px">60</text>
<text id="XMLID_19_" transform="matrix(1 0 0 1 155.8441 28.155)" fill="#C3D2E7" font-family="'SourceSansPro-SemiBold'" font-size="12px">80</text>
<text id="XMLID_20_" transform="matrix(1 0 0 1 190.7664 28.1554)" fill="#C3D2E7" font-family="'SourceSansPro-SemiBold'" font-size="12px">100</text>
</svg>
