<?xml version="1.0" encoding="utf-8"?>
<!-- Generator: Adobe Illustrator 24.3.0, SVG Export Plug-In . SVG Version: 6.00 Build 0)  -->
<svg version="1.2" baseProfile="tiny" id="Layer_2" xmlns="http://www.w3.org/2000/svg" xmlns:xlink="http://www.w3.org/1999/xlink"
	 x="0px" y="0px" viewBox="0 0 48 48" overflow="visible" xml:space="preserve">
<circle fill="#00E76E" cx="24" cy="24" r="3.5"/>
<circle fill="none" stroke="#465C7E" stroke-width="2" stroke-miterlimit="10" cx="24" cy="24" r="22"/>
<path fill="#00E76E" d="M29,42.4c-1.6,0.5-3.9,0.9-6.7,0.5c-0.8-0.1-1.5-0.3-2.1-0.5c-0.2-0.1-0.2-0.2-0.3-0.2
	c-0.1-0.2,0-0.6,0.3-0.8c0.8-0.6,2.1-1.8,3.1-3.8c1.6-3.4,0.7-6.7,0.5-7.6c0.5,0,1.4,0,2.4-0.4c0.9-0.4,1.6-0.9,1.9-1.2
	c0.6,0.6,3,3.4,3,7.5C31.1,39.2,29.6,41.5,29,42.4z"/>
<path fill="#00E76E" d="M40.5,33.5c-0.8,1.4-2.1,3.4-4.4,5.1c-0.6,0.5-1.2,0.8-1.8,1.1c-0.2,0.1-0.3,0.1-0.3,0
	c-0.2-0.1-0.4-0.4-0.4-0.8c0.1-1,0.2-2.8-0.5-4.8c-1.3-3.6-4.2-5.2-5-5.7c0.4-0.4,1-1,1.4-2c0.4-0.9,0.5-1.7,0.5-2.2
	c0.9,0,4.5,0.3,7.4,3.2C39.8,29.8,40.3,32.5,40.5,33.5z"/>
<path fill="#00E76E" d="M42.4,19c0.5,1.6,0.9,3.9,0.5,6.7c-0.1,0.8-0.3,1.5-0.5,2.1c-0.1,0.2-0.2,0.2-0.2,0.3
	c-0.2,0.1-0.6,0-0.8-0.3c-0.6-0.8-1.8-2.1-3.8-3.1c-3.4-1.6-6.7-0.7-7.6-0.5c0-0.5,0-1.4-0.4-2.4c-0.4-0.9-0.9-1.6-1.2-1.9
	c0.6-0.6,3.4-3,7.5-3C39.2,16.9,41.5,18.4,42.4,19z"/>
<path fill="#00E76E" d="M33.5,7.5c1.4,0.8,3.4,2.1,5.1,4.4c0.5,0.6,0.8,1.2,1.1,1.8c0.1,0.2,0.1,0.3,0,0.3c-0.1,0.2-0.4,0.4-0.8,0.4
	c-1-0.1-2.8-0.2-4.8,0.5c-3.6,1.3-5.2,4.2-5.7,5c-0.4-0.4-1-1-2-1.4c-0.9-0.4-1.7-0.5-2.2-0.5c0-0.9,0.3-4.5,3.2-7.4
	C29.7,8.2,32.5,7.6,33.5,7.5z"/>
<path fill="#00E76E" d="M19,5.6c1.6-0.5,3.9-0.9,6.7-0.5c0.8,0.1,1.5,0.3,2.1,0.5C27.9,5.7,28,5.8,28,5.8c0.1,0.2,0,0.6-0.3,0.8
	c-0.8,0.6-2.1,1.8-3.1,3.8c-1.6,3.4-0.7,6.7-0.5,7.6c-0.5,0-1.4,0-2.4,0.4c-0.9,0.4-1.6,0.9-1.9,1.2c-0.6-0.6-3-3.4-3-7.5
	C16.9,8.8,18.4,6.4,19,5.6z"/>
<path fill="#00E76E" d="M7.5,14.5c0.8-1.4,2.1-3.4,4.4-5.1c0.6-0.5,1.2-0.8,1.8-1.1c0.2-0.1,0.3-0.1,0.3,0c0.2,0.1,0.4,0.4,0.4,0.8
	c-0.1,1-0.2,2.8,0.5,4.8c1.3,3.6,4.2,5.2,5,5.7c-0.4,0.4-1,1-1.4,2c-0.4,0.9-0.5,1.7-0.5,2.2c-0.9,0-4.5-0.3-7.4-3.2
	C8.2,18.2,7.6,15.5,7.5,14.5z"/>
<path fill="#00E76E" d="M5.6,29c-0.5-1.6-0.9-3.9-0.5-6.7c0.1-0.8,0.3-1.5,0.5-2.1C5.7,20.1,5.8,20,5.8,20c0.2-0.1,0.6,0,0.8,0.3
	c0.6,0.8,1.8,2.1,3.8,3.1c3.4,1.6,6.7,0.7,7.6,0.5c0,0.5,0,1.4,0.4,2.4c0.4,0.9,0.9,1.6,1.2,1.9c-0.6,0.6-3.4,3-7.5,3
	C8.8,31.1,6.4,29.6,5.6,29z"/>
<path fill="#00E76E" d="M14.5,40.5c-1.4-0.8-3.4-2.1-5.1-4.4c-0.5-0.6-0.8-1.2-1.1-1.8c-0.1-0.2-0.1-0.3,0-0.3
	c0.1-0.2,0.4-0.4,0.8-0.4c1,0.1,2.8,0.2,4.8-0.5c3.6-1.3,5.2-4.2,5.7-5c0.4,0.4,1,1,2,1.4c0.9,0.4,1.7,0.5,2.2,0.5
	c0,0.9-0.3,4.5-3.2,7.4C18.2,39.8,15.5,40.3,14.5,40.5z"/>
<circle fill="none" stroke="#00E76E" stroke-width="2" stroke-miterlimit="10" cx="24" cy="24" r="6"/>
</svg>
