<?xml version="1.0" encoding="utf-8"?>
<!-- Generator: Adobe Illustrator 28.0.0, SVG Export Plug-In . SVG Version: 6.00 Build 0)  -->
<svg version="1.2" baseProfile="tiny" id="Layer_1" xmlns="http://www.w3.org/2000/svg" xmlns:xlink="http://www.w3.org/1999/xlink"
	 x="0px" y="0px" viewBox="0 0 60 60" overflow="visible" xml:space="preserve">
<path d="M2.9,60H0.9c0-0.4,0-2.2,1.5-3.7c1.5-1.6,3.5-1.6,3.8-1.6h47.6c0.3,0,1.3-0.1,2.2-1c0.9-0.9,1-2,1-2.3c0-0.2-0.1-1.4-1-2.3
	c-0.9-0.9-2-1-2.2-1c0,0-47.6,0-47.6,0c-0.3,0-2.3,0-3.8-1.6c-1.4-1.5-1.5-3.3-1.5-3.7v0c0-0.4,0-2.2,1.5-3.7
	c1.5-1.6,3.5-1.6,3.8-1.6h47.6c0.3,0,1.3-0.1,2.2-1c0.9-0.9,1-2,1-2.3c0-0.2-0.1-1.4-1-2.3c-0.9-0.9-2-1-2.2-1c0,0-47.6,0-47.6,0
	c-0.3,0-2.3,0-3.8-1.6c-1.4-1.5-1.5-3.3-1.5-3.7c0-0.4,0-2.2,1.5-3.7c1.5-1.6,3.5-1.6,3.8-1.6h47.6c0.3,0,1.3-0.1,2.2-1
	c0.9-0.9,1-2,1-2.3c0-0.2-0.1-1.4-1-2.3c-0.9-0.9-2-1-2.2-1c0,0-47.6,0-47.6,0c-0.3,0-2.3,0-3.8-1.6c-1.4-1.5-1.5-3.3-1.5-3.7
	c0-0.4,0-2.2,1.5-3.7c1.5-1.6,3.5-1.6,3.8-1.6l47.6,0c0.3,0,1.3-0.1,2.2-1c0.9-0.9,1-2,1-2.3c0,0,2.1,0,2.1,0c0,0.4,0,2.2-1.5,3.7
	c-1.5,1.6-3.5,1.6-3.8,1.6c0,0-47.6,0-47.6,0c-0.3,0-1.3,0.1-2.2,1c-0.9,0.9-1,2-1,2.3c0,0.2,0.1,1.4,1,2.3c0.9,0.9,2,1,2.2,1
	c0,0,47.6,0,47.6,0c0.3,0,2.3,0,3.8,1.6c1.4,1.5,1.5,3.3,1.5,3.7c0,0.4,0,2.2-1.5,3.7c-1.5,1.6-3.5,1.6-3.8,1.6c0,0-47.6,0-47.6,0
	c-0.3,0-1.3,0.1-2.2,1c-0.9,0.9-1,2-1,2.3c0,0.2,0.1,1.4,1,2.3c0.9,0.9,2,1,2.2,1h47.6c0.3,0,2.3,0,3.8,1.6c1.4,1.5,1.5,3.3,1.5,3.7
	c0,0.4,0,2.2-1.5,3.7c-1.5,1.6-3.5,1.6-3.8,1.6c0,0-47.6,0-47.6,0c-0.3,0-1.3,0.1-2.2,1c-0.9,0.9-1,2-1,2.3v0c0,0.2,0.1,1.4,1,2.3
	c0.9,0.9,2,1,2.2,1h47.6c0.3,0,2.3,0,3.8,1.6c1.4,1.5,1.5,3.3,1.5,3.7c0,0.4,0,2.2-1.5,3.7c-1.5,1.6-3.5,1.6-3.8,1.6
	c0,0-47.6,0-47.6,0c-0.3,0-1.3,0.1-2.2,1C3,58.6,2.9,59.8,2.9,60z"/>
<polygon points="20.2,11.8 20.2,8 21,8 21,11.8 26.5,11.8 26.5,8 27.3,8 27.3,11.8 32.7,11.8 32.7,8 33.5,8 33.5,11.8 39,11.8 39,8 
	39.7,8 39.7,11.8 45.2,11.8 45.2,8 46,8 46,11.8 51.5,11.8 51.5,8 52.2,8 52.2,11.8 52.2,13.9 7.7,13.9 7.7,11.8 7.7,8 8.5,8 
	8.5,11.8 14,11.8 14,8 14.8,8 14.8,11.8 "/>
<polygon points="20.2,20.4 20.2,16.5 21,16.5 21,20.4 26.5,20.4 26.5,16.5 27.3,16.5 27.3,20.4 32.7,20.4 32.7,16.5 33.5,16.5 
	33.5,20.4 39,20.4 39,16.5 39.7,16.5 39.7,20.4 45.2,20.4 45.2,16.5 46,16.5 46,20.4 51.5,20.4 51.5,16.5 52.2,16.5 52.2,20.4 
	52.2,22.5 7.7,22.5 7.7,20.4 7.7,16.5 8.5,16.5 8.5,20.4 14,20.4 14,16.5 14.8,16.5 14.8,20.4 "/>
<polygon points="20.2,29 20.2,25.1 21,25.1 21,29 26.5,29 26.5,25.1 27.3,25.1 27.3,29 32.7,29 32.7,25.1 33.5,25.1 33.5,29 39,29 
	39,25.1 39.7,25.1 39.7,29 45.2,29 45.2,25.1 46,25.1 46,29 51.5,29 51.5,25.1 52.2,25.1 52.2,29 52.2,31 7.7,31 7.7,29 7.7,25.1 
	8.5,25.1 8.5,29 14,29 14,25.1 14.8,25.1 14.8,29 "/>
<polygon points="20.2,37.5 20.2,33.7 21,33.7 21,37.5 26.5,37.5 26.5,33.7 27.3,33.7 27.3,37.5 32.7,37.5 32.7,33.7 33.5,33.7 
	33.5,37.5 39,37.5 39,33.7 39.7,33.7 39.7,37.5 45.2,37.5 45.2,33.7 46,33.7 46,37.5 51.5,37.5 51.5,33.7 52.2,33.7 52.2,37.5 
	52.2,39.6 7.7,39.6 7.7,37.5 7.7,33.7 8.5,33.7 8.5,37.5 14,37.5 14,33.7 14.8,33.7 14.8,37.5 "/>
<polygon points="20.2,46.1 20.2,42.2 21,42.2 21,46.1 26.5,46.1 26.5,42.2 27.3,42.2 27.3,46.1 32.7,46.1 32.7,42.2 33.5,42.2 
	33.5,46.1 39,46.1 39,42.2 39.7,42.2 39.7,46.1 45.2,46.1 45.2,42.2 46,42.2 46,46.1 51.5,46.1 51.5,42.2 52.2,42.2 52.2,46.1 
	52.2,48.2 7.7,48.2 7.7,46.1 7.7,42.2 8.5,42.2 8.5,46.1 14,46.1 14,42.2 14.8,42.2 14.8,46.1 "/>
<polygon points="20.2,54.7 20.2,50.8 21,50.8 21,54.7 26.5,54.7 26.5,50.8 27.3,50.8 27.3,54.7 32.7,54.7 32.7,50.8 33.5,50.8 
	33.5,54.7 39,54.7 39,50.8 39.7,50.8 39.7,54.7 45.2,54.7 45.2,50.8 46,50.8 46,54.7 51.5,54.7 51.5,50.8 52.2,50.8 52.2,54.7 
	52.2,56.7 7.7,56.7 7.7,54.7 7.7,50.8 8.5,50.8 8.5,54.7 14,54.7 14,50.8 14.8,50.8 14.8,54.7 "/>
<path fill="#FFFFFF" d="M34,30.1c0.3,0.1,0.9,0.1,1.5,0c1.8-0.2,3.2-1.4,4.2-2.2c0.4-0.3,1-0.8,1.6-1.4c0.2-0.2,1.7-1.4,2.9-1
	c1.5,0.6,1.7,3.4,1.7,4.2c0,0.6,0,1.1,0,1.5c-0.1,1.6-0.4,2.9-0.7,3.7c-0.4,1.3-1.2,4-3.5,6.4c-0.9,1-1.8,1.6-2.4,2
	c-0.3,0.2-1.9,1.1-3.9,0.7c-2.3-0.4-3.4-2.2-3.6-2.5c-0.5-0.6-0.9-1.4-1.4-2.3c-0.7-1.5-1.1-2.8-1.3-3.9c-0.3,0-0.7-0.1-1-0.2
	c-0.2,0.3-0.5,0.7-0.8,1.3c-0.7,1.5-0.5,3-0.2,4.7c0.1,0.5,0.2,1.2,0.4,2.1c0.1,0.3,0.4,2.2-0.6,3c-1.3,1-3.8-0.2-4.5-0.6
	c-0.5-0.3-1-0.6-1.2-0.8c-1.3-0.9-2.3-1.8-2.9-2.4c-0.9-1-2.8-3-3.8-6.3C14.2,35,14,34,14,33.2c0-0.4,0-2.2,1.3-3.7
	c1.5-1.8,3.6-1.8,3.9-1.8c1,0,1.8-0.1,2.7,0c1.7,0.1,3.1,0.5,4,0.8c0.2-0.3,0.4-0.5,0.7-0.7c-0.1-0.3-0.3-0.8-0.7-1.3
	c-1-1.3-2.4-1.9-4-2.6c-0.5-0.2-1.2-0.4-2-0.7c-0.3-0.1-2.1-0.7-2.3-2c-0.3-1.6,2.1-3.2,2.8-3.6c0.5-0.3,1-0.5,1.3-0.7
	c1.4-0.7,2.7-1.1,3.6-1.3c1.3-0.3,4-0.9,7.3-0.2c1.3,0.3,2.3,0.7,2.9,1c0.4,0.2,1.9,1.1,2.6,3c0.8,2.2-0.2,4-0.4,4.3
	c-0.5,0.9-0.8,1.6-1.3,2.3c-1,1.4-2,2.4-2.7,3.1C33.8,29.4,33.9,29.7,34,30.1z"/>
<circle cx="29.6" cy="31" r="3.6"/>
<path d="M27.3,27.2c0-0.1-0.1-0.3-0.3-0.6c-1.2-2.3-3.9-3.3-5.4-3.8c-0.3-0.1-0.9-0.3-1.5-0.5c-0.3-0.1-1.5-0.5-1.6-1.2
	c-0.2-1.1,1.8-2.4,2.4-2.8c0.4-0.3,0.8-0.5,1.1-0.6c2.4-1.1,7.1-2.8,11.7-1c0.4,0.2,0.8,0.4,1.2,0.6c0.4,0.2,1.2,0.7,1.8,1.6
	c1.2,2,0.1,4.4,0,4.5c-0.2,0.4-0.4,0.9-0.7,1.4c-0.5,0.8-1,1.4-1.6,2.1c-0.3,0.4-0.8,0.9-1.4,1.4c-0.8-1.1-2.1-1.8-3.6-1.8
	C28.7,26.5,28,26.8,27.3,27.2z"/>
<path d="M27.4,34.9c-0.1,0.1-0.2,0.3-0.4,0.5c-1.4,2.2-0.9,5.1-0.6,6.6c0.1,0.3,0.2,0.9,0.4,1.6c0.1,0.3,0.3,1.5-0.2,2
	c-0.9,0.8-3-0.4-3.7-0.7c-0.5-0.2-0.8-0.5-1.1-0.7c-2.2-1.5-6-4.8-6.7-9.6c-0.1-0.5-0.1-0.9-0.1-1.4c0-0.5,0-1.4,0.5-2.4
	c1.1-2.1,3.7-2.3,3.9-2.3c0.4,0,0.9-0.1,1.6-0.1c1,0,1.7,0.2,2.6,0.3c0.5,0.1,1.2,0.2,1.9,0.5c-0.2,0.5-0.4,1.1-0.4,1.8
	C25.1,32.7,26,34.2,27.4,34.9z"/>
<path d="M34.1,31c0.1,0,0.4,0.1,0.7,0.1c2.6,0.2,4.8-1.7,6-2.7c0.3-0.2,0.7-0.6,1.2-1.1c0.2-0.2,1.1-1,1.9-0.8
	c1.1,0.4,1.2,2.8,1.2,3.5c0,0.5,0,0.9,0,1.3c-0.2,2.6-1.1,7.5-5,10.6c-0.4,0.3-0.7,0.6-1.1,0.8c-0.4,0.3-1.2,0.7-2.3,0.8
	c-2.4,0.1-3.8-2.1-4-2.2c-0.2-0.3-0.6-0.8-0.9-1.3c-0.5-0.9-0.7-1.6-1-2.4c-0.2-0.5-0.4-1.1-0.6-1.9C32.3,35.2,34.1,33.3,34.1,31
	C34.1,31,34.1,31,34.1,31z"/>
</svg>
