<?xml version="1.0" encoding="utf-8"?>
<!-- Generator: Adobe Illustrator 24.3.0, SVG Export Plug-In . SVG Version: 6.00 Build 0)  -->
<svg version="1.2" baseProfile="tiny" id="Layer_1" xmlns="http://www.w3.org/2000/svg" xmlns:xlink="http://www.w3.org/1999/xlink"
	 x="0px" y="0px" viewBox="0 0 500 252" overflow="visible" xml:space="preserve">
<path fill="#FFFFFF" d="M431.7,251.9c-22.5,0.5-44.5-6.6-62.5-20.1c-35.4,26.3-83.9,26.3-119.3,0c-35.4,26.3-83.9,26.3-119.3,0
	c-35.4,26.3-83.9,26.3-119.3,0v-70.5h18.6l10.5-20.1h350.9l10,20.1h87.4L431.7,251.9z M352.1,141.2h-44.4L274.1,34.7h-20.9V20.6
	h16.4L263.1,0h9.9L352.1,141.2z M381.5,121.1H50.9l10.5-20.2h22.2V50.8h39.7l28.1,50.1H273l16.8-18h72.9L381.5,121.1z"/>
</svg>
