<?xml version="1.0" encoding="utf-8"?>
<!-- Generator: Adobe Illustrator 19.0.0, SVG Export Plug-In . SVG Version: 6.00 Build 0)  -->
<svg version="1.2" baseProfile="tiny" id="Layer_1" xmlns="http://www.w3.org/2000/svg" xmlns:xlink="http://www.w3.org/1999/xlink"
	 x="0px" y="0px" width="44px" height="44px" viewBox="0 0 44 44" xml:space="preserve">
<path id="XMLID_11_" fill="none" stroke="#FFFFFF" stroke-width="1.5" stroke-miterlimit="10" d="M29.3,13.4c-0.1-0.4-0.2-1-0.5-1.5
	c-0.7-1.6-1.7-2-2.4-2.9c-0.5-0.8-0.8-2.1,0-4.7c-0.6-0.1-1.6-0.2-2.8,0.2c-1.8,0.5-2.9,1.6-3.4,2.1c-0.1-0.7-0.2-1.5-0.2-2.4
	C20.1,3,20.2,2,20.3,1c-0.7,0.1-3.1,0.5-5,2.7c-2.6,2.9-2,6.8-1.9,7.3c-0.6-0.1-1.7-0.4-2.9-1.1C9.3,9.1,8.5,8.2,8.2,7.7
	C7.9,8.5,7.1,11,7.9,14c0.8,3.1,2.7,4.8,3.5,5.4c-0.4,0.4-1.1,1-2,1.3c-1,0.4-1.8,0.5-2.4,0.5c1,1,3.2,2.9,6.5,3.9
	c4.6,1.2,8.5-0.3,9.7-0.9"/>
<line id="XMLID_5_" fill="none" stroke="#FFFFFF" stroke-width="1.5" stroke-miterlimit="10" x1="16.4" y1="41.8" x2="16.4" y2="29.4"/>
<polyline id="XMLID_13_" fill="none" stroke="#FFFFFF" stroke-width="1.5" stroke-miterlimit="10" points="16.4,21.4 16.4,13.8 
	29.5,13.8 37,9.5 37,43 29.5,41.2 29.5,13.8 "/>
<line id="XMLID_2_" fill="none" stroke="#FFFFFF" stroke-width="1.5" stroke-miterlimit="10" x1="29.6" y1="41.2" x2="15.7" y2="41.2"/>
</svg>
