<?xml version="1.0" encoding="utf-8"?>
<!-- Generator: Adobe Illustrator 19.0.0, SVG Export Plug-In . SVG Version: 6.00 Build 0)  -->
<svg version="1.2" baseProfile="tiny" id="Layer_2" xmlns="http://www.w3.org/2000/svg" xmlns:xlink="http://www.w3.org/1999/xlink"
	 x="0px" y="0px" width="26px" height="26px" viewBox="0 0 26 26" xml:space="preserve">
<rect x="0" y="0" fill="#FFFFFF" width="26" height="26"/>
<circle fill="none" stroke="#000000" stroke-miterlimit="10" cx="13" cy="13" r="11.7"/>
<path fill="#FF0000" d="M14.3,6.2c-0.2-0.4-0.4-0.9-0.4-1.5C13.8,3.9,14,3.3,14,2.9c0.4,0.5,0.7,0.9,1,1.1c0.5,0.5,1,1,1.7,1.1
	c0.3,0.1,0.6,0.1,0.7,0.1v3.6c-0.1,0-0.2-0.1-0.4-0.1c-1.4-0.4-2.2-1.6-2.5-2C14.6,6.6,14.4,6.4,14.3,6.2z"/>
<path fill="#FF0000" d="M10.4,9.7c-0.1-0.1-0.1-0.1-0.2-0.2c0,0.7,0.1,1.8,0.6,2.8c1.8,3.5,6.5,3.6,6.7,3.6c0,0,0-3.3,0-3.4
	c-0.7,0-1.6,0-2.6-0.3C12.6,11.7,11.1,10.4,10.4,9.7z"/>
<path fill="#FF0000" d="M11.2,8.5C11.4,9,11.7,9.4,12,9.7c1.8,1.8,4.6,1.3,5.1,1.3c-0.2-0.1-0.4-0.2-0.8-0.4c-0.9-0.6-1.3-1.3-2.2-3
	c-0.2-0.4-0.6-1-1.1-1.8c-0.2-0.3-0.5-0.7-1-1c-1.6-0.9-3.3-0.2-3.5-0.1C8.5,4.7,8.8,4.8,9.1,5c0.5,0.4,0.8,0.9,1.1,1.3
	c0.1,0.2,0.3,0.7,0.7,1.5C11.1,8.1,11.1,8.3,11.2,8.5"/>
<path fill="#FF0000" d="M12.9,18.6c-1.2-0.4-2-1.2-2.2-1.5c-0.7-0.7-1.6-1.6-2.9-1.7c-0.1,0-0.1,0-0.2,0c0.2-0.2,1-1,2.2-1
	c0.8-0.1,1.5,0.2,1.8,0.4c0.7,0.4,1.3,0.8,1.6,1c1.4,1,2.1,1.7,3.3,1.9c0.2,0.1,0.4,0.1,0.5,0.1c-0.3,0.2-0.8,0.4-1.5,0.7
	c-0.2,0.1-1,0.2-1.7,0.2C13.5,18.6,13.1,18.6,12.9,18.6z"/>
<path fill="#FF0000" d="M10.8,18.9c-0.3-0.1-0.6-0.3-0.8-0.4c0.3,0.7,0.8,1.7,1.9,2.6c2.2,2,5.1,1.8,5.6,1.8v-3.4
	C15.9,19.8,13.3,20.2,10.8,18.9L10.8,18.9z"/>
</svg>
