<?xml version="1.0" encoding="utf-8"?>
<!-- Generator: Adobe Illustrator 28.1.0, SVG Export Plug-In . SVG Version: 6.00 Build 0)  -->
<svg version="1.2" baseProfile="tiny" id="Layer_1" xmlns="http://www.w3.org/2000/svg" xmlns:xlink="http://www.w3.org/1999/xlink"
	 x="0px" y="0px" viewBox="0 0 16 30" overflow="visible" xml:space="preserve">
<rect x="2.8" y="2.4" width="10.4" height="25.2"/>
<path fill="#FF0000" stroke="#FF0000" d="M13.2,7.1h0.4c0.6,0,1-0.4,1-1V2.4c0-0.6-0.4-1-1-1H2.4c-0.6,0-1,0.4-1,1v3.7
	c0,0.6,0.4,1,1,1h0.4V15v7.9H2.4c-0.6,0-1,0.4-1,1v3.7c0,0.6,0.4,1,1,1h11.2c0.6,0,1-0.4,1-1v-3.7c0-0.6-0.4-1-1-1h-0.4V15V7.1z
	 M13.6,23.9v3.7H2.4v-3.7H13.6z M3.8,22.9V15V7.1h8.4V15v7.9H3.8z M2.4,6.1V2.4h11.2v3.7H2.4z"/>
<path fill="#FF0000" stroke="#FF0000" stroke-width="0.25" d="M6.6,17.1c0,0-0.1,0.2-0.1,0.3c0,0.2,0.1,0.3,0.1,0.3l1.8,1.8v3.3
	c0,0-0.9,0-0.9,0s0-3,0-3L6,18.4c0,0-0.5-0.5-0.4-1.2c0.1-0.4,0.3-0.7,0.4-0.8l0.5-0.6c0,0,0.7,0.6,0.7,0.6L6.6,17.1z"/>
<path fill="#FF0000" stroke="#FF0000" stroke-width="0.25" d="M9.9,13.5c0.1-0.1,0.4-0.3,0.4-0.8c0.1-0.7-0.4-1.1-0.4-1.2l-1.5-1.5
	v-3H7.5v3.3l1.8,1.8c0,0,0.1,0.1,0.1,0.3c0,0.2-0.1,0.3-0.1,0.3l-0.7,0.7c0,0,0.7,0.6,0.7,0.6L9.9,13.5z"/>
</svg>