<?xml version="1.0" encoding="utf-8"?>
<!-- Generator: Adobe Illustrator 28.1.0, SVG Export Plug-In . SVG Version: 6.00 Build 0)  -->
<svg version="1.2" baseProfile="tiny" id="Layer_2" xmlns="http://www.w3.org/2000/svg" xmlns:xlink="http://www.w3.org/1999/xlink"
	 x="0px" y="0px" viewBox="0 0 100 70" overflow="visible" xml:space="preserve">
<path fill="none" stroke-miterlimit="10" d="M96.8,69H3.2c-1.1,0-2-0.9-2-2V3c0-1.1,0.9-2,2-2h93.6
	c1.1,0,2,0.9,2,2v64C98.8,68.1,97.9,69,96.8,69z"/>
<rect x="12.2" y="11.3" fill="none" stroke-width="0.5" stroke-miterlimit="10" width="75.6" height="47.5"/>
<path fill="none" stroke-width="0.5" stroke-miterlimit="10" d="M96.7,67.9H3.3c-0.6,0-1-0.4-1-1V3.1
	c0-0.6,0.4-1,1-1h93.4c0.6,0,1,0.4,1,1v63.9C97.7,67.5,97.3,67.9,96.7,67.9z"/>
</svg>
