<?xml version="1.0" encoding="utf-8"?>
<!-- Generator: Adobe Illustrator 19.0.0, SVG Export Plug-In . SVG Version: 6.00 Build 0)  -->
<svg version="1.2" baseProfile="tiny" id="Layer_1" xmlns="http://www.w3.org/2000/svg" xmlns:xlink="http://www.w3.org/1999/xlink"
	 x="0px" y="0px" width="122px" height="42px" viewBox="0 0 122 42" xml:space="preserve">
<path id="XMLID_3_" fill="#222C3D" d="M101,3c9.9,0,18,8.1,18,18s-8.1,18-18,18H21c-9.9,0-18-8.1-18-18S11.1,3,21,3H101 M101,1H21
	C10,1,1,10,1,21s9,20,20,20h80c11,0,20-9,20-20S112,1,101,1L101,1z"/>
<path id="XMLID_12_" fill="#000000" d="M101,5H21C12.2,5,5,12.2,5,21s7.2,16,16,16h80c8.8,0,16-7.2,16-16S109.8,5,101,5z"/>
<path id="XMLID_2_" fill="#C3D2E7" d="M101,7c7.7,0,14,6.3,14,14s-6.3,14-14,14H21c-7.7,0-14-6.3-14-14S13.3,7,21,7H101 M101,5H21
	C12.2,5,5,12.2,5,21s7.2,16,16,16h80c8.8,0,16-7.2,16-16S109.8,5,101,5L101,5z"/>
</svg>
