<?xml version="1.0" encoding="utf-8"?>
<!-- Generator: Adobe Illustrator 19.0.0, SVG Export Plug-In . SVG Version: 6.00 Build 0)  -->
<svg version="1.2" baseProfile="tiny" id="Layer_1" xmlns="http://www.w3.org/2000/svg" xmlns:xlink="http://www.w3.org/1999/xlink"
	 x="0px" y="0px" viewBox="0 0 54 37" xml:space="preserve">
<path fill="#465C7E" d="M26.8,13.2l-0.9,1.5c-3.5,5.9-4.5,9.5-3.3,11.7c0.7,1.3,2.1,1.9,4.1,1.9c3.1,0,4.7-1.3,4.8-3.8c0-2.2-1.3-5.5-3.8-9.8
	L26.8,13.2z M29.3,24.6c0,1-0.2,1.8-2.6,1.8c-1.3,0-2.1-0.3-2.4-0.9c-0.4-0.7-0.6-2.7,2.4-8.2C28.9,21.2,29.4,23.4,29.3,24.6z"/>
<path fill="#465C7E" d="M52.8,22.8c-0.1-3.3-0.3-9.3-4.3-9.3c-3.5,0-3.5,2.8-3.5,4.3c0,0.6,0,0.6-1,0.6h-0.3c-0.3,0-0.7,0-0.8-0.1
	c-0.1,0-0.2-0.2-0.2-0.8v-4.6v-0.2c-0.3-1.5-1.4-2.4-3-2.4c-0.4,0-0.7,0-1.1,0c-0.6,0.1-1.8,0.1-2-0.1c0,0,0-0.1,0-0.2
	c0-0.3,0-0.6,0-0.9c0-1,0.1-2.1-0.6-2.8c-0.4-0.5-1.1-0.7-2-0.7h-4.5V3.2h5.1c0.7,0,1.2-0.5,1.2-1.2s-0.5-1.2-1.2-1.2H16.9
	c-0.7,0-1.2,0.5-1.2,1.2s0.5,1.2,1.2,1.2h4.2v2.6h-4.4c-1,0-2,0.6-2,2.4c0,0.8-0.1,1-0.1,1s-0.1,0-0.2,0H10c-1.9,0-2.6,1.2-2.6,2.3
	v5.7H5.3v-7C5.2,9.1,4.8,8.8,4.2,9.1c-0.7,0.2-1.6,1-2.6,2.5v7.2l1.8,1.5v8.5c0.2,0.6,0.5,0.9,1,0.9s0.8-0.3,0.8-0.9v-7.2h2.2v5.1
	v0.2c0.4,2,1.7,3.1,3.7,3.1h3.4c0.5,0.2,1,0.6,1.4,1.1c0.6,0.7,1.7,1.8,3.4,3.3c0.7,0.9,1.8,1.3,3.1,1.3h17.5c0.2,0,0.3,0,0.5,0
	c0.7,0,1.2-0.1,1.4-0.5c0.6-0.6,0.9-1.4,0.9-2.5c0-0.5-0.1-1.1-0.1-1.7c-0.1-1-0.2-3.1,0.2-3.4h2c0.1,0,0.1,0,0.1,0
	c0.1,0,0.1,0.1,0.1,0.4v0.2c0,1,0,2.4,1,3.4c0.6,0.6,1.5,0.9,2.6,0.8C53.1,32.2,52.9,25.1,52.8,22.8z M48.6,30.4
	c-0.3,0.1-0.8,0-1.1-0.2c-0.4-0.4-0.4-1.3-0.4-2V28c0-1.8-1.1-2.4-2.1-2.4h-2c-0.6,0-1.1,0.2-1.5,0.6c-0.9,1-0.8,2.9-0.7,4.9
	c0.1,0.5,0.1,1,0.1,1.5c0,0.6-0.1,0.9-0.2,1c-0.1,0.1-0.3,0.1-0.6,0.1H22.4c-0.9,0-1.4-0.3-1.6-0.6L20.7,33
	c-1.6-1.5-2.8-2.6-3.3-3.2c-0.7-0.8-1.5-1.4-2.4-1.7L14.8,28h-3.7c-1,0-1.5-0.4-1.7-1.4V11.5c0-0.1,0-0.2,0-0.2s0.1-0.1,0.5-0.1
	h4.4c2.3,0,2.3-2.2,2.3-3c0-0.2,0-0.3,0-0.4h6.5V3.2h4.4v4.4H34c0.5,0,0.6,0.1,0.6,0.1c0.1,0.1,0,0.9,0,1.3c0,0.3,0,0.6,0,1
	c0,0.9,0.4,1.4,0.7,1.7c0.9,0.9,2.3,0.8,3.5,0.7c0.4,0,0.7,0,1,0c0.7,0,0.9,0.3,1,0.7v4.5c0,1,0.3,1.7,0.8,2.2
	c0.8,0.6,1.7,0.6,2.3,0.6h0.2c0.8,0,3,0,3-2.6c0-1.9,0.1-2.3,1.5-2.3c1.5,0,2.1,2.2,2.3,7.3C51,26.2,50.7,30.3,48.6,30.4z"/>
</svg>
