<?xml version="1.0" encoding="utf-8"?>
<!-- Generator: Adobe Illustrator 19.0.0, SVG Export Plug-In . SVG Version: 6.00 Build 0)  -->
<svg version="1.2" baseProfile="tiny" id="Layer_1" xmlns="http://www.w3.org/2000/svg" xmlns:xlink="http://www.w3.org/1999/xlink"
	 x="0px" y="0px" viewBox="0 0 58 36" xml:space="preserve">
<path fill="#0A68FF" d="M50.9,1H16.5c-3.3,0-6.1,2.7-6.1,6v9.7H2.3C1.6,16.7,1,17.3,1,18s0.6,1.3,1.3,1.3h8.1V29c0,3.3,2.7,6,6.1,6h34.4
	c3.3,0,6.1-2.7,6.1-6V7C57,3.7,54.3,1,50.9,1z M46.9,3v4H20.5V3H46.9z M20.5,14V9h26.3v5H20.5z M46.9,16v4H20.5v-4H46.9z M20.5,22
	h26.3v5H20.5V22z M16.5,33c-2.2,0-4.1-1.8-4.1-4V7c0-2.2,1.8-4,4.1-4h2v30H16.5z M20.5,33v-4h26.3v4H20.5z M55,29c0,2.2-1.8,4-4.1,4
	h-2V3h2C53.2,3,55,4.8,55,7V29z"/>
</svg>
