<?xml version="1.0" encoding="utf-8"?>
<!-- Generator: Adobe Illustrator 24.3.0, SVG Export Plug-In . SVG Version: 6.00 Build 0)  -->
<svg version="1.2" baseProfile="tiny" id="Layer_1" xmlns="http://www.w3.org/2000/svg" xmlns:xlink="http://www.w3.org/1999/xlink"
	 x="0px" y="0px" viewBox="0 0 240 250" overflow="visible" xml:space="preserve">
<path fill="#FFD700" d="M119.7,6.2c2.2,3.2,5,7.9,7.3,14.1c3,7.8,7,18.7,3.7,29.4c-3.7,11.7-12.4,10.7-15.1,23
	c-1.8,8.2,0.3,15.9,1.1,18.9c1.6,6,4.2,10.5,6.1,13.4c-2.9-3-7.4-8.2-10.5-15.9c-1.4-3.6-5.5-14.1-2.8-26.3
	c2.9-12.6,9.6-11.7,12.6-25.6c2.1-9.7,0.6-18.9,0.1-21.6C121.5,11.7,120.5,8.5,119.7,6.2z"/>
<path fill="#FFD700" d="M84.8,6.2c2.2,3.2,5,7.9,7.3,14.1c3,7.8,7,18.7,3.7,29.4c-3.7,11.7-12.4,10.7-15.1,23
	c-1.8,8.2,0.3,15.9,1.1,18.9c1.6,6,4.2,10.5,6.1,13.4c-2.9-3-7.4-8.2-10.5-15.9c-1.4-3.6-5.5-14.1-2.8-26.3
	c2.9-12.6,9.6-11.7,12.6-25.6c2.1-9.7,0.6-18.9,0.1-21.6C86.6,11.7,85.6,8.5,84.8,6.2z"/>
<path fill="#FFD700" d="M154.3,6.2c2.2,3.2,5,7.9,7.3,14.1c3,7.8,7,18.7,3.7,29.4c-3.7,11.7-12.4,10.7-15.1,23
	c-1.8,8.2,0.3,15.9,1.1,18.9c1.6,6,4.2,10.5,6.1,13.4c-2.9-3-7.4-8.2-10.5-15.9c-1.4-3.6-5.5-14.1-2.8-26.3
	c2.9-12.6,9.6-11.7,12.6-25.6c2.1-9.7,0.6-18.9,0.1-21.6C156.1,11.7,155.2,8.5,154.3,6.2z"/>
<path fill="none" stroke="#FFD700" stroke-width="14" d="M233.8,241.4c-5.7,0.3-23.3,0.3-37.7-9.8c-2.3-1.6-8-5.9-13.1-13.2
	c-9.7-13.9-10-28.4-10.1-39c-0.1-12.5-0.3-33.1,12.3-40.4c3.7-2.1,7.5-2.5,10.3-2.5c3,0.1,7.2,0.6,11.1,3.2
	c11.1,7.1,11.1,24.2,11.1,37.3c0,13.3,0,25.8-8.4,38.9c-8.7,13.5-21.1,19.4-26.5,21.6c-11.7,4.7-20.5,4.5-25.8,4
	c-5.7,0.3-20.6,0.3-35.1-9.8c-2.3-1.6-8-5.9-13.1-13.2c-9.7-13.9-10-28.4-10.1-39c-0.1-12.5-0.3-33.1,12.3-40.4
	c3.7-2.1,7.5-2.5,10.3-2.5c3,0.1,7.2,0.6,11.1,3.2c11.1,7.1,11.1,24.2,11.1,37.3c0,13.3,0,25.8-8.4,38.9
	c-8.7,13.5-21.1,19.4-26.5,21.6c-11.7,4.7-20.5,4.5-25.8,4c-5.7,0.3-21.1,0.3-35.6-9.8c-2.3-1.6-8-5.9-13.1-13.2
	c-9.7-13.9-10-28.4-10.1-39c-0.1-12.5-0.3-33.1,12.3-40.4c3.7-2.1,7.5-2.5,10.3-2.5c3,0.1,7.2,0.6,11.1,3.2
	c11.1,7.1,11.1,24.2,11.1,37.3c0,13.3,0,25.8-8.4,38.9c-8.7,13.5-21.1,19.4-26.5,21.6c-11.7,4.7-22.1,4.4-27.3,3.8"/>
<path fill="#FFD700" d="M81.5,238"/>
<path fill="#FFD700" d="M81.5,243.8"/>
<path fill="#FFD700" d="M180.3,241.4"/>
<path fill="#FFD700" d="M82.5,241.4"/>
<path fill="#FFD700" d="M156.8,236.9"/>
<path fill="#FFD700" d="M156.8,241.4"/>
</svg>