<?xml version="1.0" encoding="utf-8"?>
<!-- Generator: Adobe Illustrator 19.0.0, SVG Export Plug-In . SVG Version: 6.00 Build 0)  -->
<svg version="1.2" baseProfile="tiny" id="Layer_1" xmlns="http://www.w3.org/2000/svg" xmlns:xlink="http://www.w3.org/1999/xlink"
	 x="0px" y="0px" width="44px" height="44px" viewBox="0 0 44 44" xml:space="preserve">
<path fill="#465C7E" d="M37,1H7C3.7,1,1,3.7,1,7v30c0,3.3,2.7,6,6,6h30c3.3,0,6-2.7,6-6V7C43,3.7,40.3,1,37,1z M3,7c0-2.2,1.8-4,4-4
	h30c0.7,0,1.4,0.2,2,0.6L3.6,39C3.2,38.4,3,37.7,3,37V7z M41,37c0,2.2-1.8,4-4,4H7c-0.7,0-1.4-0.2-2-0.6L40.4,5
	C40.8,5.6,41,6.3,41,7V37z"/>
<path fill="#465C7E" d="M22,13.5h-3c-0.6,0-1-0.4-1-1s0.4-1,1-1h3c0.6,0,1,0.4,1,1S22.6,13.5,22,13.5z M16,13.5h-3c-0.6,0-1-0.4-1-1
	s0.4-1,1-1h3c0.6,0,1,0.4,1,1S16.6,13.5,16,13.5z M10,13.5H7c-0.6,0-1-0.4-1-1s0.4-1,1-1h3c0.6,0,1,0.4,1,1S10.6,13.5,10,13.5z
	 M22,8.5H7c-0.6,0-1-0.4-1-1s0.4-1,1-1h15c0.6,0,1,0.4,1,1S22.6,8.5,22,8.5z"/>
<path fill="#465C7E" d="M37.5,37.5h-3c-0.6,0-1-0.4-1-1s0.4-1,1-1h3c0.6,0,1,0.4,1,1S38.1,37.5,37.5,37.5z M31.5,37.5h-3
	c-0.6,0-1-0.4-1-1s0.4-1,1-1h3c0.6,0,1,0.4,1,1S32.1,37.5,31.5,37.5z M25.5,37.5h-3c-0.6,0-1-0.4-1-1s0.4-1,1-1h3c0.6,0,1,0.4,1,1
	S26.1,37.5,25.5,37.5z M37.5,32.5h-15c-0.6,0-1-0.4-1-1c0-0.6,0.4-1,1-1h15c0.6,0,1,0.4,1,1C38.5,32.1,38.1,32.5,37.5,32.5z"/>
</svg>
