<?xml version="1.0" encoding="utf-8"?>
<!-- Generator: Adobe Illustrator 19.0.0, SVG Export Plug-In . SVG Version: 6.00 Build 0)  -->
<svg version="1.2" baseProfile="tiny" id="Layer_1" xmlns="http://www.w3.org/2000/svg" xmlns:xlink="http://www.w3.org/1999/xlink"
	 x="0px" y="0px" width="44px" height="44px" viewBox="0 0 44 44" xml:space="preserve">
<path fill="#0A68FF" d="M37,1H7C3.7,1,1,3.7,1,7v30c0,3.3,2.7,6,6,6h30c3.3,0,6-2.7,6-6V7C43,3.7,40.3,1,37,1z M3,7c0-2.2,1.8-4,4-4h30
	c0.7,0,1.4,0.2,2,0.6L3.6,39C3.2,38.4,3,37.7,3,37V7z M41,37c0,2.2-1.8,4-4,4H7c-0.7,0-1.4-0.2-2-0.6L40.4,5C40.8,5.6,41,6.3,41,7
	V37z"/>
<path fill="#0A68FF" d="M37,37.4h-3c-0.6,0-1-0.4-1-1s0.4-1,1-1h3c0.6,0,1,0.4,1,1S37.6,37.4,37,37.4z M31,37.4h-3c-0.6,0-1-0.4-1-1s0.4-1,1-1h3
	c0.6,0,1,0.4,1,1S31.6,37.4,31,37.4z M25,37.4h-3c-0.6,0-1-0.4-1-1s0.4-1,1-1h3c0.6,0,1,0.4,1,1S25.6,37.4,25,37.4z M37,32.4H22
	c-0.6,0-1-0.4-1-1s0.4-1,1-1h15c0.6,0,1,0.4,1,1S37.6,32.4,37,32.4z"/>
<path fill="none" stroke="#0A68FF" stroke-width="2" stroke-linecap="round" stroke-miterlimit="10" d="M7.9,10.9
	c1.9-1.9,3.5-2.3,4.5-2.3c3.3,0.1,4.7,4,8.1,4.2c1.9,0.1,3.4-1,4.4-1.9"/>
</svg>
