<?xml version="1.0" encoding="utf-8"?>
<!-- Generator: Adobe Illustrator 19.0.0, SVG Export Plug-In . SVG Version: 6.00 Build 0)  -->
<svg version="1.2" baseProfile="tiny" id="Layer_1" xmlns="http://www.w3.org/2000/svg" xmlns:xlink="http://www.w3.org/1999/xlink"
	 x="0px" y="0px" viewBox="0 0 40 40" xml:space="preserve">
<path fill="#C3D2E7" d="M37.9,15.9c-0.3-2-1-3.2-2-3.6c-0.6-0.2-1.6-0.3-2.7,0.7c-0.7,0.5-8.1,4.4-9.9,5.1c-0.1-0.1-0.2-0.3-0.3-0.4
	c0.4-0.5,1-0.9,1.8-1.3c0.9-0.4,1.8-1,2.5-1.7c2-1.8,2.1-4.8,0.2-8.1c-1.9-3-7.4-5.3-11.7-4.6c-2,0.4-3.3,1.1-3.7,2
	c-0.2,0.6-0.3,1.6,0.7,2.7c0.6,0.8,4.4,8.5,5.2,10.2c-0.1,0.1-0.1,0.1-0.2,0.2c-0.3-0.4-0.7-1.1-1-1.6c-0.5-0.9-1.1-1.9-1.9-2.7
	c-1.9-2-4.8-2.1-8.1-0.2c-3,1.8-5.3,7.4-4.6,11.7c0.3,2,1,3.2,2,3.6c0.6,0.2,1.6,0.3,2.7-0.7c0.8-0.6,8.9-4.8,10.2-5.2
	c0,0.1,0,0.1,0,0.1c-0.4,0.3-1.2,0.8-1.7,1.1c-0.9,0.5-1.9,1.1-2.7,1.8c-2,1.8-2.1,4.8-0.2,8.1c1.7,2.7,6,4.8,10,4.8
	c0.6,0,1.2,0,1.9-0.2c2-0.3,3.2-1,3.6-2c0.2-0.6,0.3-1.6-0.7-2.7c-0.6-0.8-4.6-8.5-5.2-10.1c0.3,0.2,0.8,1.2,1.2,1.8
	c0.5,0.9,1.1,1.9,1.9,2.7c1.9,2,4.8,2.1,8.1,0.2C36.3,25.7,38.6,20.2,37.9,15.9z M20,18.6c0.9,0,1.5,0.7,1.5,1.5s-0.7,1.5-1.5,1.5
	s-1.5-0.7-1.5-1.5S19.2,18.6,20,18.6z M14.2,5.7c-0.3-0.4-0.4-0.7-0.4-0.8s0.2-0.6,2-0.9C16.3,4,16.7,4,17.2,4
	c3.3,0,7.1,1.7,8.5,3.7c0.9,1.5,1.9,4,0.2,5.6c-0.7,0.5-1.4,1-2.1,1.4c-1,0.6-2.1,1.2-2.7,2.2c-0.4-0.1-0.7-0.2-1.1-0.2
	c-0.1,0-0.1,0-0.2,0C19,14.8,14.9,6.5,14.2,5.7z M5.6,25.9c-0.4,0.3-0.7,0.4-0.8,0.4S4.3,26.1,4,24.2c-0.5-3.4,1.3-8.2,3.7-9.6
	c0.9-0.6,2.1-1.2,3.4-1.2c0.8,0,1.6,0.2,2.3,1c0.6,0.6,1.1,1.6,1.6,2.3c0.5,1,1.1,1.9,1.7,2.4c-0.1,0.3-0.2,0.6-0.2,0.9
	c0,0.2,0,0.3,0,0.5C14.2,21.2,6.1,25.6,5.6,25.9z M25.7,34.3c0.3,0.4,0.4,0.7,0.4,0.8s-0.2,0.6-2.1,0.9c-3.4,0.5-8.2-1.3-9.6-3.7
	c-0.9-1.5-1.9-4-0.2-5.6c0.6-0.6,1.6-1.1,2.3-1.6c1.1-0.6,2-1.2,2.4-1.9c0.3,0.1,0.7,0.2,1.1,0.2c0.1,0,0.2,0,0.3,0
	C20.9,25.7,25.3,33.8,25.7,34.3z M32.1,25.9c-1.5,0.9-4,1.9-5.7,0.2c-0.6-0.6-1.1-1.6-1.6-2.3c-0.6-1-1.1-2-1.8-2.4
	c0.2-0.4,0.3-0.9,0.3-1.4c0,0,0,0,0,0c2.5-0.8,10.4-5.1,10.8-5.4c0.4-0.3,0.7-0.4,0.8-0.4s0.6,0.2,0.9,2.1
	C36.3,19.7,34.6,24.5,32.1,25.9z"/>
</svg>
