<?xml version="1.0" encoding="utf-8"?>
<!-- Generator: Adobe Illustrator 27.2.0, SVG Export Plug-In . SVG Version: 6.00 Build 0)  -->
<svg version="1.2" baseProfile="tiny" id="Layer_1" xmlns="http://www.w3.org/2000/svg" xmlns:xlink="http://www.w3.org/1999/xlink"
	 x="0px" y="0px" viewBox="0 0 40 40" overflow="visible" xml:space="preserve">
<path fill="#0A68FF" d="M6.7,27.7c3.3,1.9,6.2,1.8,8.1-0.2c0.8-0.8,1.4-1.8,1.9-2.7c0.4-0.6,0.9-1.6,1.2-1.8
	c-0.6,1.6-4.6,9.3-5.2,10.1c-1,1.1-0.9,2.1-0.7,2.7c0.4,1,1.6,1.7,3.6,2c0.7,0.2,1.3,0.2,1.9,0.2c4,0,8.3-2.1,10-4.8
	c1.9-3.3,1.8-6.3-0.2-8.1c-0.8-0.7-1.8-1.3-2.7-1.8c-0.5-0.3-1.3-0.8-1.7-1.1c0,0,0,0,0-0.1c1.3,0.4,9.4,4.6,10.2,5.2
	c1.1,1,2.1,0.9,2.7,0.7c1-0.4,1.7-1.6,2-3.6c0.7-4.3-1.6-9.9-4.6-11.7c-3.3-1.9-6.2-1.8-8.1,0.2c-0.8,0.8-1.4,1.8-1.9,2.7
	c-0.3,0.5-0.7,1.2-1,1.6c-0.1-0.1-0.1-0.1-0.2-0.2c0.8-1.7,4.6-9.4,5.2-10.2c1-1.1,0.9-2.1,0.7-2.7c-0.4-0.9-1.7-1.6-3.7-2
	c-4.3-0.7-9.8,1.6-11.7,4.6c-1.9,3.3-1.8,6.3,0.2,8.1c0.7,0.7,1.6,1.3,2.5,1.7c0.8,0.4,1.4,0.8,1.8,1.3c-0.1,0.1-0.2,0.3-0.3,0.4
	c-1.8-0.7-9.2-4.6-9.9-5.1c-1.1-1-2.1-0.9-2.7-0.7c-1,0.4-1.7,1.6-2,3.6C1.5,20.3,3.8,25.8,6.7,27.7z M21.6,20.2
	c0,0.8-0.7,1.5-1.5,1.5s-1.5-0.7-1.5-1.5s0.6-1.5,1.5-1.5C20.9,18.7,21.6,19.4,21.6,20.2z M20.3,16.8c-0.1,0-0.1,0-0.2,0
	c-0.4,0-0.7,0.1-1.1,0.2c-0.6-1-1.7-1.6-2.7-2.2c-0.7-0.4-1.4-0.9-2.1-1.4c-1.7-1.6-0.7-4.1,0.2-5.6c1.4-2,5.2-3.7,8.5-3.7
	c0.5,0,0.9,0,1.4,0c1.8,0.3,2,0.8,2,0.9s-0.1,0.4-0.4,0.8C25.2,6.6,21.1,14.9,20.3,16.8z M23.6,20.6c0-0.2,0-0.3,0-0.5
	c0-0.3-0.1-0.6-0.2-0.9c0.6-0.5,1.2-1.4,1.7-2.4c0.5-0.7,1-1.7,1.6-2.3c0.7-0.8,1.5-1,2.3-1c1.3,0,2.5,0.6,3.4,1.2
	c2.4,1.4,4.2,6.2,3.7,9.6c-0.3,1.9-0.7,2.1-0.8,2.1c-0.1,0-0.4-0.1-0.8-0.4C34,25.7,25.9,21.3,23.6,20.6z M19.8,23.5
	c0.1,0,0.2,0,0.3,0c0.4,0,0.8-0.1,1.1-0.2c0.4,0.7,1.3,1.3,2.4,1.9c0.7,0.5,1.7,1,2.3,1.6c1.7,1.6,0.7,4.1-0.2,5.6
	c-1.4,2.4-6.2,4.2-9.6,3.7c-1.9-0.3-2.1-0.8-2.1-0.9s0.1-0.4,0.4-0.8C14.8,33.9,19.2,25.8,19.8,23.5z M4.3,16.4
	c0.3-1.9,0.8-2.1,0.9-2.1s0.4,0.1,0.8,0.4c0.4,0.3,8.3,4.6,10.8,5.4l0,0c0,0.5,0.1,1,0.3,1.4c-0.7,0.4-1.2,1.4-1.8,2.4
	c-0.5,0.7-1,1.7-1.6,2.3C12,27.9,9.5,26.9,8,26C5.5,24.6,3.8,19.8,4.3,16.4z"/>
</svg>
