<?xml version="1.0" encoding="utf-8"?>
<!-- Generator: Adobe Illustrator 24.3.0, SVG Export Plug-In . SVG Version: 6.00 Build 0)  -->
<svg version="1.2" baseProfile="tiny" id="Layer_1" xmlns="http://www.w3.org/2000/svg" xmlns:xlink="http://www.w3.org/1999/xlink"
	 x="0px" y="0px" viewBox="0 0 50 50" overflow="visible" xml:space="preserve">
<path fill="none" stroke="#FFFFFF" stroke-linejoin="round" stroke-miterlimit="10" d="M28.8,29.5c-1.6,0-2.9-1.3-2.9-2.9
	c0,1.6-1.3,2.9-2.9,2.9s-2.9-1.3-2.9-2.9c0,1.6-1.3,2.9-2.9,2.9s-2.9-1.3-2.9-2.9v0.1c0,1.6-1.3,2.9-2.9,2.9"/>
<path fill="#FFFFFF" d="M29.5,15.7V6.3H10.4v9.4c-3.9,2.9-6.3,7.5-6.3,12.7c0,8.8,7.1,15.9,15.9,15.9s15.9-7.1,15.9-15.9
	C35.9,23.2,33.4,18.6,29.5,15.7z M20,41.8c-7.4,0-13.4-6-13.4-13.4c0-4.8,2.5-9,6.3-11.4V8.9h14v8.2c3.8,2.4,6.4,6.6,6.4,11.4
	C33.3,35.8,27.4,41.8,20,41.8z"/>
<path fill="#FFFFFF" stroke="#FFFFFF" stroke-miterlimit="10" d="M44.1,39.3V26.4h-3.4v12.9c-1.1,0.6-1.9,1.8-1.9,3.1
	c0,2,1.6,3.6,3.6,3.6s3.6-1.6,3.6-3.6C45.9,41.1,45.2,39.9,44.1,39.3z"/>
<path fill="none" stroke="#FFFFFF" stroke-miterlimit="10" d="M42.4,42.4L42.4,42.4c-0.9,0-1.7-0.8-1.7-1.7v-35
	c0-0.9,0.8-1.7,1.7-1.7l0,0c0.9,0,1.7,0.8,1.7,1.7v35C44.1,41.7,43.3,42.4,42.4,42.4z"/>
</svg>
