<?xml version="1.0" encoding="utf-8"?>
<!-- Generator: Adobe Illustrator 27.0.1, SVG Export Plug-In . SVG Version: 6.00 Build 0)  -->
<svg version="1.2" baseProfile="tiny" id="Layer_2" xmlns="http://www.w3.org/2000/svg" xmlns:xlink="http://www.w3.org/1999/xlink"
	 x="0px" y="0px" viewBox="0 0 64 44" overflow="visible" xml:space="preserve">
<g>
	<path fill="none" stroke="#FFFFFF" stroke-miterlimit="10" d="M59.1,39.4h-0.2c-0.9,0-1.6-0.7-1.6-1.6V2.6C57.3,1.7,58,1,58.9,1
		h0.2c0.9,0,1.6,0.7,1.6,1.6v35.2C60.7,38.7,60,39.4,59.1,39.4z"/>
	<path fill="#FFFFFF" stroke="#FFFFFF" stroke-miterlimit="10" d="M60.7,36.3V23.4h-3.4v12.9c-1.1,0.6-1.9,1.8-1.9,3.1
		c0,2,1.6,3.6,3.6,3.6s3.6-1.6,3.6-3.6C62.6,38.1,61.8,36.9,60.7,36.3z"/>
</g>
<g>
	<path fill="#FFFFFF" d="M17.2,7.3h17.7c0.7,0,1.2,0.5,1.2,1.2l0,0c0,0.7-0.5,1.2-1.2,1.2H17.2c-0.7,0-1.2-0.5-1.2-1.2l0,0
		C16,7.8,16.5,7.3,17.2,7.3z"/>
	<path fill="#FFFFFF" d="M40.7,42.7c-0.2,0-0.3,0-0.5,0H22.7c-1.3,0-2.4-0.4-3.1-1.3c-1.7-1.5-2.8-2.6-3.4-3.3
		c-0.4-0.5-0.9-0.9-1.4-1.1h-3.4c-2,0-3.3-1.1-3.7-3.1v-0.2V18.5c0-1.1,0.7-2.3,2.6-2.3h4.4c0.1,0,0.2,0,0.2,0s0.1-0.2,0.1-1
		c0-1.8,1-2.4,2-2.4h4.4v-3h2v5h-6.5c0,0.1,0,0.2,0,0.4c0,0.8,0,3-2.3,3h-4.4c-0.4,0-0.5,0.1-0.5,0.1l0,0c0,0,0,0.1,0,0.2v15.1
		c0.2,1,0.7,1.4,1.7,1.4h3.7l0.2,0.1c0.9,0.3,1.7,0.9,2.4,1.7c0.5,0.6,1.7,1.7,3.3,3.2l0.1,0.1c0.2,0.3,0.7,0.6,1.6,0.6h17.7
		c0.3,0,0.5,0,0.6-0.1s0.2-0.4,0.2-1c0-0.5,0-1-0.1-1.5c-0.1-2-0.2-3.9,0.7-4.9c0.4-0.4,0.9-0.6,1.5-0.6h2c1,0,2.1,0.6,2.1,2.4v0.2
		c0,0.7,0,1.6,0.4,2c0.3,0.2,0.8,0.3,1.1,0.2c2.1-0.1,2.4-4.2,2.3-7.6c-0.2-5.1-0.8-7.3-2.3-7.3c-1.4,0-1.5,0.4-1.5,2.3
		c0,2.6-2.2,2.6-3,2.6h-0.2c-0.6,0-1.5,0-2.3-0.6c-0.5-0.5-0.8-1.2-0.8-2.2v-4.5c-0.1-0.4-0.3-0.7-1-0.7c-0.3,0-0.6,0-1,0
		c-1.2,0.1-2.6,0.2-3.5-0.7c-0.3-0.3-0.7-0.8-0.7-1.7c0-0.4,0-0.7,0-1c0-0.4,0.1-1.2,0-1.3l0,0c0,0-0.1-0.1-0.6-0.1h-6.5v-5h2v3h4.5
		c0.9,0,1.6,0.2,2,0.7c0.7,0.7,0.6,1.8,0.6,2.8c0,0.3,0,0.6,0,0.9c0,0.1,0,0.2,0,0.2c0.2,0.2,1.4,0.2,2,0.1c0.4,0,0.7,0,1.1,0
		c1.6,0,2.7,0.9,3,2.4v0.2v4.6c0,0.6,0.1,0.8,0.2,0.8c0.1,0.1,0.5,0.1,0.8,0.1h0.3c1,0,1,0,1-0.6c0-1.5,0-4.3,3.5-4.3
		c4,0,4.2,6,4.3,9.3c0.1,2.3,0.3,9.4-4.2,9.6c-1.1,0.1-2-0.2-2.6-0.8c-1-1-1-2.4-1-3.4V35c0-0.3,0-0.4-0.1-0.4c0,0,0,0-0.1,0h-2
		c-0.4,0.3-0.3,2.4-0.2,3.4c0,0.6,0.1,1.2,0.1,1.7c0,1.1-0.3,1.9-0.9,2.5C41.9,42.6,41.4,42.7,40.7,42.7z"/>
	<path fill="#FFFFFF" d="M8.2,24.2H5.1v-7C5,16.1,4.6,15.8,4,16.1c-0.7,0.2-1.6,1-2.6,2.5v7.2l1.8,1.5v8.5c0.2,0.6,0.5,0.9,1,0.9
		S5,36.4,5,35.8v-7.2h3.1L8.2,24.2L8.2,24.2z"/>
</g>
</svg>
