<?xml version="1.0" encoding="utf-8"?>
<!-- Generator: Adobe Illustrator 24.3.0, SVG Export Plug-In . SVG Version: 6.00 Build 0)  -->
<svg version="1.2" baseProfile="tiny" id="Layer_1" xmlns="http://www.w3.org/2000/svg" xmlns:xlink="http://www.w3.org/1999/xlink"
	 x="0px" y="0px" viewBox="0 0 50 50" overflow="visible" xml:space="preserve">
<path fill="#FFFFFF" d="M34.5,9.7V0.3H15.4v9.4c-3.9,2.9-6.3,7.5-6.3,12.7c0,8.8,7.1,15.9,15.9,15.9s15.9-7.1,15.9-15.9
	C40.9,17.2,38.4,12.6,34.5,9.7z M25,35.8c-7.4,0-13.4-6-13.4-13.4c0-4.8,2.5-9,6.3-11.4V2.8h14V11c3.8,2.4,6.4,6.6,6.4,11.4
	C38.3,29.8,32.4,35.8,25,35.8z"/>
<text transform="matrix(1 0 0 1 6.6602 49.5988)" fill="#FFFFFF" font-family="'ArialMT'" font-size="15px">n/min</text>
<path fill="#FFFFFF" stroke="#FFFFFF" stroke-width="0.5" stroke-linejoin="round" stroke-miterlimit="10" d="M32.1,27l1,0.8L29,30.1
	l1.1-4.5l1.1,0.8c0.5-1,0.8-2,0.8-3.2c0-3.8-3.1-7-7-7s-7,3.1-7,7c0,2.6,1.4,4.8,3.4,6l-0.6,0.9c-2.4-1.4-4-4-4-6.9
	c0-4.4,3.6-8.1,8.1-8.1s8.1,3.6,8.1,8.1C33.1,24.6,32.7,25.9,32.1,27z"/>
</svg>
