<?xml version="1.0" encoding="utf-8"?>
<!-- Generator: Adobe Illustrator 24.3.0, SVG Export Plug-In . SVG Version: 6.00 Build 0)  -->
<svg version="1.2" baseProfile="tiny" id="Layer_1" xmlns="http://www.w3.org/2000/svg" xmlns:xlink="http://www.w3.org/1999/xlink"
	 x="0px" y="0px" viewBox="0 0 50 50" overflow="visible" xml:space="preserve">
<path fill="#FFFFFF" d="M28.2,14V6.3H9.1v9.4c-3.9,2.9-6.3,7.5-6.3,12.7c0,8.8,7.1,15.9,15.9,15.9s15.9-7.1,15.9-15.9
	c0-0.9-0.1-1.8-0.2-2.6L32,28c0,0.1,0,0.3,0,0.4c0,7.4-6,13.4-13.4,13.4c-7.4,0-13.4-6-13.4-13.4c0-4.8,2.5-9,6.3-11.4V8.9h14
	c0,0,0,4.4,0,4.4L28.2,14z"/>
<polygon fill="#FFFFFF" points="16.3,12.3 32.1,16.5 32.1,12.7 38.7,19.3 32.1,25.9 32.1,21.9 16.3,26.2 "/>
<path fill="none" stroke="#FFFFFF" stroke-miterlimit="10" d="M43.8,42.4h-0.2c-0.9,0-1.6-0.7-1.6-1.6V5.6C42,4.7,42.7,4,43.6,4h0.2
	c0.9,0,1.6,0.7,1.6,1.6v35.2C45.4,41.7,44.7,42.4,43.8,42.4z"/>
<path fill="#FFFFFF" stroke="#FFFFFF" stroke-miterlimit="10" d="M45.4,39.3V26.4H42c0,0,0,12.9,0,12.9c-1.1,0.6-1.9,1.8-1.9,3.1
	c0,2,1.6,3.6,3.6,3.6s3.6-1.6,3.6-3.6C47.3,41.1,46.5,39.9,45.4,39.3z"/>
</svg>
