<?xml version="1.0" encoding="utf-8"?>
<!-- Generator: Adobe Illustrator 24.3.0, SVG Export Plug-In . SVG Version: 6.00 Build 0)  -->
<svg version="1.2" baseProfile="tiny" id="Layer_2" xmlns="http://www.w3.org/2000/svg" xmlns:xlink="http://www.w3.org/1999/xlink"
	 x="0px" y="0px" viewBox="0 0 50 50" overflow="visible" xml:space="preserve">
<path fill="#FFFFFF" d="M22.2,21.7c0-0.1,0-0.4,0.1-0.7c0.2-0.6,0.8-0.7,0.9-0.7c-0.2-0.9-0.6-2.6-2-4.2c-1.8-2.1-4-2.8-4.8-2.9v1.2
	c0.7,0.4,1.7,1.1,2.5,2.2c0,0,0.9,1,1.4,2.5c0.1,0.4,0.2,0.8,0.2,1.2c0,0.3,0,0.5-0.1,0.7l1.3,10.4c0.1,1-0.7,2-1.7,2.1
	c-1,0.1-1.9-0.6-2.1-1.6v-7.5c0-0.1,0-0.2,0-0.3c-0.1-1-1-1.9-1.9-2.3c-0.2-0.1-0.7-0.2-1.3-0.2v-6.4c0-0.2-0.1-0.8-0.6-1.3
	c-0.6-0.6-1.2-0.6-1.4-0.7H4c-0.1,0-0.9,0.1-1.4,0.7c-0.5,0.6-0.6,1.1-0.6,1.3v20.1H1v1.7h14.8v-1.7h-1.1v-12c0.1,0,0.6-0.1,1.1,0.2
	c0.5,0.4,0.6,0.9,0.6,1v7.1c0,1.9,1.5,3.5,3.4,3.6c2,0.1,3.6-1.5,3.7-3.6C23.4,31.5,22.2,21.7,22.2,21.7z M13.1,35.2H3.7v-12h9.4
	V35.2z M13.1,21.6H3.7v-6.7h9.4V21.6z"/>
<polygon fill="#FFFFFF" points="33.6,13.4 25.1,36.6 23.5,36.6 32,13.4 "/>
<path fill="#FFFFFF" d="M35.8,13.5v23H49v-23H35.8z M47.4,31.2c0.5,1.6,0.6,3,0.6,4H36.9c0-1,0.1-2.5,0.6-4c1-3.1,3-5.1,4-5.9v-0.5
	c-1-0.9-3-2.8-4-5.9c-0.5-1.6-0.6-3-0.6-4H48c0,1-0.1,2.5-0.6,4c-1,3.1-3,5.1-4,5.9v0.5C44.4,26.2,46.4,28.1,47.4,31.2z"/>
</svg>
