<?xml version="1.0" encoding="utf-8"?>
<!-- Generator: Adobe Illustrator 28.0.0, SVG Export Plug-In . SVG Version: 6.00 Build 0)  -->
<svg version="1.2" baseProfile="tiny" id="Layer_1" xmlns="http://www.w3.org/2000/svg" xmlns:xlink="http://www.w3.org/1999/xlink"
	 x="0px" y="0px" viewBox="0 0 40 40" overflow="visible" xml:space="preserve">
<polygon fill="none" stroke="#FF0000" stroke-width="2" stroke-linejoin="round" stroke-miterlimit="10" points="20,33 5,7 35,7 "/>
<line fill="none" stroke="#FF0000" stroke-width="2" stroke-miterlimit="10" x1="9" y1="20" x2="1" y2="20"/>
<line fill="none" stroke="#FF0000" stroke-width="2" stroke-miterlimit="10" x1="31" y1="20" x2="39" y2="20"/>
<g>
	<path fill="#FF0000" d="M17.5,22c-1.3-0.6-2.3-1.4-2.7-2.8c-0.3-0.9-0.1-1.7,0.2-2.5c0.2-0.6,0.6-1.2,0.9-1.9c0.2-0.4,0.3-0.7,0.3-1.2
		c0.6,0.5,0.7,1.1,0.6,1.8c1.2-0.7,2.5-4,2.1-5.3c1.6,0.6,2.7,2.1,3.5,4.5c0.4-0.3,0.5-1.1,0.3-2.1c0.9,0.6,1.5,1.5,2,2.5
		c0.4,0.9,0.6,1.8,0.5,2.8c0,0.9-0.4,1.8-1,2.5c-0.6,0.8-1.3,1.2-2.2,1.6c0.1-0.5,0.3-0.9,0.3-1.4c0.4-1.9,0.2-3.6-1.4-5
		c-0.1,0-0.2-0.1-0.2-0.2c-0.2-0.2-0.5-0.3-0.7-0.4c-0.1,0.3,0.1,0.5,0.1,0.8c0.1,0.7-0.2,1.9-0.9,2.4c-0.2-0.6-0.1-1.2-0.7-1.8
		c0,0.6,0,1.2-0.3,1.7c-0.1,0.1-0.1,0.3-0.3,0.4c-0.6,0.6-0.8,1.4-0.8,2.3C17.1,21.1,17.3,21.5,17.5,22z"/>
</g>
</svg>
