<?xml version="1.0" encoding="utf-8"?>
<!-- Generator: Adobe Illustrator 24.3.0, SVG Export Plug-In . SVG Version: 6.00 Build 0)  -->
<svg version="1.2" baseProfile="tiny" id="Layer_1" xmlns="http://www.w3.org/2000/svg" xmlns:xlink="http://www.w3.org/1999/xlink"
	 x="0px" y="0px" viewBox="0 0 50 50" overflow="visible" xml:space="preserve">
<polyline fill="none" stroke="#FFFFFF" stroke-width="2.5" stroke-miterlimit="10" points="30.7,7.8 30.7,44.8 6.5,44.8 6.5,7.8 "/>
<line fill="none" stroke="#FFFFFF" stroke-width="2.5" stroke-miterlimit="10" x1="10.3" y1="13.2" x2="26.9" y2="13.2"/>
<line fill="none" stroke="#FFFFFF" stroke-width="2.5" stroke-miterlimit="10" x1="18.6" y1="4.5" x2="18.6" y2="13.2"/>
<path fill="none" stroke="#FFFFFF" stroke-miterlimit="10" d="M18.6,37.4c0.5,0,2.5-0.1,4.2-1.7c0.2-0.1,1.8-1.8,1.9-4.3
	c0.1-1.7-0.6-2.9-2.3-5.7c-0.9-1.4-2.2-3.7-3.8-6.7c-1.7,2.9-3,5.2-3.8,6.7c-1.6,2.8-2.3,3.9-2.3,5.7c0.1,2.5,1.7,4.1,1.9,4.3
	C16.1,37.3,18.1,37.4,18.6,37.4z"/>
<path fill="none" stroke="#FFFFFF" stroke-miterlimit="10" d="M39.5,42.2L39.5,42.2c-0.9,0-1.7-0.7-1.7-1.7v-35
	c0-0.9,0.7-1.7,1.7-1.7l0,0c0.9,0,1.7,0.7,1.7,1.7v35C41.2,41.4,40.4,42.2,39.5,42.2z"/>
<path fill="#FFFFFF" d="M41.2,38.6V24.8h-3.3v13.8c-1.4,0.6-2.3,2-2.3,3.6c0,2.2,1.8,4,4,4s4-1.8,4-4C43.5,40.6,42.5,39.2,41.2,38.6
	z"/>
</svg>
