<?xml version="1.0" encoding="utf-8"?>
<!-- Generator: Adobe Illustrator 24.3.0, SVG Export Plug-In . SVG Version: 6.00 Build 0)  -->
<svg version="1.2" baseProfile="tiny" id="Layer_1" xmlns="http://www.w3.org/2000/svg" xmlns:xlink="http://www.w3.org/1999/xlink"
	 x="0px" y="0px" viewBox="0 0 50 50" overflow="visible" xml:space="preserve">
<polyline fill="none" stroke="#FFFFFF" stroke-width="2.5" stroke-miterlimit="10" points="43.8,8.2 43.8,45.1 19.6,45.1 19.6,8.2 
	"/>
<line fill="none" stroke="#FFFFFF" stroke-width="2.5" stroke-miterlimit="10" x1="23.4" y1="13.5" x2="40" y2="13.5"/>
<line fill="none" stroke="#FFFFFF" stroke-width="2.5" stroke-miterlimit="10" x1="31.7" y1="4.9" x2="31.7" y2="13.5"/>
<path fill="none" stroke="#FFFFFF" stroke-miterlimit="10" d="M31.7,37.8c0.5,0,2.5-0.1,4.2-1.7c0.2-0.1,1.8-1.8,1.9-4.3
	c0.1-1.7-0.6-2.9-2.3-5.7c-0.9-1.4-2.2-3.7-3.8-6.7c-1.7,2.9-3,5.2-3.8,6.7c-1.6,2.8-2.3,3.9-2.3,5.7c0.1,2.5,1.7,4.1,1.9,4.3
	C29.1,37.7,31.2,37.8,31.7,37.8z"/>
<polyline fill="none" stroke="#FFFFFF" stroke-miterlimit="10" points="6.2,23.9 16.8,29.6 6.2,35.5 6.2,18.9 "/>
</svg>
