<?xml version="1.0" encoding="UTF-8"?>
<svg xmlns="http://www.w3.org/2000/svg" baseProfile="tiny" version="1.2" viewBox="0 0 34 44">
  <!-- Generator: Adobe Illustrator 28.7.1, SVG Export Plug-In . SVG Version: 1.2.0 Build 142)  -->
  <g>
    <g id="Layer_2">
      <g>
        <path d="M6.1,37.5h-.1c-.5,0-.9-.4-.9-.9v-19.3c0-.5.4-.9.9-.9h.1c.5,0,.9.4.9.9v19.3c0,.5-.4.9-.9.9Z" fill="none" stroke="#fff" stroke-miterlimit="10"/>
        <path d="M6.9,35.8v-7.1h-1.9v7.1c-.6.3-1,1-1,1.7,0,1.1.9,2,2,2s2-.9,2-2-.4-1.4-1-1.7Z" fill="#fff" stroke="#fff" stroke-miterlimit="10"/>
      </g>
      <g>
        <path d="M20.2,41.9c0,0,0,.5-.4.8-.3.3-.7.3-.8.3H1.7c-.1,0-.5,0-.8-.4-.3-.3-.3-.7-.3-.8V8.1l19.6,12.6v21.2Z" fill="none" stroke="#fff" stroke-miterlimit="10"/>
        <path d="M22.8,14.7c.1,0,.2.1.3.3.1.2.1.4.1.4v4.4c0,.2-.1.4-.2.4-.2.1-.4.1-.5,0L.6,6.1V1.7s0-.5.4-.7c.3,0,.6,0,.8.1l21,13.6Z" fill="#fff" stroke="#fff" stroke-miterlimit="10"/>
      </g>
    </g>
  </g>
</svg>