<?xml version="1.0" encoding="utf-8"?>
<!-- Generator: Adobe Illustrator 24.3.0, SVG Export Plug-In . SVG Version: 6.00 Build 0)  -->
<svg version="1.2" baseProfile="tiny" id="Layer_1" xmlns="http://www.w3.org/2000/svg" xmlns:xlink="http://www.w3.org/1999/xlink"
	 x="0px" y="0px" viewBox="0 0 12 12" overflow="visible" xml:space="preserve">
<path id="LOCAL" fill="#FFFF00" d="M10.5,3.2c0.6,0.4,0.4,0.9,0.2,1.7V5l0,0l0,0L9.3,9.5v1.1V11h-5v-0.4v-1C4,9.4,3.4,8.8,2.8,7.8
	L1.2,5l0,0l0,0c-0.1-0.3,0-0.6,0.1-0.9C1.5,3.8,1.7,3.7,2,3.6c0.1,0,0.2,0,0.3,0c0.5,0,0.9,0.3,1.1,0.7c0-0.3,0-0.6,0-0.9L3.3,2.3
	c0-0.3,0.1-0.6,0.3-0.8C3.7,1.2,4,1,4.3,1l0,0c0.5,0,0.9,0.3,1.1,0.7C5.5,1.4,5.7,1,6.5,1c0.1,0,0.1,0,0.2,0c0.8,0,1,0.6,1,0.8l0,0
	v0.1c0.2-0.2,0.4-0.3,0.7-0.3c0.1,0,0.2,0,0.3,0c1.1,0.2,1.1,0.9,1,1.1v0.2c0.1,0,0.1,0,0.2,0C10.1,2.9,10.3,3,10.5,3.2"/>
</svg>