<?xml version="1.0" encoding="utf-8"?>
<!-- Generator: Adobe Illustrator 24.3.0, SVG Export Plug-In . SVG Version: 6.00 Build 0)  -->
<svg version="1.2" baseProfile="tiny" id="Layer_1" xmlns="http://www.w3.org/2000/svg" xmlns:xlink="http://www.w3.org/1999/xlink"
	 x="0px" y="0px" viewBox="0 0 12 12" overflow="visible" xml:space="preserve">
<polygon id="CAN" fill="#FFFF00" points="11.5,5.6 6.4,5.6 6.4,4.3 7.6,4.3 7.6,1 4.4,1 4.4,4.3 5.6,4.3 5.6,5.6 0.5,5.6 0.5,6.4 
	1.8,6.4 1.8,7.8 0.5,7.8 0.5,11 3.8,11 3.8,7.8 2.5,7.8 2.5,6.4 9.5,6.4 9.5,7.8 8.3,7.8 8.3,11 11.5,11 11.5,7.8 10.3,7.8 
	10.3,6.4 11.5,6.4 "/>
<line fill="none" stroke="#FF0000" stroke-width="1" stroke-miterlimit="10" x1="0.5" y1="11.5" x2="11.5" y2="0.5"/>
</svg>
