<?xml version="1.0" encoding="utf-8"?>
<!-- Generator: Adobe Illustrator 24.3.0, SVG Export Plug-In . SVG Version: 6.00 Build 0)  -->
<svg version="1.2" baseProfile="tiny" id="Layer_1" xmlns="http://www.w3.org/2000/svg" xmlns:xlink="http://www.w3.org/1999/xlink"
	 x="0px" y="0px" viewBox="0 0 50 50" overflow="visible" xml:space="preserve">
<path fill="#FFFFFF" d="M34.5,15.4V6H15.4v9.4C11.5,18.3,9,22.9,9,28.1C9,36.9,16.1,44,24.9,44s15.9-7.1,15.9-15.9
	C40.8,22.9,38.3,18.3,34.5,15.4z M24.9,41.5c-7.4,0-13.4-6-13.4-13.4c0-4.8,2.5-9,6.3-11.4V8.5h14v8.2c3.8,2.4,6.4,6.6,6.4,11.4
	C38.3,35.5,32.3,41.5,24.9,41.5z"/>
<path fill="none" stroke="#FFFFFF" stroke-miterlimit="10" d="M24.9,36.4c0.6,0,1.5-0.1,2.6-0.6c0.5-0.2,1.6-0.8,2.6-2.1
	c1.1-1.5,1.2-3.1,1.2-3.6c0.1-2-0.8-3.3-3.2-7.3c-0.7-1.1-1.8-3-3.1-5.3c-1.3,2.4-2.4,4.2-3.1,5.3c-2.4,4.1-3.3,5.3-3.2,7.3
	c0,0.5,0.1,2,1.2,3.6c0.9,1.3,2.1,1.9,2.6,2.1C23.4,36.3,24.4,36.4,24.9,36.4z"/>
<polygon fill="#FFFFFF" stroke="#FFFFFF" stroke-miterlimit="10" points="49.2,28.1 49.2,30.2 44.3,30.2 44.3,32.4 40.2,28.1 
	44.3,23.8 44.3,26.1 49.2,26.1 "/>
<polygon fill="#FFFFFF" stroke="#FFFFFF" stroke-miterlimit="10" points="0.8,28.1 0.8,30.2 5.7,30.2 5.7,32.4 9.8,28.1 5.7,23.8 
	5.7,26.1 0.8,26.1 "/>
</svg>
