<?xml version="1.0" encoding="utf-8"?>
<!-- Generator: Adobe Illustrator 27.0.1, SVG Export Plug-In . SVG Version: 6.00 Build 0)  -->
<svg version="1.2" baseProfile="tiny" id="Layer_2" xmlns="http://www.w3.org/2000/svg" xmlns:xlink="http://www.w3.org/1999/xlink"
	 x="0px" y="0px" viewBox="0 0 34 44" overflow="visible" xml:space="preserve">
<g>
	<path fill="none" stroke="#FFFFFF" stroke-miterlimit="10" d="M29.9,39.4h-0.2c-0.9,0-1.6-0.7-1.6-1.6V2.6c0-0.9,0.7-1.6,1.6-1.6
		h0.2c0.9,0,1.6,0.7,1.6,1.6v35.2C31.5,38.7,30.8,39.4,29.9,39.4z"/>
	<path fill="#FFFFFF" stroke="#FFFFFF" stroke-miterlimit="10" d="M31.5,36.3V23.4h-3.4v12.9c-1.1,0.6-1.9,1.8-1.9,3.1
		c0,2,1.6,3.6,3.6,3.6s3.6-1.6,3.6-3.6C33.4,38.1,32.6,36.9,31.5,36.3z"/>
</g>
<g>
	<path fill="#FFFFFF" stroke="#FFFFFF" stroke-miterlimit="10" d="M20.2,41.9c0,0.1,0,0.5-0.4,0.8C19.5,43,19.1,43,19,43
		c0,0-17.3,0-17.3,0c-0.1,0-0.5,0-0.8-0.4c-0.3-0.3-0.3-0.7-0.3-0.8c0,0,0-33.7,0-33.7c0,0,19.6,12.6,19.6,12.6S20.2,41.9,20.2,41.9
		z"/>
	<path fill="#FFFFFF" stroke="#FFFFFF" stroke-miterlimit="10" d="M22.8,14.7c0.1,0,0.2,0.1,0.3,0.3c0.1,0.2,0.1,0.4,0.1,0.4
		c0,0,0,4.4,0,4.4c0,0.2-0.1,0.4-0.2,0.4c-0.2,0.1-0.4,0.1-0.5,0c0,0-21.9-14.1-21.9-14.1s0-4.4,0-4.4c0,0,0-0.5,0.4-0.7
		C1.3,1,1.6,1,1.8,1.1C1.8,1.1,22.8,14.7,22.8,14.7z"/>
</g>
</svg>
