<?xml version="1.0" encoding="utf-8"?>
<!-- Generator: Adobe Illustrator 27.0.1, SVG Export Plug-In . SVG Version: 6.00 Build 0)  -->
<svg version="1.2" baseProfile="tiny" id="Layer_1" xmlns="http://www.w3.org/2000/svg" xmlns:xlink="http://www.w3.org/1999/xlink"
	 x="0px" y="0px" viewBox="0 0 50 50" overflow="visible" xml:space="preserve">
<path fill="#FFFFFF" d="M34.1,15.4V6H15v9.4c-3.9,2.9-6.3,7.5-6.3,12.7c0,8.8,7.1,15.9,15.9,15.9s15.9-7.1,15.9-15.9
	C40.5,22.9,38,18.3,34.1,15.4z M24.6,41.5c-7.4,0-13.4-6-13.4-13.4c0-4.8,2.5-9,6.3-11.4V8.5h14v8.2c3.8,2.4,6.4,6.6,6.4,11.4
	C38,35.5,32,41.5,24.6,41.5z"/>
<text transform="matrix(1 0 0 1 13.4906 33.7269)" fill="#FFFFFF" font-family="'SourceSansPro-SemiBold'" font-size="15px">Nm</text>
</svg>
