<?xml version="1.0" encoding="utf-8"?>
<!-- Generator: Adobe Illustrator 24.3.0, SVG Export Plug-In . SVG Version: 6.00 Build 0)  -->
<svg version="1.2" baseProfile="tiny" id="Layer_2" xmlns="http://www.w3.org/2000/svg" xmlns:xlink="http://www.w3.org/1999/xlink"
	 x="0px" y="0px" viewBox="0 0 50 50" overflow="visible" xml:space="preserve">
<path fill="#FFFFFF" d="M22.9,32.7c-1.7,0-3,1.4-3,3h6.1C25.9,34,24.6,32.7,22.9,32.7z"/>
<path fill="#FFFFFF" d="M2.2,42.5h41.5c0.1,0,0.6,0,1-0.4c0.2-0.3,0.3-0.6,0.3-0.7c0,0,0-1.4,0-1.4v0c0-0.1-0.1-0.4-0.3-0.7
	c-0.4-0.4-0.9-0.4-1-0.4H2.2c-0.1,0-0.6,0-1,0.4c-0.2,0.3-0.3,0.6-0.3,0.7l0,0c0,0,0,1.4,0,1.4c0,0.1,0.1,0.4,0.3,0.7
	C1.6,42.5,2.1,42.5,2.2,42.5z"/>
<path fill="#FFFFFF" d="M30.6,35.7c0-4.3-3.4-7.7-7.7-7.7s-7.7,3.4-7.7,7.7H5.8c0-9.5,7.7-17.1,17.1-17.1c3.5,0,6.8,1.1,9.5,2.9
	c0,0,5-5,5-5c0,0-0.1-0.1-0.1-0.1c-0.6-0.6-0.6-1.7,0-2.4L43.4,8c0.6-0.6,1.7-0.6,2.4,0l2.9,2.9c0.6,0.6,0.6,1.7,0,2.4l-6.1,6.1
	c-0.6,0.6-1.7,0.6-2.4,0c0,0-0.1-0.1-0.1-0.1c0,0-4.8,4.8-4.8,4.8C38.3,27,40,31.2,40,35.7H30.6z"/>
</svg>
