<?xml version="1.0" encoding="utf-8"?>
<!-- Generator: Adobe Illustrator 22.1.0, SVG Export Plug-In . SVG Version: 6.00 Build 0)  -->
<svg version="1.2" baseProfile="tiny" id="Layer_1" xmlns="http://www.w3.org/2000/svg" xmlns:xlink="http://www.w3.org/1999/xlink"
	 x="0px" y="0px" width="60px" height="60px" viewBox="0 0 60 60" xml:space="preserve">
<circle id="XMLID_8_" fill="none" stroke="#18212F" stroke-width="3" stroke-linecap="round" stroke-linejoin="round" stroke-miterlimit="10" cx="30" cy="30" r="26"/>
<circle id="XMLID_1_" fill="#010916" cx="30" cy="30" r="22"/>
<circle id="XMLID_2_" fill="none" stroke="#C3D2E7" stroke-width="2" stroke-miterlimit="10" cx="30" cy="30" r="22"/>
<path fill="#C3D2E7" d="M28.4,36.1c0-1.1,0.8-1.9,1.9-1.9c1,0,1.9,0.8,1.9,1.9S31.4,38,30.3,38C29.1,38,28.4,37.2,28.4,36.1z
	 M28.9,32.4c-0.5-3.6,3.3-5,3.3-7.2c0-1.2-0.8-2-2-2c-1,0-1.8,0.5-2.6,1.3L26,23.1c1.1-1.2,2.5-2.1,4.4-2.1c2.7,0,4.6,1.4,4.6,4.1
	c0,3.1-3.9,4.2-3.5,7.4L28.9,32.4L28.9,32.4z"/>
<path id="XMLID_4_" fill="#C3D2E7" d="M25,8V4c0-1.7,1.3-3,3-3h4c1.7,0,3,1.3,3,3v4H25z"/>
<path id="XMLID_5_" fill="#C3D2E7" d="M25,56v-4h10v4c0,1.7-1.3,3-3,3h-4C26.3,59,25,57.7,25,56z"/>
</svg>
