<?xml version="1.0" encoding="utf-8"?>
<!-- Generator: Adobe Illustrator 22.1.0, SVG Export Plug-In . SVG Version: 6.00 Build 0)  -->
<svg version="1.2" baseProfile="tiny" id="Layer_1" xmlns="http://www.w3.org/2000/svg" xmlns:xlink="http://www.w3.org/1999/xlink"
	 x="0px" y="0px" width="60px" height="60px" viewBox="0 0 60 60" xml:space="preserve">
<circle id="XMLID_38_" fill="none" stroke="#18212F" stroke-width="3" stroke-linecap="round" stroke-linejoin="round" stroke-miterlimit="10" cx="30" cy="30" r="26"/>
<circle id="XMLID_32_" fill="#000000" cx="30" cy="30" r="22"/>
<circle id="XMLID_30_" fill="none" stroke="#465C7E" stroke-width="2" stroke-miterlimit="10" cx="30" cy="30" r="22"/>
<circle fill="none" stroke="#C3D2E7" stroke-width="2" stroke-miterlimit="10" cx="30" cy="30" r="22"/>
<circle id="XMLID_9_" fill="#000000" cx="11.6" cy="48.5" r="6.3"/>
<path id="XMLID_12_" fill="#C3D2E7" d="M10,52.1h4v-1.2h-2.5v-5.2H10V52.1z M11.5,56C7.4,56,4,52.6,4,48.5S7.4,41,11.5,41
	s7.5,3.4,7.5,7.5S15.6,56,11.5,56z"/>
<path id="XMLID_4_" fill="#00E76E" d="M25,8V4c0-1.7,1.3-3,3-3h4c1.7,0,3,1.3,3,3v4H25z"/>
<path id="XMLID_5_" fill="#00E76E" d="M25,56v-4h10v4c0,1.7-1.3,3-3,3h-4C26.3,59,25,57.7,25,56z"/>
<rect id="XMLID_24_" x="25" y="7" fill="#00E76E" width="10" height="46"/>
</svg>
