<?xml version="1.0" encoding="utf-8"?>
<!-- Generator: Adobe Illustrator 22.1.0, SVG Export Plug-In . SVG Version: 6.00 Build 0)  -->
<svg version="1.2" baseProfile="tiny" id="Layer_1" xmlns="http://www.w3.org/2000/svg" xmlns:xlink="http://www.w3.org/1999/xlink"
	 x="0px" y="0px" width="60px" height="60px" viewBox="0 0 60 60" xml:space="preserve">
<circle id="XMLID_19_" fill="none" stroke="#18212F" stroke-width="3" stroke-linecap="round" stroke-linejoin="round" stroke-miterlimit="10" cx="30" cy="30" r="26"/>
<circle id="XMLID_12_" fill="#000000" cx="30" cy="30" r="22"/>
<rect id="XMLID_3_" x="24.5" y="8.5" transform="matrix(0.7071 -0.7071 0.7071 0.7071 -12.5726 29.646)" fill="#C3D2E7" width="10" height="43"/>
<path id="XMLID_4_" fill="#C3D2E7" d="M25,8V4c0-1.7,1.3-3,3-3h4c1.7,0,3,1.3,3,3v4H25z"/>
<path id="XMLID_5_" fill="#C3D2E7" d="M25,56v-4h10v4c0,1.7-1.3,3-3,3h-4C26.3,59,25,57.7,25,56z"/>
<path id="XMLID_17_" fill="#FF0000" d="M56.8,16.2H43.2c-0.5,0-1-0.4-1-1c0-0.2,0.1-0.4,0.2-0.5l6.8-10.4c0.3-0.4,0.9-0.6,1.3-0.3
	c0.1,0.1,0.2,0.2,0.3,0.3l6.8,10.4c0.3,0.4,0.2,1-0.3,1.3C57.2,16.1,57,16.2,56.8,16.2z"/>
<circle id="XMLID_10_" fill="none" stroke="#FF0000" stroke-width="2" stroke-miterlimit="10" cx="30" cy="30" r="22"/>
<path id="XMLID_16_" fill="#FFFFFF" d="M50,13.9c-0.4,0-0.7-0.3-0.7-0.7s0.3-0.7,0.7-0.7s0.7,0.3,0.7,0.7
	C50.6,13.7,50.4,13.9,50,13.9z"/>
<polygon id="XMLID_14_" fill="#FFFFFF" points="49.4,7.6 50.6,7.6 50.5,11.5 49.5,11.5"/>
</svg>
