<?xml version="1.0" encoding="utf-8"?>
<!-- Generator: Adobe Illustrator 19.0.0, SVG Export Plug-In . SVG Version: 6.00 Build 0)  -->
<svg version="1.2" baseProfile="tiny" id="Layer_1" xmlns="http://www.w3.org/2000/svg" xmlns:xlink="http://www.w3.org/1999/xlink"
	 x="0px" y="0px" width="48px" height="54px" viewBox="0 0 48 54" xml:space="preserve">
<path fill="#FF0000" d="M13.2,53c-5.6-2.8-9.8-6.2-11.6-12.2c-1.1-3.9-0.4-7.5,1-11c1-2.8,2.5-5.4,3.9-8.1c0.9-1.6,1.5-3.2,1.4-5.4
	c2.4,2.3,3.1,4.8,2.8,7.8C15.7,21.2,21.7,6.7,20,1c7,2.5,11.9,9.3,15,19.6c1.7-1.2,2.2-4.6,1.4-9c4.1,2.7,6.6,6.5,8.5,10.8
	c1.6,3.8,2.5,8,2.2,12.2c-0.2,4.1-1.8,7.7-4.3,10.9c-2.5,3.3-5.7,5.3-9.6,7c0.5-2.1,1.1-4.1,1.5-6.1c1.6-8.2,0.7-15.7-6.1-21.5
	c-0.3-0.2-0.7-0.5-1-0.7c-1-0.7-2.1-1.3-3.2-1.7c-0.3,1.2,0.4,2.2,0.5,3.3c0.3,3-0.9,8.4-3.8,10.4c-0.9-2.5-0.6-5.4-3.2-7.7
	c0,2.8-0.2,5.2-1.5,7.3c-0.4,0.6-0.6,1.2-1.1,1.7c-2.6,2.8-3.6,6.1-3.5,9.9C11.7,49.3,12.2,51,13.2,53z"/>
</svg>
