<?xml version="1.0" encoding="utf-8"?>
<!-- Generator: Adobe Illustrator 19.0.0, SVG Export Plug-In . SVG Version: 6.00 Build 0)  -->
<svg version="1.2" baseProfile="tiny" id="Layer_1" xmlns="http://www.w3.org/2000/svg" xmlns:xlink="http://www.w3.org/1999/xlink"
	 x="0px" y="0px" width="28px" height="46px" viewBox="0 0 28 46" xml:space="preserve">
<path fill="#FF0000" d="M10.2,29c0-0.8,0-1.5,0-2.1c0-5.1,0-10.2,0-15.2c0-0.3,0-0.5,0.1-0.8c0.1-0.7,0.3-1.3,1.1-1.5c0.8-0.2,1.5,0,2.1,0.5
	c0.5,0.4,0.7,1,0.7,1.6c0.1,3.3,0.2,6.5,0.3,9.8c0,0.8,0.1,1.6,0.1,2.4c0,0.3,0.1,0.4,0.4,0.4c2.7,0.3,5.5,0.5,8.2,0.8
	c1.3,0.1,2.4,0.7,3.3,1.7c0.4,0.5,0.5,1,0.4,1.6c-0.4,3.5-0.8,7-1.2,10.5c-0.4,3-2.6,5.4-5.4,6c-3,0.6-5.9-0.6-7.6-3.2
	c-2.9-4.4-5.9-8.7-8.9-13c-0.5-0.8-1.1-1.5-1.8-2.2c-0.3-0.3-0.6-0.7-0.8-1.1c-0.2-0.5-0.1-0.8,0.4-1.1c0.4-0.2,0.7-0.3,1.1-0.3
	c1.7,0,3.2,0.3,4.4,1.7C8,26.6,9.1,27.7,10.2,29z"/>
<path fill="#FF0000" d="M16.9,21.8c0-0.9,0-1.7,0-2.6c0-0.3,0.2-0.4,0.4-0.5c2.1-1.7,3.1-4,3.1-6.7c-0.1-4-3.5-7.6-7.4-7.9c-4.4-0.4-8.4,2.6-9,6.7
	c-0.6,3.7,1,7,4.3,8.8c0.3,0.2,0.5,0.4,0.5,0.7c0,0.5,0,1.1,0,1.6c0,0.5-0.1,0.5-0.5,0.3c-3.3-1.4-5.4-3.7-6.4-7.1
	c-1.9-7,3.5-13.8,10.8-13.5c4.7,0.1,8.9,3.6,10,8.3c1.1,4.6-1.1,9.5-5.2,11.7C17.1,21.7,17.1,21.7,16.9,21.8z"/>
</svg>
