<?xml version="1.0" encoding="utf-8"?>
<!-- Generator: Adobe Illustrator 22.1.0, SVG Export Plug-In . SVG Version: 6.00 Build 0)  -->
<svg version="1.2" baseProfile="tiny" id="Layer_1" xmlns="http://www.w3.org/2000/svg" xmlns:xlink="http://www.w3.org/1999/xlink"
	 x="0px" y="0px" width="45px" height="45px" viewBox="0 0 45 45" xml:space="preserve">
<path id="XMLID_6_" fill="#0B1320" d="M40.9,28h-9.2V17.9h9.2c1.1,0,1.9-0.9,1.9-1.9s-0.9-1.9-1.9-1.9h-9.2V7.5
	C25.8,6.7,21,7.9,17.4,11.2s-7.9,5.4-12.8,6.2V20c-1.4,0.2-2.4,1.4-2.4,2.8s1.1,2.6,2.4,2.8v1.9H4.5c5.7,1,10.4,3.2,14,6.5
	s8,4.4,13.2,3.3v-5.5h9.2c1.1,0,1.9-0.9,1.9-1.9C42.8,28.8,42,28,40.9,28z M18.7,30.5l2.3-7.1l-5.6-0.1L24,13.1l-2.1,7.1l5.9,0.1
	L18.7,30.5z"/>
</svg>
