<?xml version="1.0" encoding="utf-8"?>
<!-- Generator: Adobe Illustrator 19.0.0, SVG Export Plug-In . SVG Version: 6.00 Build 0)  -->
<svg version="1.2" baseProfile="tiny" id="Layer_1" xmlns="http://www.w3.org/2000/svg" xmlns:xlink="http://www.w3.org/1999/xlink"
	 x="0px" y="0px" viewBox="0 0 160 470" xml:space="preserve">
<g id="XMLID_1_">
	<path id="XMLID_7_" fill-rule="evenodd" fill="#010916" d="M72.3,14.9c-1.8,2.2-15.2,20.7-19.5,32c-4.3,11.2-11.2,28.5-13.4,46.9
		c-2.3,18.3-3.5,32.9-3.9,43c-0.5,10.1-0.2,73.5,0,83.3c0.2,9.9,2.9,202.3,2.9,202.3h3.2c0,0.1,0,0.1,0,0.2v34.1
		c0,2.6,2.1,4.7,4.7,4.7h10.7c2.6,0,4.7-2.1,4.7-4.7v-4h37.2v3.7c0,2.6,2.1,4.7,4.7,4.7h10.7c2.6,0,4.7-2.1,4.7-4.7v-33.6h2.7
		c0,0,2.7-186.9,3.2-204.2c0.6-17.3,0.2-73.4,0-82.9c-0.2-9.6-3.4-38.6-4.6-45.3c-1.2-6.7-9-34.3-13.3-43.6
		c-4.3-9.3-13.9-26.1-18.2-31.1c-4.3-4.9-4.6-7.1-8.4-7.1C76.2,8.6,74.1,12.7,72.3,14.9z"/>
	
		<polyline id="XMLID_2_" fill-rule="evenodd" fill="none" stroke="#222C3D" stroke-width="2" stroke-linecap="round" stroke-linejoin="round" stroke-miterlimit="10" points="
		42.4,422.8 61.3,422.8 61.3,452.2 	"/>
	
		<polyline id="XMLID_3_" fill-rule="evenodd" fill="none" stroke="#222C3D" stroke-width="2" stroke-linecap="round" stroke-linejoin="round" stroke-miterlimit="10" points="
		118.3,422.8 98.4,422.8 98.4,452.2 	"/>
	
		<path id="XMLID_5_" fill="none" stroke="#465C7E" stroke-width="2" stroke-linecap="round" stroke-linejoin="round" stroke-miterlimit="10" d="
		M72.3,14.9c-1.8,2.2-15.2,20.7-19.5,32c-4.3,11.2-11.2,28.5-13.4,46.9c-2.3,18.3-3.5,32.9-3.9,43c-0.5,10.1-0.2,73.5,0,83.3
		c0.2,9.9,2.9,202.3,2.9,202.3h3.2c0,0.1,0,0.5,0,0.6l0,33.7c0,2.6,2.1,4.7,4.7,4.7h10.7c2.6,0,4.7-2.1,4.7-4.7v-4h37.2v3.7
		c0,2.6,2.1,4.7,4.7,4.7h10.7c2.6,0,4.7-2.1,4.7-4.7v-33.6h2.7c0,0,2.7-186.9,3.2-204.2c0.6-17.3,0.2-73.4,0-82.9
		c-0.2-9.6-3.4-38.6-4.6-45.3c-1.2-6.7-9-34.3-13.3-43.6c-4.3-9.3-13.9-26.1-18.2-31.1c-4.3-4.9-4.6-7.1-8.4-7.1
		C76.2,8.6,74.1,12.7,72.3,14.9z"/>
	<polygon id="XMLID_4_" fill="none" stroke="#222C3D" stroke-width="2" stroke-miterlimit="10" points="46.2,282.4 113,282.4 
		115.3,211.9 104.4,200.3 55.8,200.3 44.2,211.9 	"/>
</g>
</svg>
