<?xml version="1.0" encoding="UTF-8" standalone="no"?>
<svg xmlns:rdf="http://www.w3.org/1999/02/22-rdf-syntax-ns#" xmlns="http://www.w3.org/2000/svg" xml:space="preserve" height="50.7" viewBox="0 0 50.698997 50.699999" width="50.699" version="1.1" enable-background="new 0 0 77 77.005" y="0px" x="0px" xmlns:cc="http://creativecommons.org/ns#" xmlns:dc="http://purl.org/dc/elements/1.1/">
<rect height="77.005" width="77" y="-13.149" x="-13.149" fill="none"/>
<path id="bgColor00" d="m26.603 0h-2.506v10.027h2.506v-10.027zm-7.83 11.454-5.014-8.685-2.171 1.253 5.014 8.685 2.171-1.253zm-6.068 5.148-8.68-5.016-1.254 2.171 8.681 5.016 1.253-2.171zm26.402-12.58-2.171-1.253-5.011 8.685 2.17 1.253 5.012-8.685zm0.139 14.751 8.686-5.016-1.254-2.171-8.684 5.016 1.252 2.171zm-13.896-4.848c-6.302 0-11.425 5.124-11.425 11.423 0 6.301 5.123 11.427 11.425 11.427s11.425-5.125 11.425-11.427c0-6.299-5.123-11.423-11.425-11.423zm-6.132 5.305 1.771 1.771-0.747 0.906-2.09-1.388 1.066-1.289zm4.348 14.493c-3.979-0.81-6.865-4.351-6.865-8.419 0-1.39 0.322-2.716 0.957-3.944l2.226 1.155c-0.448 0.867-0.677 1.806-0.677 2.79 0 2.881 2.044 5.389 4.862 5.962l-0.503 2.456zm1.724 0.171-0.628-0.022 0.171-2.502 0.457 0.019 0.938-0.069 0.358 2.481-1.296 0.093zm2.249-0.294-0.669-2.416 0.783-0.271 0.988 2.306-1.102 0.381zm-3.442 17.1h2.506v-10.028h-2.506v10.028zm-14.069-26.605h-10.028v2.506h10.027v-2.506zm27.964 9.999 8.684 5.016 1.254-2.171-8.686-5.016-1.252 2.171zm-6.067 5.152 5.014 8.685 2.17-1.253-5.014-8.685-2.17 1.253zm8.747-15.151v2.506h10.027v-2.506h-10.027zm-29.217 7.828-8.686 5.016 1.254 2.171 8.684-5.016-1.252-2.171zm0.133 14.751 2.171 1.253 5.012-8.681-2.171-1.253-5.012 8.681z"/>
</svg>
