<?xml version="1.0" encoding="utf-8"?>
<!-- Generator: Adobe Illustrator 28.1.0, SVG Export Plug-In . SVG Version: 6.00 Build 0)  -->
<svg version="1.2" baseProfile="tiny" id="Layer_2" xmlns="http://www.w3.org/2000/svg" xmlns:xlink="http://www.w3.org/1999/xlink"
	 x="0px" y="0px" viewBox="0 0 370 280" overflow="visible" xml:space="preserve">
<g>
	<path fill="none" stroke="#C3D2E7" stroke-miterlimit="10" d="M1.9,2v276h223.2V2H1.9z M192.1,71.9h10.2v12h-10.2V71.9z M18,56
		V33.3c0-0.2,0.1-1.2,0.9-1.9c0.6-0.6,1.3-0.7,1.6-0.8l2.5-0.5V19.2c0-4.9,4-8.9,8.9-8.9s8.9,4,8.9,8.9v9.3h3c0.2,0,0.8,0,1.4,0.5
		c0.7,0.6,0.6,1.5,0.6,1.6V56v25.4c0,0.1,0.1,1-0.6,1.6c-0.6,0.5-1.2,0.5-1.4,0.5h-3v9.3c0,4.9-4,8.9-8.9,8.9s-8.9-4-8.9-8.9V81.9
		l-2.5-0.5c-0.3,0-1-0.2-1.6-0.8C18.1,80,18,79,18,78.8V56z M60.9,264.5H14v-50.3l0,0v-50.3h46.9v50.3l0,0V264.5z M106.9,38.9V48
		h-8.7v-9.1H106.9z M98.2,33.1V24h8.7v9.1H98.2z M106.9,53.7v9.1h-8.7v-9.1H106.9z M106.9,68.6v9.1h-8.7v-9.1H106.9z M106.9,83.5
		v9.1h-8.7v-9.1H106.9z M106.9,98.3v9.1h-8.7v-9.1H106.9z M114.5,260.4c0,4.3-3.5,7.8-7.8,7.8h-0.1c-4.3,0-7.8-3.5-7.8-7.8v-34.3
		c0-4.3,3.5-7.8,7.8-7.8h0.1c4.3,0,7.8,3.5,7.8,7.8V260.4z M125.8,107.5h-8.7v-9.1h8.7V107.5z M125.8,92.6h-8.7v-9.1h8.7V92.6z
		 M125.8,77.7h-8.7v-9.1h8.7V77.7z M125.8,62.9h-8.7v-9.1h8.7V62.9z M125.8,48h-8.7v-9.1h8.7V48z M125.8,33.1h-8.7V24h8.7V33.1z
		 M181.3,267.7h-35.6v-47.5h35.6V267.7z M170.1,112.9v97.2h-18.7v-97.2H170.1z M168.7,33.2v-9h9v9H168.7z M188.8,23.1h-124V2.4h124
		V23.1z M197.2,259.9c-3.2,0-5.9-2.6-5.9-5.9c0-3.2,2.6-5.9,5.9-5.9c3.2,0,5.9,2.6,5.9,5.9C203.1,257.2,200.5,259.9,197.2,259.9z
		 M192.1,242.2v-12h10.2v12H192.1z M197.2,205.3c-3.2,0-5.9-2.6-5.9-5.9s2.6-5.9,5.9-5.9c3.2,0,5.9,2.6,5.9,5.9
		S200.5,205.3,197.2,205.3z M192.1,187.7v-12h10.2v12H192.1z M197.2,150.5c-3.2,0-5.9-2.6-5.9-5.9s2.6-5.9,5.9-5.9
		c3.2,0,5.9,2.6,5.9,5.9S200.5,150.5,197.2,150.5z M192.1,132.8v-12h10.2v12H192.1z M197.2,101.5c-3.2,0-5.9-2.6-5.9-5.9
		s2.6-5.9,5.9-5.9c3.2,0,5.9,2.6,5.9,5.9S200.5,101.5,197.2,101.5z M212.2,259.9c-3.2,0-5.9-2.6-5.9-5.9c0-3.2,2.6-5.9,5.9-5.9
		c3.2,0,5.9,2.6,5.9,5.9C218.1,257.2,215.5,259.9,212.2,259.9z M207.1,242.1v-12h10.2v12H207.1z M212.2,205.3
		c-3.2,0-5.9-2.6-5.9-5.9s2.6-5.9,5.9-5.9c3.2,0,5.9,2.6,5.9,5.9S215.5,205.3,212.2,205.3z M207.1,187.5v-12h10.2v12H207.1z
		 M212.2,150.5c-3.2,0-5.9-2.6-5.9-5.9s2.6-5.9,5.9-5.9c3.2,0,5.9,2.6,5.9,5.9S215.5,150.5,212.2,150.5z M207.1,132.7v-12h10.2v12
		H207.1z M212.2,101.5c-3.2,0-5.9-2.6-5.9-5.9s2.6-5.9,5.9-5.9c3.2,0,5.9,2.6,5.9,5.9S215.5,101.5,212.2,101.5z M207.1,83.7v-12
		h10.2v12H207.1z M219.2,53.7h-24.3V25.5h24.3V53.7z"/>
	<polygon fill="none" stroke="#C3D2E7" stroke-miterlimit="10" points="31.8,11.6 25.2,15.4 25.2,22.9 31.8,26.8 38.4,22.9 
		38.4,15.4 	"/>
	<circle fill="none" stroke="#C3D2E7" stroke-miterlimit="10" cx="31.9" cy="19.2" r="3.2"/>
	<circle fill="none" stroke="#C3D2E7" stroke-miterlimit="10" cx="31.9" cy="92.9" r="3.2"/>
	<polygon fill="none" stroke="#C3D2E7" stroke-miterlimit="10" points="31.8,100.4 25.2,96.6 25.2,89.1 31.8,85.3 38.4,89.1 
		38.4,96.6 	"/>
	<path fill="none" stroke="#C3D2E7" stroke-miterlimit="10" d="M41.6,33.4c-0.7-0.8-1.8-1.1-2.9-0.8l-14.5,3.1
		c-0.3,0.1-1.3,0.4-2,1.3c-0.7,0.9-0.7,1.8-0.7,2.1v17v17c0,0.3,0,1.2,0.7,2.1c0.7,1,1.7,1.3,2,1.3l14.5,3.1c1.1,0.3,2.2,0,2.9-0.8
		c0.6-0.7,0.7-1.6,0.6-1.9V56V35.2C42.2,35,42.2,34.1,41.6,33.4z M27.3,71.9c-1.4,0-2.5-1.1-2.5-2.5c0-1.4,1.1-2.5,2.5-2.5
		c1.4,0,2.5,1.1,2.5,2.5C29.8,70.8,28.7,71.9,27.3,71.9z M27.3,63.4c-1.4,0-2.5-1.1-2.5-2.5c0-1.4,1.1-2.5,2.5-2.5
		c1.4,0,2.5,1.1,2.5,2.5C29.8,62.3,28.7,63.4,27.3,63.4z M27.3,54.9c-1.4,0-2.5-1.1-2.5-2.5c0-1.4,1.1-2.5,2.5-2.5
		c1.4,0,2.5,1.1,2.5,2.5C29.8,53.8,28.7,54.9,27.3,54.9z M27.3,46.3c-1.4,0-2.5-1.1-2.5-2.5c0-1.4,1.1-2.5,2.5-2.5
		c1.4,0,2.5,1.1,2.5,2.5C29.8,45.2,28.7,46.3,27.3,46.3z M36.3,75.6c-1.4,0-2.5-1.1-2.5-2.5c0-1.4,1.1-2.5,2.5-2.5
		c1.4,0,2.5,1.1,2.5,2.5C38.8,74.5,37.7,75.6,36.3,75.6z M33.8,56c0-1.4,1.1-2.5,2.5-2.5c1.4,0,2.5,1.1,2.5,2.5s-1.1,2.5-2.5,2.5
		C34.9,58.5,33.8,57.4,33.8,56z M36.3,67.1c-1.4,0-2.5-1.1-2.5-2.5c0-1.4,1.1-2.5,2.5-2.5c1.4,0,2.5,1.1,2.5,2.5
		C38.8,66,37.7,67.1,36.3,67.1z M36.3,50c-1.4,0-2.5-1.1-2.5-2.5s1.1-2.5,2.5-2.5c1.4,0,2.5,1.1,2.5,2.5S37.7,50,36.3,50z
		 M36.3,41.4c-1.4,0-2.5-1.1-2.5-2.5s1.1-2.5,2.5-2.5c1.4,0,2.5,1.1,2.5,2.5S37.7,41.4,36.3,41.4z"/>
	<line fill="none" stroke="#C3D2E7" stroke-miterlimit="10" x1="64.1" y1="2" x2="64.1" y2="278"/>
	<path fill="none" stroke="#C3D2E7" stroke-miterlimit="10" d="M44.7,171.6v-3.2H18v41.3h26.6v-3.4h-4v-34.7H44.7z M21.3,209.2h-2.9
		V203h2.9V209.2z M21.3,175h-2.9v-6.1h2.9V175z"/>
	<rect x="14" y="182.7" stroke="#C3D2E7" stroke-miterlimit="10" width="10.6" height="12.7"/>
	<rect x="68" y="6" fill="none" stroke="#C3D2E7" stroke-miterlimit="10" width="117.5" height="12"/>
	<path fill="none" stroke="#C3D2E7" stroke-miterlimit="10" d="M106.8,261.5h-0.5c-3.7,0-6.7-3-6.7-6.7v-23c0-3.7,3-6.7,6.7-6.7h0.5
		c3.7,0,6.7,3,6.7,6.7v23C113.6,258.5,110.6,261.5,106.8,261.5z"/>
	<line fill="none" stroke="#C3D2E7" stroke-miterlimit="10" x1="189.5" y1="2" x2="189.5" y2="278"/>
	<path fill="none" stroke="#C3D2E7" stroke-miterlimit="10" d="M151.4,173.5c-5.5-3.2-9.2-9.2-9.2-16s3.7-12.8,9.2-16"/>
	<path fill="none" stroke="#C3D2E7" stroke-miterlimit="10" d="M170.1,141.4c5.5,3.2,9.2,9.2,9.2,16s-3.7,12.8-9.2,16"/>
	<line fill="none" stroke="#C3D2E7" stroke-miterlimit="10" x1="189.5" y1="2" x2="189.5" y2="278"/>
	<path fill="none" stroke="#C3D2E7" stroke-miterlimit="10" d="M44.7,221.9v-3.2H18V260h26.6v-3.4h-4v-34.7H44.7z M21.3,259.5h-2.9
		v-6.1h2.9V259.5z M21.3,225.4h-2.9v-6.1h2.9V225.4z"/>
	<rect x="14" y="233" stroke="#C3D2E7" stroke-miterlimit="10" width="10.6" height="12.7"/>
	<rect x="189.5" y="2" fill="none" stroke="#C3D2E7" stroke-miterlimit="10" width="35.6" height="276"/>
	<line fill="none" stroke="#C3D2E7" stroke-miterlimit="10" x1="14" y1="214.1" x2="60.9" y2="214.1"/>
	<line fill="none" stroke="#C3D2E7" stroke-miterlimit="10" x1="44.7" y1="171.6" x2="44.7" y2="206.3"/>
	<line fill="none" stroke="#C3D2E7" stroke-miterlimit="10" x1="44.7" y1="221.9" x2="44.7" y2="256.7"/>
</g>
<g>
	<path fill="none" stroke="#C3D2E7" stroke-miterlimit="10" d="M225.1,2v276h35.8V2H225.1z M245,28.1h4.9v4.9H245V28.1z M245,34.9
		h4.9v4.9H245V34.9z M245,41.6h4.9v4.9H245V41.6z M245,48.3h4.9v4.9H245V48.3z M245,55h4.9v4.9H245V55z M245,61.7h4.9v4.9H245V61.7z
		 M245,68.4h4.9v4.9H245V68.4z M245,75.1h4.9V80H245V75.1z M244.9,85.4h7.4v7.4h-7.4V85.4z M248.5,94.3c3,0,5.4,2.4,5.4,5.4
		c0,3-2.4,5.4-5.4,5.4c-3,0-5.4-2.4-5.4-5.4C243.2,96.7,245.6,94.3,248.5,94.3z M252.5,106.8v7.4h-7.4v-7.4H252.5z M229.1,85.4h7.4
		v7.4h-7.4V85.4z M232.7,274.7c-3,0-5.4-2.4-5.4-5.4s2.4-5.4,5.4-5.4c3,0,5.4,2.4,5.4,5.4S235.6,274.7,232.7,274.7z M229.1,262.6
		v-7.4h7.4v7.4H229.1z M232.7,253.7c-3,0-5.4-2.4-5.4-5.4c0-3,2.4-5.4,5.4-5.4c3,0,5.4,2.4,5.4,5.4
		C238,251.3,235.6,253.7,232.7,253.7z M229.1,241.6v-7.4h7.4v7.4H229.1z M232.7,232.3c-3,0-5.4-2.4-5.4-5.4c0-3,2.4-5.4,5.4-5.4
		c3,0,5.4,2.4,5.4,5.4C238,229.9,235.6,232.3,232.7,232.3z M229.1,220.2v-7.4h7.4v7.4H229.1z M232.7,201.4c-3,0-5.4-2.4-5.4-5.4
		c0-3,2.4-5.4,5.4-5.4c3,0,5.4,2.4,5.4,5.4C238,199,235.6,201.4,232.7,201.4z M229.1,189.3v-7.4h7.4v7.4H229.1z M232.7,180.1
		c-3,0-5.4-2.4-5.4-5.4c0-3,2.4-5.4,5.4-5.4c3,0,5.4,2.4,5.4,5.4C238,177.7,235.6,180.1,232.7,180.1z M229.1,168v-7.4h7.4v7.4H229.1
		z M232.7,147.6c-3,0-5.4-2.4-5.4-5.4c0-3,2.4-5.4,5.4-5.4c3,0,5.4,2.4,5.4,5.4C238,145.2,235.6,147.6,232.7,147.6z M229.1,135.5
		v-7.4h7.4v7.4H229.1z M232.7,126.3c-3,0-5.4-2.4-5.4-5.4c0-3,2.4-5.4,5.4-5.4c3,0,5.4,2.4,5.4,5.4
		C238,123.9,235.6,126.3,232.7,126.3z M229.1,114.2v-7.4h7.4v7.4H229.1z M232.7,105c-3,0-5.4-2.4-5.4-5.4c0-3,2.4-5.4,5.4-5.4
		c3,0,5.4,2.4,5.4,5.4C238,102.6,235.6,105,232.7,105z M240.3,80h-4.9v-4.9h4.9V80z M240.3,73.3h-4.9v-4.9h4.9V73.3z M240.3,66.6
		h-4.9v-4.9h4.9V66.6z M240.3,59.9h-4.9V55h4.9V59.9z M240.3,53.2h-4.9v-4.9h4.9V53.2z M240.3,46.5h-4.9v-4.9h4.9V46.5z M240.3,39.8
		h-4.9v-4.9h4.9V39.8z M240.3,33.1h-4.9v-4.9h4.9V33.1z M248.5,274.7c-3,0-5.4-2.4-5.4-5.4s2.4-5.4,5.4-5.4c3,0,5.4,2.4,5.4,5.4
		S251.5,274.7,248.5,274.7z M244.9,262.6v-7.4h7.4v7.4H244.9z M248.5,253.5c-3,0-5.4-2.4-5.4-5.4c0-3,2.4-5.4,5.4-5.4
		c3,0,5.4,2.4,5.4,5.4C253.9,251.1,251.5,253.5,248.5,253.5z M244.9,241.4v-7.4h7.4v7.4H244.9z M248.5,232.5c-3,0-5.4-2.4-5.4-5.4
		c0-3,2.4-5.4,5.4-5.4c3,0,5.4,2.4,5.4,5.4C253.9,230.1,251.5,232.5,248.5,232.5z M244.9,220.4V213h7.4v7.4H244.9z M248.5,201.4
		c-3,0-5.4-2.4-5.4-5.4c0-3,2.4-5.4,5.4-5.4c3,0,5.4,2.4,5.4,5.4C253.9,199,251.5,201.4,248.5,201.4z M244.9,189.3v-7.4h7.4v7.4
		H244.9z M248.5,180.1c-3,0-5.4-2.4-5.4-5.4c0-3,2.4-5.4,5.4-5.4c3,0,5.4,2.4,5.4,5.4C253.9,177.7,251.5,180.1,248.5,180.1z
		 M244.9,168v-7.4h7.4v7.4H244.9z M248.5,147.6c-3,0-5.4-2.4-5.4-5.4c0-3,2.4-5.4,5.4-5.4c3,0,5.4,2.4,5.4,5.4
		C253.9,145.2,251.5,147.6,248.5,147.6z M244.9,135.5v-7.4h7.4v7.4H244.9z M248.7,126.3c-3,0-5.4-2.4-5.4-5.4c0-3,2.4-5.4,5.4-5.4
		c3,0,5.4,2.4,5.4,5.4C254,123.9,251.6,126.3,248.7,126.3z"/>
	<rect x="225.1" y="7.5" fill="none" stroke="#C3D2E7" stroke-miterlimit="10" width="35.8" height="11.9"/>
	<rect x="231.5" y="26.3" fill="none" stroke="#C3D2E7" stroke-miterlimit="10" width="21.8" height="55.8"/>
	<line fill="none" stroke="#C3D2E7" stroke-miterlimit="10" x1="225.1" y1="159.6" x2="260.8" y2="159.6"/>
	<line fill="none" stroke="#C3D2E7" stroke-miterlimit="10" x1="225.1" y1="211.9" x2="260.8" y2="211.9"/>
	<line fill="none" stroke="#C3D2E7" stroke-miterlimit="10" x1="225.1" y1="84.5" x2="260.8" y2="84.5"/>
	<rect x="228.7" y="97.4" fill="none" stroke="#C3D2E7" stroke-miterlimit="10" width="5.2" height="5.2"/>
	<rect x="244.5" y="97.4" fill="none" stroke="#C3D2E7" stroke-miterlimit="10" width="5.2" height="5.2"/>
	<rect x="228.7" y="118.7" fill="none" stroke="#C3D2E7" stroke-miterlimit="10" width="5.2" height="5.2"/>
	<rect x="244.7" y="118.7" fill="none" stroke="#C3D2E7" stroke-miterlimit="10" width="5.2" height="5.2"/>
	<rect x="228.7" y="140" fill="none" stroke="#C3D2E7" stroke-miterlimit="10" width="5.2" height="5.2"/>
	<rect x="244.5" y="140" fill="none" stroke="#C3D2E7" stroke-miterlimit="10" width="5.2" height="5.2"/>
	<rect x="228.7" y="172.5" fill="none" stroke="#C3D2E7" stroke-miterlimit="10" width="5.2" height="5.2"/>
	<rect x="244.5" y="172.5" fill="none" stroke="#C3D2E7" stroke-miterlimit="10" width="5.2" height="5.2"/>
	<rect x="228.7" y="193.8" fill="none" stroke="#C3D2E7" stroke-miterlimit="10" width="5.2" height="5.2"/>
	<rect x="244.5" y="193.8" fill="none" stroke="#C3D2E7" stroke-miterlimit="10" width="5.2" height="5.2"/>
	<rect x="228.7" y="224.7" fill="none" stroke="#C3D2E7" stroke-miterlimit="10" width="5.2" height="5.2"/>
	<rect x="244.5" y="225" fill="none" stroke="#C3D2E7" stroke-miterlimit="10" width="5.2" height="5.2"/>
	<rect x="228.7" y="246.1" fill="none" stroke="#C3D2E7" stroke-miterlimit="10" width="5.2" height="5.2"/>
	<rect x="244.5" y="245.9" fill="none" stroke="#C3D2E7" stroke-miterlimit="10" width="5.2" height="5.2"/>
	<rect x="228.7" y="267.1" fill="none" stroke="#C3D2E7" stroke-miterlimit="10" width="5.2" height="5.2"/>
	<rect x="244.5" y="267.1" fill="none" stroke="#C3D2E7" stroke-miterlimit="10" width="5.2" height="5.2"/>
</g>
<g>
	<path fill="none" stroke="#C3D2E7" stroke-miterlimit="10" d="M260.8,2v276h35.8V2H260.8z M280.8,28.1h4.9v4.9h-4.9V28.1z
		 M280.8,34.9h4.9v4.9h-4.9V34.9z M280.8,41.6h4.9v4.9h-4.9V41.6z M280.8,48.3h4.9v4.9h-4.9V48.3z M280.8,55h4.9v4.9h-4.9V55z
		 M280.8,61.7h4.9v4.9h-4.9V61.7z M280.8,68.4h4.9v4.9h-4.9V68.4z M280.8,75.1h4.9V80h-4.9V75.1z M280.7,85.4h7.4v7.4h-7.4V85.4z
		 M284.3,94.3c3,0,5.4,2.4,5.4,5.4c0,3-2.4,5.4-5.4,5.4c-3,0-5.4-2.4-5.4-5.4C278.9,96.7,281.3,94.3,284.3,94.3z M288.3,106.8v7.4
		h-7.4v-7.4H288.3z M264.8,85.4h7.4v7.4h-7.4V85.4z M268.4,274.7c-3,0-5.4-2.4-5.4-5.4s2.4-5.4,5.4-5.4c3,0,5.4,2.4,5.4,5.4
		S271.4,274.7,268.4,274.7z M264.8,262.6v-7.4h7.4v7.4H264.8z M268.4,253.7c-3,0-5.4-2.4-5.4-5.4c0-3,2.4-5.4,5.4-5.4
		c3,0,5.4,2.4,5.4,5.4C273.8,251.3,271.4,253.7,268.4,253.7z M264.8,241.6v-7.4h7.4v7.4H264.8z M268.4,232.3c-3,0-5.4-2.4-5.4-5.4
		c0-3,2.4-5.4,5.4-5.4c3,0,5.4,2.4,5.4,5.4C273.8,229.9,271.4,232.3,268.4,232.3z M264.8,220.2v-7.4h7.4v7.4H264.8z M268.4,201.4
		c-3,0-5.4-2.4-5.4-5.4c0-3,2.4-5.4,5.4-5.4c3,0,5.4,2.4,5.4,5.4C273.8,199,271.4,201.4,268.4,201.4z M264.8,189.3v-7.4h7.4v7.4
		H264.8z M268.4,180.1c-3,0-5.4-2.4-5.4-5.4c0-3,2.4-5.4,5.4-5.4c3,0,5.4,2.4,5.4,5.4C273.8,177.7,271.4,180.1,268.4,180.1z
		 M264.8,168v-7.4h7.4v7.4H264.8z M268.4,147.6c-3,0-5.4-2.4-5.4-5.4c0-3,2.4-5.4,5.4-5.4c3,0,5.4,2.4,5.4,5.4
		C273.8,145.2,271.4,147.6,268.4,147.6z M264.8,135.5v-7.4h7.4v7.4H264.8z M268.4,126.3c-3,0-5.4-2.4-5.4-5.4c0-3,2.4-5.4,5.4-5.4
		c3,0,5.4,2.4,5.4,5.4C273.8,123.9,271.4,126.3,268.4,126.3z M264.8,114.2v-7.4h7.4v7.4H264.8z M268.4,105c-3,0-5.4-2.4-5.4-5.4
		c0-3,2.4-5.4,5.4-5.4c3,0,5.4,2.4,5.4,5.4C273.8,102.6,271.4,105,268.4,105z M276,80h-4.9v-4.9h4.9V80z M276,73.3h-4.9v-4.9h4.9
		V73.3z M276,66.6h-4.9v-4.9h4.9V66.6z M276,59.9h-4.9V55h4.9V59.9z M276,53.2h-4.9v-4.9h4.9V53.2z M276,46.5h-4.9v-4.9h4.9V46.5z
		 M276,39.8h-4.9v-4.9h4.9V39.8z M276,33.1h-4.9v-4.9h4.9V33.1z M284.3,274.7c-3,0-5.4-2.4-5.4-5.4s2.4-5.4,5.4-5.4
		c3,0,5.4,2.4,5.4,5.4S287.3,274.7,284.3,274.7z M280.7,262.6v-7.4h7.4v7.4H280.7z M284.3,253.5c-3,0-5.4-2.4-5.4-5.4
		c0-3,2.4-5.4,5.4-5.4c3,0,5.4,2.4,5.4,5.4C289.7,251.1,287.3,253.5,284.3,253.5z M280.7,241.4v-7.4h7.4v7.4H280.7z M284.3,232.5
		c-3,0-5.4-2.4-5.4-5.4c0-3,2.4-5.4,5.4-5.4c3,0,5.4,2.4,5.4,5.4C289.7,230.1,287.3,232.5,284.3,232.5z M280.7,220.4V213h7.4v7.4
		H280.7z M284.3,201.4c-3,0-5.4-2.4-5.4-5.4c0-3,2.4-5.4,5.4-5.4c3,0,5.4,2.4,5.4,5.4C289.7,199,287.3,201.4,284.3,201.4z
		 M280.7,189.3v-7.4h7.4v7.4H280.7z M284.3,180.1c-3,0-5.4-2.4-5.4-5.4c0-3,2.4-5.4,5.4-5.4c3,0,5.4,2.4,5.4,5.4
		C289.7,177.7,287.3,180.1,284.3,180.1z M280.7,168v-7.4h7.4v7.4H280.7z M284.3,147.6c-3,0-5.4-2.4-5.4-5.4c0-3,2.4-5.4,5.4-5.4
		c3,0,5.4,2.4,5.4,5.4C289.7,145.2,287.3,147.6,284.3,147.6z M280.7,135.5v-7.4h7.4v7.4H280.7z M284.4,126.3c-3,0-5.4-2.4-5.4-5.4
		c0-3,2.4-5.4,5.4-5.4c3,0,5.4,2.4,5.4,5.4C289.8,123.9,287.4,126.3,284.4,126.3z"/>
	<rect x="260.8" y="7.5" fill="none" stroke="#C3D2E7" stroke-miterlimit="10" width="35.8" height="11.9"/>
	<rect x="267.2" y="26.3" fill="none" stroke="#C3D2E7" stroke-miterlimit="10" width="21.8" height="55.8"/>
	<line fill="none" stroke="#C3D2E7" stroke-miterlimit="10" x1="260.8" y1="159.6" x2="296.6" y2="159.6"/>
	<line fill="none" stroke="#C3D2E7" stroke-miterlimit="10" x1="260.8" y1="211.9" x2="296.6" y2="211.9"/>
	<line fill="none" stroke="#C3D2E7" stroke-miterlimit="10" x1="260.8" y1="84.5" x2="296.6" y2="84.5"/>
	<rect x="264.4" y="97.4" fill="none" stroke="#C3D2E7" stroke-miterlimit="10" width="5.2" height="5.2"/>
	<rect x="280.3" y="97.4" fill="none" stroke="#C3D2E7" stroke-miterlimit="10" width="5.2" height="5.2"/>
	<rect x="264.4" y="118.7" fill="none" stroke="#C3D2E7" stroke-miterlimit="10" width="5.2" height="5.2"/>
	<rect x="280.4" y="118.7" fill="none" stroke="#C3D2E7" stroke-miterlimit="10" width="5.2" height="5.2"/>
	<rect x="264.4" y="140" fill="none" stroke="#C3D2E7" stroke-miterlimit="10" width="5.2" height="5.2"/>
	<rect x="280.3" y="140" fill="none" stroke="#C3D2E7" stroke-miterlimit="10" width="5.2" height="5.2"/>
	<rect x="264.4" y="172.5" fill="none" stroke="#C3D2E7" stroke-miterlimit="10" width="5.2" height="5.2"/>
	<rect x="280.3" y="172.5" fill="none" stroke="#C3D2E7" stroke-miterlimit="10" width="5.2" height="5.2"/>
	<rect x="264.4" y="193.8" fill="none" stroke="#C3D2E7" stroke-miterlimit="10" width="5.2" height="5.2"/>
	<rect x="280.3" y="193.8" fill="none" stroke="#C3D2E7" stroke-miterlimit="10" width="5.2" height="5.2"/>
	<rect x="264.4" y="224.7" fill="none" stroke="#C3D2E7" stroke-miterlimit="10" width="5.2" height="5.2"/>
	<rect x="280.3" y="225" fill="none" stroke="#C3D2E7" stroke-miterlimit="10" width="5.2" height="5.2"/>
	<rect x="264.4" y="246.1" fill="none" stroke="#C3D2E7" stroke-miterlimit="10" width="5.2" height="5.2"/>
	<rect x="280.3" y="245.9" fill="none" stroke="#C3D2E7" stroke-miterlimit="10" width="5.2" height="5.2"/>
	<rect x="264.4" y="267.1" fill="none" stroke="#C3D2E7" stroke-miterlimit="10" width="5.2" height="5.2"/>
	<rect x="280.3" y="267.1" fill="none" stroke="#C3D2E7" stroke-miterlimit="10" width="5.2" height="5.2"/>
</g>
<g>
	<path fill="none" stroke="#C3D2E7" stroke-miterlimit="10" d="M296.6,2v276h35.8V2H296.6z M316.6,28.1h4.9v4.9h-4.9V28.1z
		 M316.6,34.9h4.9v4.9h-4.9V34.9z M316.6,41.6h4.9v4.9h-4.9V41.6z M316.6,48.3h4.9v4.9h-4.9V48.3z M316.6,55h4.9v4.9h-4.9V55z
		 M316.6,61.7h4.9v4.9h-4.9V61.7z M316.6,68.4h4.9v4.9h-4.9V68.4z M316.6,75.1h4.9V80h-4.9V75.1z M316.5,85.4h7.4v7.4h-7.4V85.4z
		 M320.1,94.3c3,0,5.4,2.4,5.4,5.4c0,3-2.4,5.4-5.4,5.4c-3,0-5.4-2.4-5.4-5.4C314.7,96.7,317.1,94.3,320.1,94.3z M324,106.8v7.4
		h-7.4v-7.4H324z M300.6,85.4h7.4v7.4h-7.4V85.4z M304.2,274.7c-3,0-5.4-2.4-5.4-5.4s2.4-5.4,5.4-5.4c3,0,5.4,2.4,5.4,5.4
		S307.1,274.7,304.2,274.7z M300.6,262.6v-7.4h7.4v7.4H300.6z M304.2,253.7c-3,0-5.4-2.4-5.4-5.4c0-3,2.4-5.4,5.4-5.4
		c3,0,5.4,2.4,5.4,5.4C309.5,251.3,307.1,253.7,304.2,253.7z M300.6,241.6v-7.4h7.4v7.4H300.6z M304.2,232.3c-3,0-5.4-2.4-5.4-5.4
		c0-3,2.4-5.4,5.4-5.4c3,0,5.4,2.4,5.4,5.4C309.5,229.9,307.1,232.3,304.2,232.3z M300.6,220.2v-7.4h7.4v7.4H300.6z M304.2,201.4
		c-3,0-5.4-2.4-5.4-5.4c0-3,2.4-5.4,5.4-5.4c3,0,5.4,2.4,5.4,5.4C309.5,199,307.1,201.4,304.2,201.4z M300.6,189.3v-7.4h7.4v7.4
		H300.6z M304.2,180.1c-3,0-5.4-2.4-5.4-5.4c0-3,2.4-5.4,5.4-5.4c3,0,5.4,2.4,5.4,5.4C309.5,177.7,307.1,180.1,304.2,180.1z
		 M300.6,168v-7.4h7.4v7.4H300.6z M304.2,147.6c-3,0-5.4-2.4-5.4-5.4c0-3,2.4-5.4,5.4-5.4c3,0,5.4,2.4,5.4,5.4
		C309.5,145.2,307.1,147.6,304.2,147.6z M300.6,135.5v-7.4h7.4v7.4H300.6z M304.2,126.3c-3,0-5.4-2.4-5.4-5.4c0-3,2.4-5.4,5.4-5.4
		c3,0,5.4,2.4,5.4,5.4C309.5,123.9,307.1,126.3,304.2,126.3z M300.6,114.2v-7.4h7.4v7.4H300.6z M304.2,105c-3,0-5.4-2.4-5.4-5.4
		c0-3,2.4-5.4,5.4-5.4c3,0,5.4,2.4,5.4,5.4C309.5,102.6,307.1,105,304.2,105z M311.8,80h-4.9v-4.9h4.9V80z M311.8,73.3h-4.9v-4.9
		h4.9V73.3z M311.8,66.6h-4.9v-4.9h4.9V66.6z M311.8,59.9h-4.9V55h4.9V59.9z M311.8,53.2h-4.9v-4.9h4.9V53.2z M311.8,46.5h-4.9v-4.9
		h4.9V46.5z M311.8,39.8h-4.9v-4.9h4.9V39.8z M311.8,33.1h-4.9v-4.9h4.9V33.1z M320.1,274.7c-3,0-5.4-2.4-5.4-5.4s2.4-5.4,5.4-5.4
		c3,0,5.4,2.4,5.4,5.4S323,274.7,320.1,274.7z M316.5,262.6v-7.4h7.4v7.4H316.5z M320.1,253.5c-3,0-5.4-2.4-5.4-5.4
		c0-3,2.4-5.4,5.4-5.4c3,0,5.4,2.4,5.4,5.4C325.4,251.1,323,253.5,320.1,253.5z M316.5,241.4v-7.4h7.4v7.4H316.5z M320.1,232.5
		c-3,0-5.4-2.4-5.4-5.4c0-3,2.4-5.4,5.4-5.4c3,0,5.4,2.4,5.4,5.4C325.4,230.1,323,232.5,320.1,232.5z M316.5,220.4V213h7.4v7.4
		H316.5z M320.1,201.4c-3,0-5.4-2.4-5.4-5.4c0-3,2.4-5.4,5.4-5.4c3,0,5.4,2.4,5.4,5.4C325.4,199,323,201.4,320.1,201.4z
		 M316.5,189.3v-7.4h7.4v7.4H316.5z M320.1,180.1c-3,0-5.4-2.4-5.4-5.4c0-3,2.4-5.4,5.4-5.4c3,0,5.4,2.4,5.4,5.4
		C325.4,177.7,323,180.1,320.1,180.1z M316.5,168v-7.4h7.4v7.4H316.5z M320.1,147.6c-3,0-5.4-2.4-5.4-5.4c0-3,2.4-5.4,5.4-5.4
		c3,0,5.4,2.4,5.4,5.4C325.4,145.2,323,147.6,320.1,147.6z M316.5,135.5v-7.4h7.4v7.4H316.5z M320.2,126.3c-3,0-5.4-2.4-5.4-5.4
		c0-3,2.4-5.4,5.4-5.4c3,0,5.4,2.4,5.4,5.4C325.5,123.9,323.1,126.3,320.2,126.3z"/>
	<rect x="296.6" y="7.5" fill="none" stroke="#C3D2E7" stroke-miterlimit="10" width="35.8" height="11.9"/>
	<rect x="303" y="26.3" fill="none" stroke="#C3D2E7" stroke-miterlimit="10" width="21.8" height="55.8"/>
	<line fill="none" stroke="#C3D2E7" stroke-miterlimit="10" x1="296.6" y1="159.6" x2="332.4" y2="159.6"/>
	<line fill="none" stroke="#C3D2E7" stroke-miterlimit="10" x1="296.6" y1="211.9" x2="332.4" y2="211.9"/>
	<line fill="none" stroke="#C3D2E7" stroke-miterlimit="10" x1="296.6" y1="84.5" x2="332.4" y2="84.5"/>
	<rect x="300.2" y="97.4" fill="none" stroke="#C3D2E7" stroke-miterlimit="10" width="5.2" height="5.2"/>
	<rect x="316.1" y="97.4" fill="none" stroke="#C3D2E7" stroke-miterlimit="10" width="5.2" height="5.2"/>
	<rect x="300.2" y="118.7" fill="none" stroke="#C3D2E7" stroke-miterlimit="10" width="5.2" height="5.2"/>
	<rect x="316.2" y="118.7" fill="none" stroke="#C3D2E7" stroke-miterlimit="10" width="5.2" height="5.2"/>
	<rect x="300.2" y="140" fill="none" stroke="#C3D2E7" stroke-miterlimit="10" width="5.2" height="5.2"/>
	<rect x="316.1" y="140" fill="none" stroke="#C3D2E7" stroke-miterlimit="10" width="5.2" height="5.2"/>
	<rect x="300.2" y="172.5" fill="none" stroke="#C3D2E7" stroke-miterlimit="10" width="5.2" height="5.2"/>
	<rect x="316.1" y="172.5" fill="none" stroke="#C3D2E7" stroke-miterlimit="10" width="5.2" height="5.2"/>
	<rect x="300.2" y="193.8" fill="none" stroke="#C3D2E7" stroke-miterlimit="10" width="5.2" height="5.2"/>
	<rect x="316.1" y="193.8" fill="none" stroke="#C3D2E7" stroke-miterlimit="10" width="5.2" height="5.2"/>
	<rect x="300.2" y="224.7" fill="none" stroke="#C3D2E7" stroke-miterlimit="10" width="5.2" height="5.2"/>
	<rect x="316.1" y="225" fill="none" stroke="#C3D2E7" stroke-miterlimit="10" width="5.2" height="5.2"/>
	<rect x="300.2" y="246.1" fill="none" stroke="#C3D2E7" stroke-miterlimit="10" width="5.2" height="5.2"/>
	<rect x="316.1" y="245.9" fill="none" stroke="#C3D2E7" stroke-miterlimit="10" width="5.2" height="5.2"/>
	<rect x="300.2" y="267.1" fill="none" stroke="#C3D2E7" stroke-miterlimit="10" width="5.2" height="5.2"/>
	<rect x="316.1" y="267.1" fill="none" stroke="#C3D2E7" stroke-miterlimit="10" width="5.2" height="5.2"/>
</g>
<g>
	<path fill="none" stroke="#C3D2E7" stroke-miterlimit="10" d="M332.4,2v276h35.7V2H332.4z M339.8,260.3c-3.2,0-5.9-2.6-5.9-5.9
		s2.6-5.9,5.9-5.9c3.2,0,5.9,2.6,5.9,5.9S343.1,260.3,339.8,260.3z M345.7,242.5h-10.4v-11.9h10.4V242.5z M339.8,205.4
		c-3.2,0-5.9-2.6-5.9-5.9c0-3.2,2.6-5.9,5.9-5.9c3.2,0,5.9,2.6,5.9,5.9C345.7,202.7,343.1,205.4,339.8,205.4z M345.7,187.6h-10.4
		v-11.9h10.4V187.6z M339.8,150.2c-3.2,0-5.9-2.6-5.9-5.9s2.6-5.9,5.9-5.9c3.2,0,5.9,2.6,5.9,5.9S343.1,150.2,339.8,150.2z
		 M345.7,132.5h-10.4v-11.9h10.4V132.5z M339.9,101.4c-3.2,0-5.9-2.6-5.9-5.9c0-3.2,2.6-5.9,5.9-5.9c3.2,0,5.9,2.6,5.9,5.9
		C345.8,98.8,343.1,101.4,339.9,101.4z M339.8,44.3c2.8,0,5.1,2.3,5.1,5.1s-2.3,5.1-5.1,5.1c-2.8,0-5.1-2.3-5.1-5.1
		S337,44.3,339.8,44.3z M334.7,36.1c0-2.8,2.3-5.1,5.1-5.1c2.8,0,5.1,2.3,5.1,5.1s-2.3,5.1-5.1,5.1C337,41.2,334.7,38.9,334.7,36.1z
		 M345.8,83.6h-10.4V71.7h10.4V83.6z M354.7,205.4c-3.2,0-5.9-2.6-5.9-5.9c0-3.2,2.6-5.9,5.9-5.9c3.2,0,5.9,2.6,5.9,5.9
		C360.5,202.7,357.9,205.4,354.7,205.4z M360.5,230.6v11.9h-10.4v-11.9H360.5z M350.2,187.6v-11.9h10.4v11.9H350.2z M354.7,150.2
		c-3.2,0-5.9-2.6-5.9-5.9s2.6-5.9,5.9-5.9c3.2,0,5.9,2.6,5.9,5.9S357.9,150.2,354.7,150.2z M350.2,132.5v-11.9h10.4v11.9H350.2z
		 M360.5,83.6h-10.4V71.7h10.4V83.6z M354.6,44.3c2.8,0,5.1,2.3,5.1,5.1s-2.3,5.1-5.1,5.1c-2.8,0-5.1-2.3-5.1-5.1
		S351.8,44.3,354.6,44.3z M349.5,36.1c0-2.8,2.3-5.1,5.1-5.1c2.8,0,5.1,2.3,5.1,5.1s-2.3,5.1-5.1,5.1
		C351.8,41.2,349.5,38.9,349.5,36.1z M354.7,89.7c3.2,0,5.9,2.6,5.9,5.9c0,3.2-2.6,5.9-5.9,5.9c-3.2,0-5.9-2.6-5.9-5.9
		C348.8,92.3,351.4,89.7,354.7,89.7z M354.7,260.3c-3.2,0-5.9-2.6-5.9-5.9s2.6-5.9,5.9-5.9c3.2,0,5.9,2.6,5.9,5.9
		S357.9,260.3,354.7,260.3z M366.7,22.8h-32.8V11h32.8V22.8z"/>
	<rect x="338.4" y="13" fill="none" stroke="#C3D2E7" stroke-miterlimit="10" width="23.7" height="7.5"/>
	<line fill="none" stroke="#C3D2E7" stroke-miterlimit="10" x1="332.4" y1="57" x2="368.1" y2="57"/>
	<line fill="none" stroke="#C3D2E7" stroke-miterlimit="10" x1="332.4" y1="68.8" x2="368.1" y2="68.8"/>
	<line fill="none" stroke="#C3D2E7" stroke-miterlimit="10" x1="332.4" y1="105.8" x2="368.1" y2="105.8"/>
	<line fill="none" stroke="#C3D2E7" stroke-miterlimit="10" x1="332.4" y1="117.8" x2="368.1" y2="117.8"/>
	<line fill="none" stroke="#C3D2E7" stroke-miterlimit="10" x1="332.4" y1="160.8" x2="368.1" y2="160.8"/>
	<line fill="none" stroke="#C3D2E7" stroke-miterlimit="10" x1="332.4" y1="172.6" x2="368.1" y2="172.6"/>
	<line fill="none" stroke="#C3D2E7" stroke-miterlimit="10" x1="332.4" y1="215.8" x2="368.1" y2="215.8"/>
	<line fill="none" stroke="#C3D2E7" stroke-miterlimit="10" x1="332.4" y1="227.5" x2="368.1" y2="227.5"/>
</g>
<rect x="1.9" y="2" fill="none" stroke="#C3D2E7" stroke-width="2" stroke-miterlimit="10" width="366.2" height="276"/>
<line fill="none" stroke="#C3D2E7" stroke-width="2" stroke-miterlimit="10" x1="225.1" y1="2" x2="225.1" y2="278"/>
<line fill="none" stroke="#C3D2E7" stroke-width="2" stroke-miterlimit="10" x1="260.8" y1="2" x2="260.8" y2="278"/>
<line fill="none" stroke="#C3D2E7" stroke-width="2" stroke-miterlimit="10" x1="296.6" y1="2" x2="296.6" y2="278"/>
<line fill="none" stroke="#C3D2E7" stroke-width="2" stroke-miterlimit="10" x1="332.4" y1="2" x2="332.4" y2="278"/>
</svg>
