<?xml version="1.0" encoding="utf-8"?>
<!-- Generator: Adobe Illustrator 28.1.0, SVG Export Plug-In . SVG Version: 6.00 Build 0)  -->
<svg version="1.2" baseProfile="tiny" id="Layer_2" xmlns="http://www.w3.org/2000/svg" xmlns:xlink="http://www.w3.org/1999/xlink"
	 x="0px" y="0px" viewBox="0 0 40 40" overflow="visible" xml:space="preserve">
<circle cx="20" cy="15.3" r="3"/>
<path d="M13.5,15.3L7.2,9.5v3h-6v2.8V18h6v3L13.5,15.3z M2.6,16.7v-1.5v-1.5h5.8v-1.6l3.3,3.1l-3.3,3.1v-1.6H2.6z"/>
<path d="M32.8,21v-3h6v-2.8v-2.8h-6v-3l-6.3,5.8L32.8,21z M31.7,16.7v1.6l-3.3-3.1l3.3-3.1v1.6h5.8v1.5v1.5H31.7z"/>
<path d="M20,23.7c0.7,3.4,3.7,5.8,7.1,5.7c3.2-0.1,6.1-2.4,6.7-5.7c0.1,0.6,0.6,2.9,2.7,4.5c1,0.8,2,1.1,2.7,1.2l-0.3,1.1
	c-0.7-0.1-2-0.5-3.3-1.6c-1-0.8-1.5-1.8-1.8-2.3c-1.5,2.5-4.2,4-7.1,3.9c-4.4-0.1-6.7-3.9-6.8-4.1c-0.1,0.2-2.3,4-6.8,4.1
	c-2.9,0.1-5.6-1.4-7.1-3.9c-0.3,0.6-0.8,1.5-1.8,2.3c-1.3,1.1-2.7,1.4-3.3,1.6l-0.3-1.1c0.7-0.1,1.7-0.4,2.7-1.2
	c2.1-1.5,2.6-3.8,2.7-4.5c0.7,3.2,3.5,5.6,6.7,5.7C16.3,29.5,19.3,27.1,20,23.7z"/>
</svg>
