<?xml version="1.0" encoding="utf-8"?>
<!-- Generator: Adobe Illustrator 19.0.0, SVG Export Plug-In . SVG Version: 6.00 Build 0)  -->
<svg version="1.2" baseProfile="tiny" id="Layer_1" xmlns="http://www.w3.org/2000/svg" xmlns:xlink="http://www.w3.org/1999/xlink"
	 x="0px" y="0px" width="44px" height="44px" viewBox="0 0 44 44" xml:space="preserve">
<path fill="none" stroke="#FFFFFF" stroke-width="1.5" stroke-miterlimit="10" d="M20,19.6c0.4-0.5,0.8-0.9,1.4-1.1
	c-0.1-0.2-0.2-0.3-0.2-0.5C21,17,15.6,6.2,14.8,5.3c-0.7-0.9-1.9-3,2.8-3.7c4.7-0.7,10.6,1.7,12.5,4.9s2.1,6.2,0,8
	c-2.1,1.9-4.9,2.4-5.6,4.3c0,0,0,0.1-0.1,0.1c0.5,0.4,0.9,1,1.1,1.7c0.1-0.1,0.2-0.1,0.3-0.1c0.9,0,11.8-5.6,12.7-6.4
	c0.9-0.7,3-1.9,3.7,2.8s-1.7,10.6-4.9,12.5s-6.2,2.1-8,0s-3-5.6-4.3-5.6c-0.2,0-0.3,0-0.4-0.1c-0.3,0.3-0.7,0.6-1.2,0.8
	c0.1,0.1,0.2,0.3,0.2,0.4c0,0.9,5.6,11.8,6.4,12.7c0.7,0.9,1.9,3-2.8,3.7s-10.6-1.7-12.5-4.9s-2.1-6.2,0-8c2.1-1.9,5.6-3,5.6-4.3
	c0-0.1,0-0.2,0-0.2c-0.4-0.3-0.7-0.8-0.9-1.2c-0.2,0.2-0.3,0.3-0.5,0.3C18,23,7.1,28.6,6.2,29.4c-0.9,0.7-3,1.9-3.7-2.8
	S4.2,16,7.4,14.1s6.2-2.1,8,0c1.9,2.1,3,5.6,4.3,5.6C19.9,19.6,19.9,19.6,20,19.6z"/>
<circle fill="none" stroke="#FFFFFF" stroke-width="1.554" stroke-miterlimit="10" cx="22.5" cy="21.6" r="2.9"/>
</svg>
