<?xml version="1.0" encoding="utf-8"?>
<!-- Generator: Adobe Illustrator 19.0.0, SVG Export Plug-In . SVG Version: 6.00 Build 0)  -->
<svg version="1.2" baseProfile="tiny" id="Layer_1" xmlns="http://www.w3.org/2000/svg" xmlns:xlink="http://www.w3.org/1999/xlink"
	 x="0px" y="0px" width="42px" height="42px" viewBox="0 0 42 42" xml:space="preserve">
<path fill="#465C7E" d="M21.2,1C10.1,1,1.1,9.8,1,20.7C0.9,31.4,9.4,41,20.9,41C32,41.1,41,32.1,41,21C41,10,32.1,1,21.2,1z
	 M38.2,20.1c-8.3-4.8-16.6-9.6-24.9-14.4C24.5,0,37.6,7.9,38.2,20.1z M25.3,23.8v1.7h-5.5h-1.5h-0.5V15h2v8.8H25.3z M11.7,35.5
	c-4.6-3.2-7.3-7.4-7.8-13C3.1,14.7,7.7,8.9,11.7,6.6C11.8,7.3,11.8,33.6,11.7,35.5z M29.4,36c-5.3,3.1-11.7,2.7-16.1,0.3
	c8.3-4.8,16.5-9.6,25-14.4C37.6,28.2,34.7,32.9,29.4,36z"/>
</svg>
