<?xml version="1.0" encoding="utf-8"?>
<!-- Generator: Adobe Illustrator 19.0.0, SVG Export Plug-In . SVG Version: 6.00 Build 0)  -->
<svg version="1.2" baseProfile="tiny" id="Layer_1" xmlns="http://www.w3.org/2000/svg" xmlns:xlink="http://www.w3.org/1999/xlink"
	 x="0px" y="0px" width="40px" height="40px" viewBox="0 0 40 40" xml:space="preserve">
<g id="XMLID_2_">
	<path id="XMLID_8_" fill="#FF2000" d="M20,35c-8.3,0-15-6.7-15-15c0-8.3,6.7-15,15-15c8.3,0,15,6.7,15,15C35,28.3,28.3,35,20,35z
		 M20,7C12.8,7,7,12.8,7,20c0,7.2,5.8,13,13,13c7.2,0,13-5.8,13-13C33,12.8,27.2,7,20,7z"/>
</g>
<path id="XMLID_5_" fill="#FF2000" d="M21,20c0,0-0.3,0.3-0.4,0.8c-0.1,0.2,0,0.5,0,0.9c0,0.3,0,0.7,0,1.1c0,0.8,0,1.8,0,2.8
	c0,1,0,2.1,0,3.2c0.1,2.2,0.1,4.4,0.2,6c0.1,1.6,0.1,2.7,0.1,2.7c0,0.6-0.4,1-0.9,1.1c-0.6,0-1-0.4-1.1-0.9c0,0,0-0.1,0-0.1
	c0,0,0.1-1.1,0.1-2.7c0.1-1.6,0.1-3.8,0.2-6c0-1.1,0-2.2,0-3.2c0-1,0-2,0-2.8c0-0.4,0-0.8,0-1.1c0-0.3,0-0.6,0-0.9
	C19.3,20.3,19,20,19,20c-0.5-0.6-0.5-1.4,0-2c0.6-0.5,1.4-0.5,2,0C21.5,18.6,21.5,19.5,21,20z"/>
<path id="XMLID_14_" fill="#FF2000" d="M19.3,20.7c0,0,0-0.4-0.3-0.8c-0.1-0.2-0.3-0.4-0.6-0.6c-0.2-0.2-0.5-0.5-0.8-0.8
	c-0.6-0.6-1.3-1.2-2-2c-0.7-0.7-1.5-1.5-2.3-2.2c-1.6-1.5-3.2-3-4.4-4.1c-1.2-1.1-2-1.8-2-1.8C6.5,8,6.5,7.3,6.8,6.9
	c0.4-0.4,1-0.5,1.4-0.1c0,0,0.1,0.1,0.1,0.1c0,0,0.7,0.8,1.8,2c1.1,1.2,2.6,2.8,4.1,4.4c0.8,0.8,1.5,1.6,2.2,2.3
	c0.7,0.7,1.4,1.4,2,2c0.3,0.3,0.6,0.6,0.8,0.8c0.2,0.2,0.4,0.5,0.6,0.6c0.4,0.3,0.8,0.3,0.8,0.3c0.8,0,1.4,0.6,1.4,1.4
	c0,0.8-0.6,1.4-1.4,1.4C19.9,22.1,19.3,21.5,19.3,20.7z"/>
<path id="XMLID_3_" fill="#FF2000" d="M20,21c0,0-0.3-0.3-0.8-0.4c-0.2-0.1-0.5,0-0.9,0c-0.3,0-0.7,0-1.1,0c-0.8,0-1.8,0-2.8,0
	c-1,0-2.1,0-3.2,0c-2.2,0.1-4.4,0.1-6,0.2C3.6,20.9,2.5,21,2.5,21c-0.6,0-1-0.4-1.1-0.9s0.4-1,0.9-1.1c0,0,0.1,0,0.1,0
	c0,0,1.1,0.1,2.7,0.1c1.6,0.1,3.8,0.1,6,0.2c1.1,0,2.2,0,3.2,0c1,0,2,0,2.8,0c0.4,0,0.8,0,1.1,0c0.3,0,0.6,0,0.9,0
	C19.7,19.3,20,19,20,19c0.6-0.5,1.4-0.5,2,0c0.5,0.6,0.5,1.4,0,2C21.4,21.5,20.5,21.5,20,21z"/>
<path id="XMLID_4_" fill="#FF2000" d="M20.7,20.7c0,0-0.4,0-0.8,0.3c-0.2,0.1-0.4,0.3-0.6,0.6c-0.2,0.2-0.5,0.5-0.8,0.8
	c-0.6,0.6-1.2,1.3-2,2c-0.7,0.7-1.5,1.5-2.2,2.3c-1.5,1.6-3,3.2-4.1,4.4c-1.1,1.2-1.8,2-1.8,2c-0.4,0.4-1,0.5-1.4,0.1
	c-0.4-0.4-0.5-1-0.1-1.4c0,0,0.1-0.1,0.1-0.1c0,0,0.8-0.7,2-1.8c1.2-1.1,2.8-2.6,4.4-4.1c0.8-0.8,1.6-1.5,2.3-2.2
	c0.7-0.7,1.4-1.4,2-2c0.3-0.3,0.6-0.6,0.8-0.8c0.2-0.2,0.5-0.4,0.6-0.6c0.3-0.4,0.3-0.8,0.3-0.8c0-0.8,0.6-1.4,1.4-1.4
	c0.8,0,1.4,0.6,1.4,1.4C22.1,20.1,21.5,20.7,20.7,20.7z"/>
<path id="XMLID_6_" fill="#FF2000" d="M20.7,19.3c0,0,0,0.4,0.3,0.8c0.1,0.2,0.3,0.4,0.6,0.6c0.2,0.2,0.5,0.5,0.8,0.8
	c0.6,0.6,1.3,1.2,2,2c0.7,0.7,1.5,1.5,2.3,2.2c1.6,1.5,3.2,3,4.4,4.1c1.2,1.1,2,1.8,2,1.8c0.4,0.4,0.5,1,0.1,1.4s-1,0.5-1.4,0.1
	c0,0-0.1-0.1-0.1-0.1c0,0-0.7-0.8-1.8-2c-1.1-1.2-2.6-2.8-4.1-4.4c-0.8-0.8-1.5-1.6-2.2-2.3c-0.7-0.7-1.4-1.4-2-2
	c-0.3-0.3-0.6-0.6-0.8-0.8c-0.2-0.2-0.4-0.5-0.6-0.6c-0.4-0.3-0.8-0.3-0.8-0.3c-0.8,0-1.4-0.6-1.4-1.4c0-0.8,0.6-1.4,1.4-1.4
	C20.1,17.9,20.7,18.5,20.7,19.3z"/>
<path id="XMLID_10_" fill="#FF2000" d="M20,19c0,0,0.3,0.3,0.8,0.4c0.2,0.1,0.5,0,0.9,0c0.3,0,0.7,0,1.1,0c0.8,0,1.8,0,2.8,0
	c1,0,2.1,0,3.2,0c2.2-0.1,4.4-0.1,6-0.2c1.6-0.1,2.7-0.1,2.7-0.1c0.6,0,1,0.4,1.1,0.9c0,0.6-0.4,1-0.9,1.1c0,0-0.1,0-0.1,0
	c0,0-1.1-0.1-2.7-0.1c-1.6-0.1-3.8-0.1-6-0.2c-1.1,0-2.2,0-3.2,0c-1,0-2,0-2.8,0c-0.4,0-0.8,0-1.1,0c-0.3,0-0.6,0-0.9,0
	C20.3,20.7,20,21,20,21c-0.6,0.5-1.4,0.5-2,0c-0.5-0.6-0.5-1.4,0-2C18.6,18.5,19.5,18.5,20,19z"/>
<path id="XMLID_11_" fill="#FF2000" d="M19.3,19.5c0,0,0.4,0,0.8-0.3c0.2-0.1,0.4-0.3,0.6-0.6c0.2-0.2,0.5-0.5,0.8-0.8
	c0.6-0.6,1.2-1.3,2-2c0.7-0.7,1.5-1.5,2.2-2.3c1.5-1.6,3-3.2,4.1-4.4c1.1-1.2,1.8-2,1.8-2c0.4-0.4,1-0.5,1.4-0.1s0.5,1,0.1,1.4
	c0,0-0.1,0.1-0.1,0.1c0,0-0.8,0.7-2,1.8c-1.2,1.1-2.8,2.6-4.4,4.1c-0.8,0.8-1.6,1.5-2.3,2.2c-0.7,0.7-1.4,1.4-2,2
	c-0.3,0.3-0.6,0.6-0.8,0.8c-0.2,0.2-0.5,0.4-0.6,0.6c-0.3,0.4-0.3,0.8-0.3,0.8c0,0.8-0.6,1.4-1.4,1.4c-0.8,0-1.4-0.6-1.4-1.4
	C17.9,20.1,18.5,19.5,19.3,19.5z"/>
<path id="XMLID_12_" fill="#FF2000" d="M19,20.2c0,0,0.3-0.3,0.4-0.8c0.1-0.2,0-0.5,0-0.9c0-0.3,0-0.7,0-1.1c0-0.8,0-1.8,0-2.8
	c0-1,0-2.1,0-3.2c-0.1-2.2-0.1-4.4-0.2-6C19.1,3.8,19,2.7,19,2.7c0-0.6,0.4-1,0.9-1.1c0.6,0,1,0.4,1.1,0.9c0,0,0,0.1,0,0.1
	c0,0-0.1,1.1-0.1,2.7c-0.1,1.6-0.1,3.8-0.2,6c0,1.1,0,2.2,0,3.2c0,1,0,2,0,2.8c0,0.4,0,0.8,0,1.1c0,0.3,0,0.6,0,0.9
	c0.1,0.5,0.4,0.8,0.4,0.8c0.5,0.6,0.5,1.4,0,2c-0.6,0.5-1.4,0.5-2,0C18.5,21.6,18.5,20.7,19,20.2z"/>
<circle id="XMLID_1_" fill="#FF2000" cx="20" cy="20" r="2.5"/>
</svg>
