<?xml version="1.0" encoding="utf-8"?>
<!-- Generator: Adobe Illustrator 19.0.0, SVG Export Plug-In . SVG Version: 6.00 Build 0)  -->
<svg version="1.2" baseProfile="tiny" id="Layer_1" xmlns="http://www.w3.org/2000/svg" xmlns:xlink="http://www.w3.org/1999/xlink"
	 x="0px" y="0px" width="44px" height="44px" viewBox="0 0 44 44" xml:space="preserve">
<path fill="none" stroke="#FFFFFF" stroke-width="1.5" stroke-linecap="round" stroke-linejoin="round" stroke-miterlimit="10" d="
	M25.8,4.1v2.1c1.6,0.4,3.2,1,4.6,1.9l1.5-1.5c0.6-0.6,1.6-0.6,2.3,0l3.2,3.2c0.6,0.6,0.6,1.6,0,2.3l-1.5,1.4c0.9,1.4,1.5,3,1.9,4.6
	h2.1c0.9,0,1.6,0.7,1.6,1.6v4.5c0,0.9-0.7,1.6-1.6,1.6h-2.1c-0.4,1.7-1.1,3.2-1.9,4.6l1.5,1.5c0.6,0.6,0.6,1.6,0,2.3l-3.2,3.2
	c-0.6,0.6-1.6,0.6-2.3,0l-1.5-1.5c-1.4,0.9-3,1.5-4.6,1.9v2.1c0,0.9-0.7,1.6-1.6,1.6h-4.5c-0.9,0-1.6-0.7-1.6-1.6v-2.2
	c-1.6-0.4-3.2-1.1-4.5-1.9L12,37.4c-0.6,0.6-1.6,0.6-2.3,0l-3.2-3.2c-0.6-0.6-0.6-1.6,0-2.3l1.6-1.6c-0.8-1.4-1.5-2.9-1.9-4.5H4.1
	c-0.9,0-1.6-0.7-1.6-1.6v-4.5c0-0.9,0.7-1.6,1.6-1.6h2.2c0.4-1.6,1-3.1,1.9-4.5L6.6,12C6,11.4,6,10.4,6.6,9.7l3.2-3.2
	c0.6-0.6,1.6-0.6,2.3,0l1.6,1.6c1.4-0.9,2.9-1.5,4.5-1.9V4.1c0-0.9,0.7-1.6,1.6-1.6h4.5C25.1,2.5,25.8,3.2,25.8,4.1z"/>
<circle fill="none" stroke="#FFFFFF" stroke-width="1.5" stroke-linecap="round" stroke-linejoin="round" stroke-miterlimit="10" cx="22" cy="22" r="7"/>
</svg>
