<?xml version="1.0" encoding="utf-8"?>
<!-- Generator: Adobe Illustrator 19.0.0, SVG Export Plug-In . SVG Version: 6.00 Build 0)  -->
<svg version="1.2" baseProfile="tiny" id="Layer_2" xmlns="http://www.w3.org/2000/svg" xmlns:xlink="http://www.w3.org/1999/xlink"
	 x="0px" y="0px" width="26px" height="26px" viewBox="0 0 26 26" xml:space="preserve">
<rect x="0" fill="#FFFFFF" width="26" height="26"/>
<circle fill="none" stroke="#000000" stroke-miterlimit="10" cx="13" cy="13" r="11.6"/>
<path fill="#FF0000" d="M8.2,10.2C8.6,9.7,8.9,9.4,9,9.1C9.1,9,9.2,8.7,9.5,8.4c0.1-0.1,0.2-0.2,0.3-0.2C10,8.1,10.5,7.9,11.1,8
	c0.8,0.3,1.4,1.3,1.2,2.6c0,0.1-0.1,0.3-0.1,0.5c-0.2,0.8-0.5,1.4-0.6,1.5c-0.2,0.5-0.6,1.4-0.8,3.3c0,0.7,0,1.7,0.3,2.8
	c0.1,0.4,0.2,0.8,0.4,1.1c0.2,0.4,0.5,1.1,1.2,1.7c0.6,0.6,1.1,0.9,1.5,1.1c0.7,0.3,1.3,0.1,1.5-0.3c0.1-0.3-0.1-0.7-0.1-0.7
	c-0.2-0.2-0.3-0.4-0.5-0.7c-0.2-0.3-0.3-0.5-0.5-0.8c-0.2-0.5-0.5-1.3-0.6-2.2c-0.1-0.8-0.1-1.4-0.1-1.9c0-0.4,0.1-1,0.5-1.6
	c0.2-0.3,0.4-0.6,0.5-0.8c0.3-0.2,0.5-0.4,0.8-0.7c0.3-0.3,0.6-0.6,0.9-0.9c0.4-0.4,0.9-1,1.3-1.8c0.3-0.6,0.6-1.2,0.7-1.7
	c0.1-0.4,0.5-2-0.4-3.4c-0.3-0.4-0.6-0.8-0.9-1c-0.4-0.3-0.9-0.6-1.6-0.8c-2.2-0.8-4.3-0.3-5.1,0C9.9,3.6,7.9,4.6,6.9,6.8
	C6.5,7.7,6.4,8.5,6.4,9.1c0,0.1,0,0.1,0,0.2c0,0.3,0.1,1.1,0.5,1.4C7.2,10.8,7.8,10.6,8.2,10.2"/>
<path fill="none" stroke="#000000" stroke-miterlimit="10" d="M8,8.8c-0.1,0-0.4-0.1-0.5-0.3C7.1,7.9,8.4,6,10.1,5
	c0.4-0.2,1.4-0.8,2.8-0.7c1.5,0.1,2.6,0.8,3,1.1"/>
</svg>
