<?xml version="1.0" encoding="utf-8"?>
<!-- Generator: Adobe Illustrator 19.0.0, SVG Export Plug-In . SVG Version: 6.00 Build 0)  -->
<svg version="1.2" baseProfile="tiny" id="Layer_1" xmlns="http://www.w3.org/2000/svg" xmlns:xlink="http://www.w3.org/1999/xlink"
	 x="0px" y="0px" width="60px" height="60px" viewBox="0 0 60 60" xml:space="preserve">
<circle fill="#00E76E" cx="30" cy="30" r="22"/>
<circle id="XMLID_3_" fill="none" stroke="#C3D2E7" stroke-width="2" stroke-miterlimit="10" cx="30" cy="30" r="22"/>
<line fill="none" stroke="#465C7E" stroke-width="8" stroke-linecap="round" stroke-linejoin="round" stroke-miterlimit="10" x1="20" y1="20" x2="40" y2="40"/>
<circle fill="#FF0000" cx="20" cy="20" r="2.5"/>
<circle fill="none" stroke="#18212F" stroke-width="3" stroke-linecap="round" stroke-linejoin="round" stroke-miterlimit="10" cx="30" cy="30" r="26"/>
<path id="XMLID_18_" fill="#FF0000" d="M57.8,15.2H44.2c-0.5,0-1-0.4-1-1c0-0.2,0.1-0.4,0.2-0.5l6.8-10.4c0.3-0.4,0.9-0.6,1.3-0.3
	c0.1,0.1,0.2,0.2,0.3,0.3l6.8,10.4c0.3,0.4,0.2,1-0.3,1.3C58.2,15.1,58,15.2,57.8,15.2z"/>
<path id="XMLID_13_" fill="#FFFFFF" d="M51,13.1c-0.4,0-0.7-0.3-0.7-0.7s0.3-0.7,0.7-0.7s0.7,0.3,0.7,0.7
	C51.7,12.9,51.4,13.1,51,13.1z M50.4,6.9h1.2l-0.1,3.8h-1L50.4,6.9z"/>
</svg>