<?xml version="1.0" encoding="utf-8"?>
<!-- Generator: Adobe Illustrator 19.0.0, SVG Export Plug-In . SVG Version: 6.00 Build 0)  -->
<svg version="1.2" baseProfile="tiny" id="Layer_1" xmlns="http://www.w3.org/2000/svg" xmlns:xlink="http://www.w3.org/1999/xlink"
	 x="0px" y="0px" width="60px" height="60px" viewBox="0 0 60 60" xml:space="preserve">
<circle id="XMLID_19_" fill="none" stroke="#18212F" stroke-width="3" stroke-linecap="round" stroke-linejoin="round" stroke-miterlimit="10" cx="30" cy="30" r="26"/>
<path id="XMLID_4_" fill="#00E76E" d="M26,39h10v-3h-6.3V23H26V39z M30,49c-10.5,0-19-8.5-19-19s8.5-19,19-19s19,8.5,19,19
	S40.5,49,30,49z"/>
<path id="XMLID_12_" fill="#FF0000" d="M56.8,14.2h-13.6c-0.5,0-1-0.4-1-1c0-0.2,0.1-0.4,0.2-0.5l6.8-10.4c0.3-0.4,0.9-0.6,1.3-0.3
	c0.1,0.1,0.2,0.2,0.3,0.3l6.8,10.4c0.3,0.4,0.2,1-0.3,1.3C57.2,14.1,57,14.2,56.8,14.2z"/>
<path id="XMLID_3_" fill="#FFFFFF" d="M50,12.2c-0.4,0-0.7-0.3-0.7-0.7s0.3-0.7,0.7-0.7s0.7,0.3,0.7,0.7S50.4,12.2,50,12.2z
	 M49.4,5.6h1.2l-0.1,3.8h-1L49.4,5.6z"/>
</svg>
