<?xml version="1.0" encoding="UTF-8"?>
<svg id="Layer_1" data-name="Layer 1" xmlns="http://www.w3.org/2000/svg" baseProfile="tiny" version="1.2" viewBox="0 0 34 34">
<path d="M27.4,10.3c0,.2-.2.4-.4.4s-.4-.2-.4-.4c0,0,0-6.6,0-6.6,0-.2.2-.4.4-.4s.4.2.4.4c0,0,0,6.6,0,6.6Z" fill="#465C7E" stroke="#465C7E" stroke-miterlimit="10"/>
<path d="M7.2,16.6h3.1l1.5,2.3s1.5-2.3,1.5-2.3h3.5c.2,0,.4.2.4.4,0,.2-.2.4-.4.4,0,0-3.1,0-3.1,0l-2,2.9s-2-2.9-2-2.9h-2.7v3c0,.2-.2.4-.4.4s-.4-.2-.4-.4v-6.8c0-.2.2-.4.4-.4s.4.2.4.4v3Z" fill="#465C7E" stroke="#465C7E" stroke-linejoin="round"/>
<path d="M19,8.6c-.1-.2-.4-.2-.6-.1-.2.1-.2.3-.1.5,0,0,4.3,7.6,4.3,7.6h-2.6c-.2,0-.4.2-.4.4s.2.4.4.4h3l3.6,6.3v6.6c0,.2.2.4.4.4s.4-.2.4-.4v-6.8s-8.4-14.9-8.4-14.9Z" fill="#465C7E" stroke="#465C7E" stroke-linejoin="round"/>
</svg>