<?xml version="1.0" encoding="UTF-8"?>
<svg id="Layer_1" data-name="Layer 1" xmlns="http://www.w3.org/2000/svg" baseProfile="tiny" version="1.2" viewBox="0 0 34 34">
<path d="M27.4,10.3c0,.2-.2.4-.4.4s-.4-.2-.4-.4c0,0,0-6.6,0-6.6,0-.2.2-.4.4-.4s.4.2.4.4c0,0,0,6.6,0,6.6Z" fill="none" stroke="#00E76E" stroke-miterlimit="10"/>
<path d="M7.2,16.6h3.1l1.5,2.3s1.5-2.3,1.5-2.3h3.5c.2,0,.4.2.4.4,0,.2-.2.4-.4.4,0,0-3.1,0-3.1,0l-2,2.9s-2-2.9-2-2.9h-2.7v3c0,.2-.2.4-.4.4s-.4-.2-.4-.4v-6.8c0-.2.2-.4.4-.4s.4.2.4.4v3Z" fill="none" stroke="#00E76E" stroke-linejoin="round"/>
<path d="M26.6,30.3V3.7c0-.2.2-.4.4-.4s.4.2.4.4v26.6c0,.2-.2.4-.4.4s-.4-.2-.4-.4Z" fill="none" stroke="#00E76E" stroke-miterlimit="10"/>
<path d="M20,16.6c-.2,0-.4.2-.4.4s.2.4.4.4h4.6c.2,0,.4-.2.4-.4s-.2-.4-.4-.4h-4.6Z" fill="none" stroke="#00E76E" stroke-miterlimit="10"/>
</svg>