<?xml version="1.0" encoding="utf-8"?>
<!-- Generator: Adobe Illustrator 28.1.0, SVG Export Plug-In . SVG Version: 6.00 Build 0)  -->
<svg version="1.2" baseProfile="tiny" id="Layer_2" xmlns="http://www.w3.org/2000/svg" xmlns:xlink="http://www.w3.org/1999/xlink"
	 x="0px" y="0px" viewBox="0 0 150 280" overflow="visible" xml:space="preserve">
<path fill="none" stroke="#FF0000" stroke-miterlimit="10" d="M142.4,3H7.6c-2.2,0-4,1.8-4,4V273c0,2.2,1.8,4,4,4h134.9
	c2.2,0,4-1.8,4-4V7C146.4,4.8,144.7,3,142.4,3z M34,84.9c-2.2,0-4-1.8-4-4c0-2.2,1.8-4,4-4c2.2,0,4,1.8,4,4
	C38,83.1,36.2,84.9,34,84.9z M34,72.4c-2.2,0-4-1.8-4-4c0-2.2,1.8-4,4-4c2.2,0,4,1.8,4,4C38,70.6,36.2,72.4,34,72.4z M34,59.4
	c-2.2,0-4-1.8-4-4c0-2.2,1.8-4,4-4c2.2,0,4,1.8,4,4C38,57.7,36.2,59.4,34,59.4z M34,47.2c-2.2,0-4-1.8-4-4c0-2.2,1.8-4,4-4
	c2.2,0,4,1.8,4,4C38,45.4,36.2,47.2,34,47.2z M34,34.2c-2.2,0-4-1.8-4-4c0-2.2,1.8-4,4-4c2.2,0,4,1.8,4,4C38,32.4,36.2,34.2,34,34.2
	z M76.9,261.2H55.7v-7.9h-4.5v-3h-2.7v-13.2h2.7v-3h4.5v-7.9h21.2V261.2z M76.9,221.7H55.7v-7.9h-4.5v-3h-2.7v-13.2h2.7v-3h4.5v-7.9
	h21.2V221.7z M76.9,182.1H55.7v-7.9h-4.5v-3h-2.7V158h2.7v-3h4.5v-7.9h21.2V182.1z M76.9,142.6H55.7v-7.9h-4.5v-3h-2.7v-13.2h2.7v-3
	h4.5v-7.9h21.2V142.6z M117.4,250.3h-2.7v3h-4.5v7.9H89v-35h21.2v7.9h4.5v3h2.7V250.3z M117.4,210.8h-2.7v3h-4.5v7.9H89v-35h21.2
	v7.9h4.5v3h2.7V210.8z M117.4,171.2h-2.7v3h-4.5v7.9H89v-35h21.2v7.9h4.5v3h2.7V171.2z M117.4,131.7h-2.7v3h-4.5v7.9H89v-35h21.2
	v7.9h4.5v3h2.7V131.7z M119.6,93.6H90.8V53.4h28.8V93.6z M119.6,51.4H90.8V11.2h28.8V51.4z"/>
<path fill="none" stroke="#FF0000" stroke-width="4" stroke-miterlimit="10" d="M142.4,277H7.6c-2.2,0-4-1.8-4-4V7c0-2.2,1.8-4,4-4
	h134.9c2.2,0,4,1.8,4,4V273C146.4,275.2,144.7,277,142.4,277z"/>
<rect x="46" y="99.9" fill="none" stroke="#FF0000" stroke-miterlimit="10" width="73.6" height="169"/>
</svg>
