<?xml version="1.0" encoding="utf-8"?>
<!-- Generator: Adobe Illustrator 24.3.0, SVG Export Plug-In . SVG Version: 6.00 Build 0)  -->
<svg version="1.2" baseProfile="tiny" id="Layer_1" xmlns="http://www.w3.org/2000/svg" xmlns:xlink="http://www.w3.org/1999/xlink"
	 x="0px" y="0px" viewBox="0 0 380 230" overflow="visible" xml:space="preserve">
<polyline fill="none" stroke="#FFFFFF" stroke-width="2" stroke-linejoin="round" stroke-miterlimit="10" points="214.6,12 
	214.6,132 194.6,132 180.6,162 160.6,162 146.6,192 126.6,192 112.6,222 2.6,222 2.6,12 "/>
<g>
	<line fill="none" stroke="#FFFFFF" stroke-miterlimit="10" x1="124.6" y1="192" x2="120.1" y2="192"/>
	
		<line fill="none" stroke="#FFFFFF" stroke-miterlimit="10" stroke-dasharray="8.5385,8.5385" x1="111.6" y1="192" x2="13.4" y2="192"/>
	<line fill="none" stroke="#FFFFFF" stroke-miterlimit="10" x1="9.1" y1="192" x2="4.6" y2="192"/>
</g>
<g>
	<line fill="none" stroke="#FFFFFF" stroke-miterlimit="10" x1="158.6" y1="162" x2="154.1" y2="162"/>
	
		<line fill="none" stroke="#FFFFFF" stroke-miterlimit="10" stroke-dasharray="8.5294,8.5294" x1="145.6" y1="162" x2="13.4" y2="162"/>
	<line fill="none" stroke="#FFFFFF" stroke-miterlimit="10" x1="9.1" y1="162" x2="4.6" y2="162"/>
</g>
<g>
	<line fill="none" stroke="#FFFFFF" stroke-miterlimit="10" x1="192.6" y1="132" x2="188.1" y2="132"/>
	
		<line fill="none" stroke="#FFFFFF" stroke-miterlimit="10" stroke-dasharray="9.4211,9.4211" x1="178.7" y1="132" x2="13.8" y2="132"/>
	<line fill="none" stroke="#FFFFFF" stroke-miterlimit="10" x1="9.1" y1="132" x2="4.6" y2="132"/>
</g>
<text transform="matrix(1 0 0 1 52.5726 211.8912)" fill="#FFFFFF" font-family="'SourceSansPro-Regular'" font-size="12px">1</text>
<text transform="matrix(1 0 0 1 69.477 180.5152)" fill="#FFFFFF" font-family="'SourceSansPro-Regular'" font-size="12px">2</text>
<text transform="matrix(1 0 0 1 88.7383 150.2482)" fill="#FFFFFF" font-family="'SourceSansPro-Regular'" font-size="12px">3</text>
<text transform="matrix(1 0 0 1 102.6172 81.9624)" fill="#FFFFFF" font-family="'SourceSansPro-Regular'" font-size="12px">4</text>
<line fill="none" stroke="#FFFFFF" stroke-miterlimit="10" x1="117" y1="222" x2="135" y2="222"/>
<line fill="none" stroke="#FFFFFF" stroke-miterlimit="10" x1="151" y1="192" x2="169" y2="192"/>
<line fill="none" stroke="#FFFFFF" stroke-miterlimit="10" x1="185" y1="162" x2="203" y2="162"/>
<line fill="none" stroke="#FFFFFF" stroke-miterlimit="10" x1="219" y1="132" x2="237" y2="132"/>
<line fill="none" stroke="#FFFFFF" stroke-miterlimit="10" x1="218" y1="12" x2="236" y2="12"/>
<text transform="matrix(1 0 0 1 137.996 225.5219)" fill="#FFFFFF" font-family="'SourceSansPro-Regular'" font-size="12px">INPUT MIN &amp; OUTPUT MIN</text>
<text transform="matrix(1 0 0 1 171.7618 195.5211)" fill="#FFFFFF" font-family="'SourceSansPro-Regular'" font-size="12px">LIMIT 1</text>
<text transform="matrix(1 0 0 1 206.7616 165.5217)" fill="#FFFFFF" font-family="'SourceSansPro-Regular'" font-size="12px">LIMIT 2</text>
<text transform="matrix(1 0 0 1 240.7621 135.5216)" fill="#FFFFFF" font-family="'SourceSansPro-Regular'" font-size="12px">LIMIT 3</text>
<text transform="matrix(1 0 0 1 239.8524 15.5217)" fill="#FFFFFF" font-family="'SourceSansPro-Regular'" font-size="12px">I</text>
<text transform="matrix(1 0 0 1 243.0086 15.5217)" fill="#FFFFFF" font-family="'SourceSansPro-Regular'" font-size="12px">N</text>
<text transform="matrix(1 0 0 1 250.7723 15.5217)" fill="#FFFFFF" font-family="'SourceSansPro-Regular'" font-size="12px">P</text>
<text transform="matrix(1 0 0 1 257.5643 15.5217)" fill="#FFFFFF" font-family="'SourceSansPro-Regular'" font-size="12px">U</text>
<text transform="matrix(1 0 0 1 265.3035 15.5217)" fill="#FFFFFF" font-family="'SourceSansPro-Regular'" font-size="12px">T</text>
<text transform="matrix(1 0 0 1 271.7361 15.5217)" fill="#FFFFFF" font-family="'SourceSansPro-Regular'" font-size="12px"> </text>
<text transform="matrix(1 0 0 1 274.1356 15.5217)" fill="#FFFFFF" font-family="'SourceSansPro-Regular'" font-size="12px">M</text>
<text transform="matrix(1 0 0 1 282.8592 15.5217)" fill="#FFFFFF" font-family="'SourceSansPro-Regular'" font-size="12px">A</text>
<text transform="matrix(1 0 0 1 289.4354 15.5217)" fill="#FFFFFF" font-family="'SourceSansPro-Regular'" font-size="12px">X</text>
<text transform="matrix(1 0 0 1 295.5916 15.5217)" fill="#FFFFFF" font-family="'SourceSansPro-Regular'" font-size="12px"> </text>
<text transform="matrix(1 0 0 1 297.991 15.5217)" fill="#FFFFFF" font-family="'SourceSansPro-Regular'" font-size="12px">&amp;</text>
<text transform="matrix(1 0 0 1 305.2996 15.5217)" fill="#FFFFFF" font-family="'SourceSansPro-Regular'" font-size="12px"> </text>
<text transform="matrix(1 0 0 1 307.699 15.5217)" fill="#FFFFFF" font-family="'SourceSansPro-Regular'" font-size="12px">O</text>
<text transform="matrix(1 0 0 1 315.6668 15.5217)" fill="#FFFFFF" font-family="'SourceSansPro-Regular'" font-size="12px">U</text>
<text transform="matrix(1 0 0 1 323.407 15.5217)" fill="#FFFFFF" font-family="'SourceSansPro-Regular'" font-size="12px">T</text>
<text transform="matrix(1 0 0 1 329.8387 15.5217)" fill="#FFFFFF" font-family="'SourceSansPro-Regular'" font-size="12px">P</text>
<text transform="matrix(1 0 0 1 336.6307 15.5217)" fill="#FFFFFF" font-family="'SourceSansPro-Regular'" font-size="12px">U</text>
<text transform="matrix(1 0 0 1 344.3709 15.5217)" fill="#FFFFFF" font-family="'SourceSansPro-Regular'" font-size="12px">T</text>
<text transform="matrix(1 0 0 1 350.8026 15.5217)" fill="#FFFFFF" font-family="'SourceSansPro-Regular'" font-size="12px"> </text>
<text transform="matrix(1 0 0 1 353.2029 15.5217)" fill="#FFFFFF" font-family="'SourceSansPro-Regular'" font-size="12px">M</text>
<text transform="matrix(1 0 0 1 361.9266 15.5217)" fill="#FFFFFF" font-family="'SourceSansPro-Regular'" font-size="12px">A</text>
<text transform="matrix(1 0 0 1 368.5018 15.5217)" fill="#FFFFFF" font-family="'SourceSansPro-Regular'" font-size="12px">X</text>
</svg>
