<?xml version="1.0" encoding="utf-8"?>
<!-- Generator: Adobe Illustrator 19.0.0, SVG Export Plug-In . SVG Version: 6.00 Build 0)  -->
<svg version="1.2" baseProfile="tiny" id="Layer_1" xmlns="http://www.w3.org/2000/svg" xmlns:xlink="http://www.w3.org/1999/xlink"
	 x="0px" y="0px" width="44px" height="44px" viewBox="0 0 44 44" xml:space="preserve">
<path id="XMLID_5_" fill="#FFFFFF" d="M9.3,23.3c2.9-0.1,2.9,1.7,6,1.7c3.2,0,3.1-1.1,6.6-1.3s3.5,1.2,6.9,1.3s2.6-1.3,5.8-1.3l-0.1,13.1
	c0,0-1.4,5.2-12.6,5S9.4,36.3,9.4,36.3L9.3,23.3L9.3,23.3z"/>
<ellipse id="XMLID_3_" fill="none" stroke="#FFFFFF" stroke-width="1.5" stroke-linecap="round" stroke-linejoin="round" stroke-miterlimit="10" cx="22" cy="5.8" rx="12.6" ry="3.7"/>
<path id="XMLID_2_" fill="none" stroke="#FFFFFF" stroke-width="1.5" stroke-linecap="round" stroke-linejoin="round" stroke-miterlimit="10" d="
	M9.5,5.8v30.5c0,0.2,0,0.4,0,0.6c0,2.7,5.6,5,12.5,5s12.6-2.2,12.6-5V5.8"/>
</svg>
