<?xml version="1.0" encoding="utf-8"?>
<!-- Generator: Adobe Illustrator 24.3.0, SVG Export Plug-In . SVG Version: 6.00 Build 0)  -->
<svg version="1.2" baseProfile="tiny" id="Layer_1" xmlns="http://www.w3.org/2000/svg" xmlns:xlink="http://www.w3.org/1999/xlink"
	 x="0px" y="0px" viewBox="0 0 48 260" overflow="visible" xml:space="preserve">
<path fill="#0B1320" d="M0-0.5v261h48v-261H0z M44,253.5c0,1.1-0.9,2-2,2H6c-1.1,0-2-0.9-2-2V6.5c0-1.1,0.9-2,2-2h36
	c1.1,0,2,0.9,2,2V253.5z"/>
<path id="XMLID_2_" fill="#FFFFFF" d="M43,3.5c1.1,0,2,0.9,2,2v248.9c0,1.1-0.9,2-2,2H5c-1.1,0-2-0.9-2-2V5.6c0-1.1,0.9-2,2-2
	L43,3.5 M43,1.5H5c-2.2,0-4,1.8-4,4.1v248.9c0,2.2,1.8,4.1,4,4.1h38c2.2,0,4-1.8,4-4.1V5.6C47,3.3,45.2,1.5,43,1.5L43,1.5z"/>
</svg>
