<?xml version="1.0" encoding="utf-8"?>
<!-- Generator: Adobe Illustrator 28.1.0, SVG Export Plug-In . SVG Version: 6.00 Build 0)  -->
<svg version="1.2" baseProfile="tiny" id="Layer_1" xmlns="http://www.w3.org/2000/svg" xmlns:xlink="http://www.w3.org/1999/xlink"
	 x="0px" y="0px" viewBox="0 0 40 40" overflow="visible" xml:space="preserve">
<path d="M26.2,30v-2.7c0.5,0.1,1.3,0.2,2.2,0.1c2.4-0.3,2.8-1.6,5.3-2c1.8-0.3,3.4,0,3.9,0.2c0.9,0.2,1.6,0.6,2.1,0.8
	c0,0,0,2.8,0,2.8c-2.2-1.5-3.9-1.6-5-1.5c-2.2,0.3-3.4,1.8-6.7,2.2C27.2,30,26.6,30,26.2,30z"/>
<path d="M13.8,27.6c-0.2,0-0.5,0-0.9,0c-0.4,0-0.8,0-0.9,0c-0.8,0-1.4-0.3-2.1-0.6c-2-0.9-1.9-1-2.5-1.2c-1.5-0.6-2.8-0.5-3.4-0.4
	C2.3,25.4,1,26,0.3,26.4c0,0,0,2.9,0,2.9c0.4-0.4,1.2-1,2.3-1.3c1.8-0.6,3.5-0.1,4,0c1.2,0.3,1.2,0.7,3.2,1.4c0.8,0.3,1.4,0.4,2,0.5
	c0.8,0.1,1.5,0.1,2,0C13.8,30,13.8,27.6,13.8,27.6z"/>
<path d="M36.5,33.1c-0.1,0-0.3-0.1-0.6-0.1c-2.2-0.3-3.4,0.9-5.1,1.3c-2.6,0.6-3.1-1.7-6.2-1.4c-2.2,0.2-2.3,1.3-4.4,1.4
	c-2.4,0.1-2.7-1.3-5.2-1.4c-3.1-0.2-3.7,2-6.1,1.4c-1.5-0.4-2.4-1.5-4.3-1.4c-0.5,0-1,0.1-1.2,0.2c0,0,0,2.6,0,2.6
	c0.3-0.1,0.7-0.2,1.2-0.2c2-0.1,2.9,1,4.3,1.4c2.4,0.6,3-1.5,6.1-1.4c2.5,0.1,2.8,1.5,5.2,1.4c2.2-0.1,2.2-1.2,4.4-1.4
	c3.1-0.3,3.6,2,6.2,1.4c1.7-0.4,2.9-1.6,5.1-1.3c0.2,0,0.4,0.1,0.6,0.1V33.1z"/>
<path d="M21.8,25.9c0.8,0.6,1.3,1.5,1.3,2.5c0,1.7-1.4,3.1-3.1,3.1c-1.7,0-3.1-1.4-3.1-3.1c0-1,0.5-2,1.3-2.5c0,0,0-21.1,0-21.1
	c0-1,0.9-1.8,1.8-1.7c0.9,0,1.7,0.8,1.8,1.7V8h8.4v2.6h-8.4v3.1h8.4v2.6h-8.4v3.2h8.4v2.6h-8.4L21.8,25.9z"/>
</svg>
