<?xml version="1.0" encoding="utf-8"?>
<!-- Generator: Adobe Illustrator 19.0.0, SVG Export Plug-In . SVG Version: 6.00 Build 0)  -->
<svg version="1.2" baseProfile="tiny" id="Layer_1" xmlns="http://www.w3.org/2000/svg" xmlns:xlink="http://www.w3.org/1999/xlink"
	 x="0px" y="0px" width="60px" height="60px" viewBox="0 0 60 60" xml:space="preserve">
<circle id="XMLID_1_" fill="none" stroke="#18212F" stroke-width="3" stroke-miterlimit="10" cx="30" cy="30" r="26"/>
<circle id="XMLID_2_" fill="#000000" cx="30" cy="30" r="22"/>
<path id="XMLID_4_" fill="#0A68FF" d="M8,35H2.9C1.8,35,1,33.7,1,32v-4c0-1.7,0.8-3,1.9-3H8V35z"/>
<path id="XMLID_5_" fill="#0A68FF" d="M57.1,35H52V25h5.1c1.1,0,1.9,1.3,1.9,3v4C59,33.7,58.2,35,57.1,35z"/>
<circle id="XMLID_3_" fill="none" stroke="#0A68FF" stroke-width="2" stroke-miterlimit="10" cx="30" cy="30" r="22"/>
<polygon id="XMLID_6_" fill="#0A68FF" points="12,20 30,30 12,40 "/>
<polygon id="XMLID_7_" fill="#0A68FF" points="48,40 30,30 48,20 "/>
<circle id="XMLID_26_" fill="#000000" cx="11.6" cy="48.5" r="6.3"/>
<path id="XMLID_18_" fill="#C3D2E7" d="M10,52.1h4v-1.2h-2.5v-5.2H10V52.1z M11.5,56C7.4,56,4,52.6,4,48.5S7.4,41,11.5,41
	s7.5,3.4,7.5,7.5S15.6,56,11.5,56z"/>
</svg>
