<?xml version="1.0" encoding="utf-8"?>
<!-- Generator: Adobe Illustrator 19.0.0, SVG Export Plug-In . SVG Version: 6.00 Build 0)  -->
<svg version="1.2" baseProfile="tiny" id="Layer_1" xmlns="http://www.w3.org/2000/svg" xmlns:xlink="http://www.w3.org/1999/xlink"
	 x="0px" y="0px" width="60px" height="60px" viewBox="0 0 60 60" xml:space="preserve">
<circle id="XMLID_1_" fill="none" stroke="#18212F" stroke-width="3" stroke-miterlimit="10" cx="30" cy="30" r="26"/>
<circle id="XMLID_2_" fill="#000000" cx="30" cy="30" r="22"/>
<circle id="XMLID_3_" fill="none" stroke="#465C7E" stroke-width="2" stroke-miterlimit="10" cx="30" cy="30" r="22"/>
<path id="XMLID_4_" fill="#465C7E" d="M8,35H4c-1.7,0-3-1.3-3-3v-4c0-1.7,1.3-3,3-3h4V35z"/>
<path id="XMLID_5_" fill="#465C7E" d="M56,35h-4V25h4c1.7,0,3,1.3,3,3v4C59,33.7,57.7,35,56,35z"/>
<path id="XMLID_29_" fill="#C3D2E7" d="M27.9,36.6c0-1.1,0.8-1.9,1.9-1.9c1,0,1.9,0.8,1.9,1.9s-0.8,1.9-1.9,1.9
	C28.6,38.5,27.9,37.7,27.9,36.6z M28.4,32.9c-0.5-3.6,3.3-5,3.3-7.2c0-1.2-0.8-2-2-2c-1,0-1.8,0.5-2.6,1.3l-1.6-1.4
	c1.1-1.2,2.5-2.1,4.4-2.1c2.7,0,4.6,1.4,4.6,4.1c0,3.1-3.9,4.2-3.5,7.4L28.4,32.9L28.4,32.9z"/>
</svg>
