<?xml version="1.0" encoding="utf-8"?>
<!-- Generator: Adobe Illustrator 19.0.0, SVG Export Plug-In . SVG Version: 6.00 Build 0)  -->
<svg version="1.2" baseProfile="tiny" id="Layer_1" xmlns="http://www.w3.org/2000/svg" xmlns:xlink="http://www.w3.org/1999/xlink"
	 x="0px" y="0px" width="60px" height="60px" viewBox="0 0 60 60" xml:space="preserve">
<circle id="XMLID_1_" fill="none" stroke="#18212F" stroke-width="3" stroke-miterlimit="10" cx="30" cy="30" r="26"/>
<circle id="XMLID_2_" fill="#000000" cx="30" cy="30" r="22"/>
<circle id="XMLID_3_" fill="none" stroke="#465C7E" stroke-width="2" stroke-miterlimit="10" cx="30" cy="30" r="22"/>
<path id="XMLID_4_" fill="#465C7E" d="M8,35H4c-1.7,0-3-1.3-3-3v-4c0-1.7,1.3-3,3-3h4V35z"/>
<path id="XMLID_5_" fill="#465C7E" d="M56,35h-4V25h4c1.7,0,3,1.3,3,3v4C59,33.7,57.7,35,56,35z"/>
<polygon id="XMLID_6_" fill="#465C7E" points="35.8,49.9 30.1,30.1 49.9,35.8 "/>
<polygon id="XMLID_7_" fill="#465C7E" points="24.2,10.1 29.9,29.9 10.1,24.2 "/>
<path id="XMLID_32_" fill="#C3D2E7" d="M8.1,28.4H8c-0.5-0.1-0.9-0.6-0.9-1.1C8.4,16,17.8,7.5,29.2,7c0.5,0,1,0.4,1,1s-0.4,1-1,1
	C18.8,9.5,10.4,17.2,9,27.5C9,28,8.6,28.4,8.1,28.4z"/>
<polyline id="XMLID_30_" fill="none" stroke="#C3D2E7" stroke-width="2" stroke-linecap="round" stroke-linejoin="round" stroke-miterlimit="10" stroke-dasharray="31,2000" points="
	3.9,24 7.9,28 13,24"/>
</svg>
