<?xml version="1.0" encoding="utf-8"?>
<!-- Generator: Adobe Illustrator 19.0.0, SVG Export Plug-In . SVG Version: 6.00 Build 0)  -->
<svg version="1.2" baseProfile="tiny" id="Layer_1" xmlns="http://www.w3.org/2000/svg" xmlns:xlink="http://www.w3.org/1999/xlink"
	 x="0px" y="0px" width="60px" height="60px" viewBox="0 0 60 60" xml:space="preserve">
<circle id="XMLID_1_" fill="none" stroke="#18212F" stroke-width="3" stroke-miterlimit="10" cx="30" cy="30" r="26"/>
<circle id="XMLID_2_" fill="#000000" cx="30" cy="30" r="22"/>
<path id="XMLID_4_" fill="#465C7E" d="M8,35H4c-1.7,0-3-1.3-3-3v-4c0-1.7,1.3-3,3-3h4V35z"/>
<path id="XMLID_5_" fill="#465C7E" d="M56,35h-4V25h4c1.7,0,3,1.3,3,3v4C59,33.7,57.7,35,56,35z"/>
<polygon id="XMLID_6_" fill="#465C7E" points="35.8,49.9 30.1,30.1 49.9,35.8 "/>
<polygon id="XMLID_7_" fill="#465C7E" points="24.2,10.1 29.9,29.9 10.1,24.2 "/>
<circle id="XMLID_3_" fill="none" stroke="#FF0000" stroke-width="2" stroke-miterlimit="10" cx="30" cy="30" r="22"/>
<path id="XMLID_13_" fill="#FF0000" d="M56,14.2H42.4c-0.5,0-1-0.4-1-1c0-0.2,0.1-0.4,0.2-0.5l6.8-10.4c0.3-0.4,0.9-0.6,1.3-0.3
	c0.1,0.1,0.2,0.2,0.3,0.3l6.8,10.4c0.3,0.4,0.2,1-0.3,1.3C56.4,14.1,56.2,14.2,56,14.2z"/>
<path id="XMLID_12_" fill="#FFFFFF" d="M49,11.9c-0.4,0-0.7-0.3-0.7-0.7s0.3-0.7,0.7-0.7s0.7,0.3,0.7,0.7
	C49.6,11.7,49.4,11.9,49,11.9z"/>
<polygon id="XMLID_11_" fill="#FFFFFF" points="48.4,5.6 49.6,5.6 49.5,9.5 48.5,9.5"/>
</svg>
