<?xml version="1.0" encoding="utf-8"?>
<!-- Generator: Adobe Illustrator 19.0.0, SVG Export Plug-In . SVG Version: 6.00 Build 0)  -->
<svg version="1.2" baseProfile="tiny" id="Layer_1" xmlns="http://www.w3.org/2000/svg" xmlns:xlink="http://www.w3.org/1999/xlink"
	 x="0px" y="0px" width="60px" height="60px" viewBox="0 0 60 60" xml:space="preserve">
<circle id="XMLID_1_" fill="none" stroke="#18212F" stroke-width="3" stroke-miterlimit="10" cx="30" cy="30" r="26"/>
<circle id="XMLID_2_" fill="#000000" cx="30" cy="30" r="22"/>
<circle id="XMLID_3_" fill="none" stroke="#465C7E" stroke-width="2" stroke-miterlimit="10" cx="30" cy="30" r="22"/>
<path id="XMLID_4_" fill="#465C7E" d="M8,35H4c-1.7,0-3-1.3-3-3v-4c0-1.7,1.3-3,3-3h4V35z"/>
<path id="XMLID_5_" fill="#465C7E" d="M56,35h-4V25h4c1.7,0,3,1.3,3,3v4C59,33.7,57.7,35,56,35z"/>
<polygon id="XMLID_6_" fill="#465C7E" points="20,48 30,30 40,48 "/>
<polygon id="XMLID_7_" fill="#465C7E" points="40,12 30,30 20,12 "/>
</svg>
