<?xml version="1.0" encoding="utf-8"?>
<!-- Generator: Adobe Illustrator 24.3.0, SVG Export Plug-In . SVG Version: 6.00 Build 0)  -->
<svg version="1.2" baseProfile="tiny" id="Layer_1" xmlns="http://www.w3.org/2000/svg" xmlns:xlink="http://www.w3.org/1999/xlink"
	 x="0px" y="0px" viewBox="0 0 76 58" overflow="visible" xml:space="preserve">
<path fill="none" stroke="#EEC000" stroke-width="5" stroke-linecap="round" stroke-linejoin="round" stroke-miterlimit="10" d="
	M60.5,43.5L73,11c-6.4-3.1-18.4-7.7-34-8C22.3,2.8,9.5,7.8,3,10.9l12.5,32.5c4.5-1.9,12.7-4.6,23.1-4.5C48.4,39,56,41.6,60.5,43.5z"
	/>
<g>
	<path fill="none" stroke="#EEC000" stroke-width="5" stroke-linecap="round" stroke-linejoin="round" stroke-miterlimit="10" d="
		M37.9,24.3c0.2,0.8,0.4,2,0.2,3.3c0,0.3-0.2,1.3-0.7,2.4c-0.6,1.4-1.2,1.6-1.8,2.9c-0.3,0.6-0.6,1.3-0.7,2.1
		c-0.1,0.6,0,1.8,2.9,5.4c1.9,2.4,2.7,2.8,3.1,4.4c0.3,1.2,0.2,2.2,0.1,2.6c-0.2,1.4-0.7,2.1-2.2,4.9c-0.6,1-1,1.9-1.4,2.6"/>
	<polygon fill="#EEC000" stroke="#EEC000" stroke-linecap="round" stroke-linejoin="round" stroke-miterlimit="10" points="38,16.6 
		33.7,25.1 42.3,25.1 	"/>
</g>
<g>
	<path fill="none" stroke="#EEC000" stroke-width="5" stroke-linecap="round" stroke-linejoin="round" stroke-miterlimit="10" d="
		M23.9,24.3c0.2,0.8,0.4,2,0.2,3.3c0,0.3-0.2,1.3-0.7,2.4c-0.6,1.4-1.2,1.6-1.8,2.9c-0.3,0.6-0.6,1.3-0.7,2.1
		c-0.1,0.6,0,1.8,2.9,5.4c1.9,2.4,2.7,2.8,3.1,4.4c0.3,1.2,0.2,2.2,0.1,2.6c-0.2,1.4-0.7,2.1-2.2,4.9c-0.6,1-1,1.9-1.4,2.6"/>
	<polygon fill="#EEC000" stroke="#EEC000" stroke-linecap="round" stroke-linejoin="round" stroke-miterlimit="10" points="24,16.6 
		19.7,25.1 28.2,25.1 	"/>
</g>
<g>
	<path fill="none" stroke="#EEC000" stroke-width="5" stroke-linecap="round" stroke-linejoin="round" stroke-miterlimit="10" d="
		M51.9,24.3c0.2,0.8,0.4,2,0.2,3.3c0,0.3-0.2,1.3-0.7,2.4c-0.6,1.4-1.2,1.6-1.8,2.9c-0.3,0.6-0.6,1.3-0.7,2.1
		c-0.1,0.6,0,1.8,2.9,5.4c1.9,2.4,2.7,2.8,3.1,4.4c0.3,1.2,0.2,2.2,0.1,2.6c-0.2,1.4-0.7,2.1-2.2,4.9c-0.6,1-1,1.9-1.4,2.6"/>
	<polygon fill="#EEC000" stroke="#EEC000" stroke-linecap="round" stroke-linejoin="round" stroke-miterlimit="10" points="52,16.6 
		47.7,25.1 56.3,25.1 	"/>
</g>
</svg>
